/* XPM */
static char *result[] = {
/* columns rows colors chars-per-pixel */
"128 128 34 1 ",
"  c black",
". c #010101",
"X c gray21",
"o c #373636",
"O c #373737",
"+ c #383737",
"@ c gray22",
"# c #7D1C00",
"$ c #7D1D00",
"% c #7E1D00",
"& c #7E1D01",
"* c #7E1E01",
"= c gray28",
"- c #484848",
"; c #606060",
": c #606160",
"> c #616160",
", c gray38",
"< c gray49",
"1 c #7E7D7D",
"2 c #7E7E7E",
"3 c #AE2826",
"4 c #AF2926",
"5 c #AF2927",
"6 c #B02A28",
"7 c #A0A0A0",
"8 c #A1A0A0",
"9 c gray63",
"0 c #A2A2A1",
"q c #A2A2A2",
"w c gray75",
"e c #C0BFBF",
"r c #C0C0C0",
"t c None",
/* pixels */
"tttttttttttttttttttttttttttttttttttttttttttttttttttttttttttttttttttttttttttttttttttttttttttttttttttttttttttttttttttttttttttttttt",
"tttttttttttttttttttttttttttttttttttttttttttttttttttttttttttttttttttttttttttttttttttttttttttttttttttttttttttttttttttttttttttttttt",
"tttttttttttttttttttttttttttttttttttttttttttttttttttttttttttttttttttttttttttttttttttttttttttttttttttttttttttttttttttttttttttttttt",
"tttttttttttttttttttttttttttttttttttttttttttttttttttttttttttttttttttttttttttttttttttttttttttttttttttttttttttttttttttttttttttttttt",
"tttttttttttttttttttttttttttttttttttttttttttttttttttttttttttttttttttttttttttttttttttttttttttttttttttttttttttttttttttttttttttttttt",
"tttttttttttttttttttttttttttttttttttttttttttttttttttttttttttttttttttttttttttttttttttttttttttttttttttttttttttttttttttttttttttttttt",
"tttttttttttttttttttttttttttttttttttttttttttttttttttttttttttttttttttttttttttttttttttttttttttttttttttttttttttttttttttttttttttttttt",
"tttttttttttttttttttttttttttttttttttttttttttttttttttttttttttttttttttttttttttttttttttttttttttttttttttttttttttttttttttttttttttttttt",
"tttttttttttttttttttttttttttttttttttttttttttttttttttttttttttttttttttttttttttttttttttttttttttttttttttttttttttttttttttttttttttttttt",
"tttttttttttttttttttttttttttttttttttttttttttttttttttttttttttttttttttttttttttttttttttttttttttttttttttttttttttttttttttttttttttttttt",
"tttttttttttttttttttttttttttttttttttttttttttttttttttttttttttttttttttttttttttttttttttttttttttttttttttttttttttttttttttttttttttttttt",
"tttttttttttttttttttttttttttttttttttttttttttttttttttttttttttttttttttttttttttttttttttttttttttttttttttttttttttttttttttttttttttttttt",
"tttttttttttttttttttttttttttttttttttttttttttttttttttttttttttttttttttttttttttttttttttttttttttttttttttttttttttttttttttttttttttttttt",
"tttttttttttttttttttttttttttttttttttttttttttttttttttttttttttttttttttttttttttttttttttttttttttttttttttttttttttttttttttttttttttttttt",
"tttttttttttttttttttttttttttttttttttttttttttttttttttttttttttttttttttttttttttttttttttttttttttttttttttttttttttttttttttttttttttttttt",
"tttttttttttttttttttttttttttttttttttttttttttttttttttttttttttttttttttttttttttttttttttttttttttttttttttttttttttttttttttttttttttttttt",
"tttttttttttttttttttttttttttttttttttttttttttttttttttttttttttttttttttttttttttttttttttttttttttttttttttttttttttttttttttttttttttttttt",
"ttttttttttttttttttttttttttttttttttttttttttttttttttttttttttttt     . tttttttttttttttttttttttttttttttttttttttttttttttttttttttttttt",
"tttttttttttttttttttttttttttttttttttttttttttttttttttt   .799r9rrrrrrrrrrrr   .ttttttttttttttttttttttttttttttttttttttttttttttttttt",
"tttttttttttttttttttttttttttttttttttttttttttttttt..979997w9wrrwrwrrrwwrrrrrrrrrr.  tttttttttttttttttttttttttttttttttttttttttttttt",
"tttttttttttttttttttttttttttttttttttttttttttt. 999q99999*&&*#$%**&&**&*$%$$wrwwrwrwr .ttttttttttttttttttttttttttttttttttttttttttt",
"tttttttttttttttttttttttttttttttttttttttttt.9997789*$%%$%**$&$***%$%%%*5*5$5*5$5rrrrrrw. tttttttttttttttttttttttttttttttttttttttt",
"ttttttttttttttttttttttttttttttttttttttt  9999<9%%%$%%*&$&.. ... <. . . .&%%5*5&5&5$rrrwwr tttttttttttttttttttttttttttttttttttttt",
"ttttttttttttttttttttttttttttttttttttt..99999$&&*$$$%. <2<<<2<<2  .2<2<<2<2< .$3655555rrrrrr tttttttttttttttttttttttttttttttttttt",
"tttttttttttttttttttttttttttttttttttt 99999$$%&*&$. <<< . .799rr9wrrrrrw    <2<< .65555$wwrrr  tttttttttttttttttttttttttttttttttt",
"tttttttttttttttttttttttttttttttttt 99999*&*$%%. 9< . 9r97rrrrrrrrrwrrwrwrwrrw..-< .555456rwrwr.ttttttttttttttttttttttttttttttttt",
"ttttttttttttttttttttttttttttttttt 99997$**&*  <<.999999wr%$$&%&*&%%*&$*$rrrwwrrw. =- 55455$werw.tttttttttttttttttttttttttttttttt",
"tttttttttttttttttttttttttttttttt 9999**$&*$.2  <99797&*%&&**%**$%%$%3&$$5$5$rrrrrrw.-  5555*rrrr.ttttttttttttttttttttttttttttttt",
"ttttttttttttttttttttttttttttttt.9777$&%&% <2 29999*&*$%**XOOOOO;;;;;;;,;$*&5%5*rwrwww =.55*5%rrwrwtttttttttttttttttttttttttttttt",
"tttttttttttttttttttttttttttttt.7979$%*$$.<.<9999%&*$$&OOO@OO;X,;,;,;;;;>;,;;5*3$5rwrrr =.55$5&rrwr.ttttttttttttttttttttttttttttt",
"tttttttttttttttttttttttttttttt29999$&%& < <997%$%%$@X@XOOO@OO;;;;,;;;;,;;;;;;;%5%5$rrrwr-.$3%**wrrr tttttttttttttttttttttttttttt",
"ttttttttttttttttttttttttttttt.7799*&&&%<.7997$$%$%OOOOOOOOOO;,;;;;;:;;,,;;;;;;;;5*5$rrrrr- $4$5rrwwrtttttttttttttttttttttttttttt",
"ttttttttttttttttttttttttttttt9999&&%&%  9799*&&*OOOOOXOOOOO;;;;;,;;;;;;;;;;,;,;;,5%3%rrrrr-5%%*&rrrw ttttttttttttttttttttttttttt",
"tttttttttttttttttttttttttttt q977$%%** <999$*%%OOOOOOOOXOO;;;;;;;;,;;,,;;,;,;;;;;,5%5%errr..5%5$rrrr ttttttttttttttttttttttttttt",
"tttttttttttttttttttttttttttt.9999$&*$% 9999$%&*XOOOOOOOOOOO;,,,;;;;;;,;;,;,;;;;;;;;5%6*rwrr &%$%rrrrrttttttttttttttttttttttttttt",
"tttttttttttttttttttttttttttt.9799&&%%.<977$%%$O@OOOOOOOOOO;;:;;;wr;,;;,;;;;;;,;;,;;$3*5rwrr 5%5*%r2wwttttttttttttttttttttttttttt",
"tttttttttttttttttttttttttttt.7979%$*% 9999&%*%OOXOOOOOOOOOO;;r<w9rwr;;;;;;,,,,,;;>,;$5*wwwr9$$$$rrww9 tttttttttttttttttttttttttt",
"tttttttttttttttttttttttttttt 9999$%*%.9999&&%$XOOOOOOOOOXOO,;rrwwrrw,;;;>;;;;,;;,;;;6%5$rrr.5&*&rwrrrttttttttttttttttttttttttttt",
"tttttttttttttttttttttttttttt.9999*%*$$99q9$&&$OOOOOX@OOXOOO,;,rrrwr;;;;;,;;>,;;;,;:5$5&rwrw.&$$*rrrw9ttttttttttttttttttttttttttt",
"tttttttttttttttttttttttttttt.99999**%$ 997*%$*OOOOXOOOOOOX,;;,;,;;,;;;,;;;;,;;;,;;,&5*5wrw.%5&$&rrr7 ttttttttttttttttttttttttttt",
"tttttttttttttttttttttttttttt  9997%&**$9997$$*$OOOOOoOOOOOO;;;;;;;;;;;;;;;;;;;;;,,;5%5#rrr.%$$*rrr97=ttttttttttttttttttttttttttt",
"tttttttttttttttttttttttttttt =79989*$$$ q79*%$$$OOXOOOOOO@;;,;;,;,,;,;;;;;;;,;,;;,5*5$rrw 5&5&wrr99..ttttttttttttttttttttttttttt",
"ttttttttttttttttttttttttttttt= 77999$&$$&999&$$*$XO@OOOOOOO;;,,,;>;,;;;;;,;;;,,,;5%*&wrr.3*$*wq979 = ttttttttttttttttttttttttttt",
"ttttttttttttttttttttttttttttt =.99999&**$$.97*&*%$OOOXOXOO;O;,;;;,;;X;;;;,;;;;;*5*5&rr9.5%&$r7r79.<-tttttttttttttttttttttttttttt",
"ttttttttttttttttttttttttttttt.-- 99999%$%%$.997$*&&$OOOOXO+OO;;;,;;:;;;,:;;;;5&5&3rr9.55$5$wq799 22 tttttttttttttttttttttttttttt",
"tttttttttttttttttttttttttttttt =< 799999%$$*$.999*%&&$*OOOOO;@;,,;;;;,,;;,5%5&5%5r9  3535&r9r99 <<2ttttttttttttttttttttttttttttt",
"ttttttttttttttttttttttttttttttt-=2<.99997*%$&*$..79**%%&%%%%O@O;;,,;,$%%$*%%%5ww9 555555rr999q.<<2 ttttttttttttttttttttttttttttt",
"tttttttttttttttttttttttttttttttt =22 797999%$$%$$ . 299%&%&*&%%*%&$%&$*&$$5r9w  353555rwr9w0.22<< tttttttttttttttttttttttttttttt",
"ttttttttttttttttttttttttttttttttt <<<2 7997799%$%$$%$   9797*$&#%%$**9997.. %555553wrrrw99  <<<<.ttttttttttttttttttttttttttttttt",
"tttttttttttttttttttttttttttttttttt.2<<<< 99799999$&*%$&*&*% . ...   ..*$5$5&5555rrwwwrw9 <<<2<< tttttttttttttttttttttttttttttttt",
"ttttttttttttttttttttttttttttttttttt.<<<<2<  999999<99&$$**%$*&&%$%*$&%$$$*%59rrrrrrwr. 2<<<2< tttttttttttttttttttttttttttttttttt",
"ttttttttttttttttttttttttttttttttttttt <2<<<<9  99997q799999999%%&%&999999979w9r999 .<2<<<<< tttttttttttttttttttttttttttttttttttt",
"ttttttttttttttttttttttttttttttttttttttt <2<<<2222  .99999997977999999999999979   <<1<<<<<  ttttttttttttttttttttttttttttttttttttt",
"ttttttttttttttttttttttttttttttttttttttttt .222222<<<<<   ..79q97999999. . .<<<2<<2<2<<< tttttttttttttttttttttttttttttttttttttttt",
"ttttttttttttttttttttttttttttttttttttttttttt. <<<<<<<<<<<<<2<<<<22<<<<2<2<<2<<<12<<<<  tttttttttttttttttttttttttttttttttttttttttt",
"ttttttttttttttttttttttttttttttttttttttttttttttt .<<<<<2<2<2<2<<<22<<2<<<2<2<2<2< . ttttttttttttttttttttttttttttttttttttttttttttt",
"tttttttttttttttttttttttttttttttttttttttttttttttttt..  <2<22<<<22<2222<22<<<    ttttttttttttttttttttttttttttttttttttttttttttttttt",
"ttttttttttttttttttttttttttttttttttttttttttttttttttttttttt.  .   .    .  tttttttttttttttttttttttttttttttttttttttttttttttttttttttt",
"tttttttttttttttttttttttttttttttttttttttttttttttttttttttttttttttttttttttttttttttttttttttttttttttttttttttttttttttttttttttttttttttt",
"tttttttttttttttttttttttttttttttttttttttttttttttttttttttttttttttttttttttttttttttttttttttttttttttttttttttttttttttttttttttttttttttt",
"tttttttttttttttttttttttttttttttttttttttttttttttttttttttttttttttttttttttttttttttttttttttttttttttttttttttttttttttttttttttttttttttt",
"tttttttttttttttttttttttttttttttttttttttttttttttttttttttttttttttttttttttttttttttttttttttttttttttttttttttttttttttttttttttttttttttt",
"tttttttttttttttttttttttttttttttttttttttttttttttttttttttttttttttttttttttttttttttttttttttttttttttttttttttttttttttttttttttttttttttt",
"tttttttttttttttttttttttttttttttttttttttttttttttttttttttttttttttttttttttttttttttttttttttttttttttttttttttttttttttttttttttttttttttt",
"tttttttttttttttttttttttttttttttttttttttttttttttttttttttttttttttttttttttttttttttttttttttttttttttttttttttttttttttttttttttttttttttt",
"tttttttttttttttttttttttttttttttttttttttttttttttttttttttttttttttttttttttttttttttttttttttttttttttttttttttttttttttttttttttttttttttt",
"tttttttttttttttttttttttttttttttttttttttttttttttttttttttttttttttttttttttttttttttttttttttttttttttttttttttttttttttttttttttttttttttt",
"tttttttttttttttttttttttttttttttttttttttttttttttttttttttttttttttttttttttttttttttttttttttttttttttttttttttttttttttttttttttttttttttt",
"tttttttttttttttttttttttttttttttttttttttttttttttttttttttttttttttttttttttttttttttttttttttttttttttttttttttttttttttttttttttttttttttt",
"tttttttttttttttttttttttttttttttttttttttttttttttttttttttttttttttttttttttttttttttttttttttttttttttttttttttttttttttttttttttttttttttt",
"tttttttttttttttttttttttttttttttttttttttttttttttttttttttttttttttttttttttttttttttttttttttttttttttttttttttttttttttttttttttttttttttt",
"tttttttttttttttttttttttttttttttttttttttttttttttttttttttttttttttttttttttttttttttttttttttttttttttttttttttttttttttttttttttttttttttt",
"tttttttttttttttttttttttttttttttttttttttttttttttttttttttttttttttttttttttttttttttttttttttttttttttttttttttttttttttttttttttttttttttt",
"tttttttttttttttttttttttttttttttttttttttttttttttttttttttttttttttttttttttttttttttttttttttttttttttttttttttttttttttttttttttttttttttt",
"tttttttttttttttttttttttttttttttttttttttttttttttttttttttttttttttttttttttttttttttttttttttttttttttttttttttttttttttttttttttttttttttt",
"tttttttttttttttttttttttttttttttttttttttttttttttttttttttttttttttttttttttttttttttttttttttttttttttttttttttttttttttttttttttttttttttt",
"tttttttttttttttttttttttttttttttttttttttttttttttttttttttttttttttttttttttttttttttttttttttttttttttttttttttttttttttttttttttttttttttt",
"tttttttttttttttttttttttttttttttttttttttttttttttttttttttttttttttttttttttttttttttttttttttttttttttttttttttttttttttttttttttttttttttt",
"tttttttttttttttttttttttttttttttttttttttttttttttttttttttttttttttttttttttttttttttttttttttttttttttttttttttttttttttttttttttttttttttt",
"tttttttttttttttttttttttttttttttttttttttttttttttttttttttttttttttttttttttttttttttttttttttttttttttttttttttttttttttttttttttttttttttt",
"tttttttttttttttttttttttttttttttttttttttttttttttttttttttttttttttttttttttttttttttttttttttttttttttttttttttttttttttttttttttttttttttt",
"tttttttttttttttttttttttttttttttttttttttttttttttttttttttttttttttttttttttttttttttttttttttttttttttttttttttttttttttttttttttttttttttt",
"tttttttttttttttttttttttttttttttttttttttttttttttttttttttttttttttttttttttttttttttttttttttttttttttttttttttttttttttttttttttttttttttt",
"tttttttttttttttttttttttttttttttttttttttttttttttttttttttttttttttttttttttttttttttttttttttttttttttttttttttttttttttttttttttttttttttt",
"tttttttttttttttttttttttttttttttttttttttttttttttttttttttttttttttttttttttttttttttttttttttttttttttttttttttttttttttttttttttttttttttt",
"tttttttttttttttttttttttttttttttttttttttttttttttttttttttttttttttttttttttttttttttttttttttttttttttttttttttttttttttttttttttttttttttt",
"tttttttttttttttttttttttttttttttttttttttttttttttttttttttttttttttttttttttttttttttttttttttttttttttttttttttttttttttttttttttttttttttt",
"tttttttttttttttttttttttttttttttttttttttttttttttttttttttttttttttttttttttttttttttttttttttttttttttttttttttttttttttttttttttttttttttt",
"tttttttttttttttttttttttttttttttttttttttttttttttttttttttttttttttttttttttttttttttttttttttttttttttttttttttttttttttttttttttttttttttt",
"tttttttttttttttttttttttttttttttttttttttttttttttttttttttttttttttttttttttttttttttttttttttttttttttttttttttttttttttttttttttttttttttt",
"tttttttttttttttttttttttttttttttttttttttttttttttttttttttttttttttttttttttttttttttttttttttttttttttttttttttttttttttttttttttttttttttt",
"tttttttttttttttttttttttttttttttttttttttttttttttttttttttttttttttttttttttttttttttttttttttttttttttttttttttttttttttttttttttttttttttt",
"tttttttttttttttttttttttttttttttttttttttttttttttttttttttttttttttttttttttttttttttttttttttttttttttttttttttttttttttttttttttttttttttt",
"tttttttttttttttttttttttttttttttttttttttttttttttttttttttttttttttttttttttttttttttttttttttttttttttttttttttttttttttttttttttttttttttt",
"tttttttttttttttttttttttttttttttttttttttttttttttttttttttttttttttttttttttttttttttttttttttttttttttttttttttttttttttttttttttttttttttt",
"tttttttttttttttttttttttttttttttttttttttttttttttttttttttttttttttttttttttttttttttttttttttttttttttttttttttttttttttttttttttttttttttt",
"tttttttttttttttttttttttttttttttttttttttttttttttttttttttttttttttttttttttttttttttttttttttttttttttttttttttttttttttttttttttttttttttt",
"tttttttttttttttttttttttttttttttttttttttttttttttttttttttttttttttttttttttttttttttttttttttttttttttttttttttttttttttttttttttttttttttt",
"tttttttttttttttttttttttttttttttttttttttttttttttttttttttttttttttttttttttttttttttttttttttttttttttttttttttttttttttttttttttttttttttt",
"tttttttttttttttttttttttttttttttttttttttttttttttttttttttttttttttttttttttttttttttttttttttttttttttttttttttttttttttttttttttttttttttt",
"tttttttttttttttttttttttttttttttttttttttttttttttttttttttttttttttttttttttttttttttttttttttttttttttttttttttttttttttttttttttttttttttt",
"tttttttttttttttttttttttttttttttttttttttttttttttttttttttttttttttttttttttttttttttttttttttttttttttttttttttttttttttttttttttttttttttt",
"tttttttttttttttttttttttttttttttttttttttttttttttttttttttttttttttttttttttttttttttttttttttttttttttttttttttttttttttttttttttttttttttt",
"tttttttttttttttttttttttttttttttttttttttttttttttttttttttttttttttttttttttttttttttttttttttttttttttttttttttttttttttttttttttttttttttt",
"tttttttttttttttttttttttttttttttttttttttttttttttttttttttttttttttttttttttttttttttttttttttttttttttttttttttttttttttttttttttttttttttt",
"tttttttttttttttttttttttttttttttttttttttttttttttttttttttttttttttttttttttttttttttttttttttttttttttttttttttttttttttttttttttttttttttt",
"tttttttttttttttttttttttttttttttttttttttttttttttttttttttttttttttttttttttttttttttttttttttttttttttttttttttttttttttttttttttttttttttt",
"tttttttttttttttttttttttttttttttttttttttttttttttttttttttttttttttttttttttttttttttttttttttttttttttttttttttttttttttttttttttttttttttt",
"tttttttttttttttttttttttttttttttttttttttttttttttttttttttttttttttttttttttttttttttttttttttttttttttttttttttttttttttttttttttttttttttt",
"tttttttttttttttttttttttttttttttttttttttttttttttttttttttttttttttttttttttttttttttttttttttttttttttttttttttttttttttttttttttttttttttt",
"tttttttttttttttttttttttttttttttttttttttttttttttttttttttttttttttttttttttttttttttttttttttttttttttttttttttttttttttttttttttttttttttt",
"tttttttttttttttttttttttttttttttttttttttttttttttttttttttttttttttttttttttttttttttttttttttttttttttttttttttttttttttttttttttttttttttt",
"tttttttttttttttttttttttttttttttttttttttttttttttttttttttttttttttttttttttttttttttttttttttttttttttttttttttttttttttttttttttttttttttt",
"tttttttttttttttttttttttttttttttttttttttttttttttttttttttttttttttttttttttttttttttttttttttttttttttttttttttttttttttttttttttttttttttt",
"tttttttttttttttttttttttttttttttttttttttttttttttttttttttttttttttttttttttttttttttttttttttttttttttttttttttttttttttttttttttttttttttt",
"tttttttttttttttttttttttttttttttttttttttttttttttttttttttttttttttttttttttttttttttttttttttttttttttttttttttttttttttttttttttttttttttt",
"tttttttttttttttttttttttttttttttttttttttttttttttttttttttttttttttttttttttttttttttttttttttttttttttttttttttttttttttttttttttttttttttt",
"tttttttttttttttttttttttttttttttttttttttttttttttttttttttttttttttttttttttttttttttttttttttttttttttttttttttttttttttttttttttttttttttt",
"tttttttttttttttttttttttttttttttttttttttttttttttttttttttttttttttttttttttttttttttttttttttttttttttttttttttttttttttttttttttttttttttt",
"tttttttttttttttttttttttttttttttttttttttttttttttttttttttttttttttttttttttttttttttttttttttttttttttttttttttttttttttttttttttttttttttt",
"tttttttttttttttttttttttttttttttttttttttttttttttttttttttttttttttttttttttttttttttttttttttttttttttttttttttttttttttttttttttttttttttt",
"tttttttttttttttttttttttttttttttttttttttttttttttttttttttttttttttttttttttttttttttttttttttttttttttttttttttttttttttttttttttttttttttt",
"tttttttttttttttttttttttttttttttttttttttttttttttttttttttttttttttttttttttttttttttttttttttttttttttttttttttttttttttttttttttttttttttt",
"tttttttttttttttttttttttttttttttttttttttttttttttttttttttttttttttttttttttttttttttttttttttttttttttttttttttttttttttttttttttttttttttt",
"tttttttttttttttttttttttttttttttttttttttttttttttttttttttttttttttttttttttttttttttttttttttttttttttttttttttttttttttttttttttttttttttt",
"tttttttttttttttttttttttttttttttttttttttttttttttttttttttttttttttttttttttttttttttttttttttttttttttttttttttttttttttttttttttttttttttt",
"tttttttttttttttttttttttttttttttttttttttttttttttttttttttttttttttttttttttttttttttttttttttttttttttttttttttttttttttttttttttttttttttt",
"tttttttttttttttttttttttttttttttttttttttttttttttttttttttttttttttttttttttttttttttttttttttttttttttttttttttttttttttttttttttttttttttt"
};
