/* XPM */
static char *_58a5554d3304e64ab287a756376300dn0cBM1UyrZ9qXFJE[] = {
/* columns rows colors chars-per-pixel */
"128 128 41 1 ",
"  c None",
". c black",
"X c #010101",
"o c gray4",
"O c #0B0B0B",
"+ c #0C0C0C",
"@ c gray7",
"# c #131313",
"$ c gray8",
"% c #151515",
"& c #161616",
"* c #181818",
"= c #191919",
"- c #1A1919",
"; c gray10",
": c gray19",
"> c #313131",
", c #323131",
"< c #323232",
"1 c gray28",
"2 c #484747",
"3 c #484848",
"4 c #606060",
"5 c #616060",
"6 c gray38",
"7 c gray49",
"8 c #7E7D7D",
"9 c #7E7E7E",
"0 c #91D77A",
"q c #91D77B",
"w c #939393",
"e c #A0A0A0",
"r c #A1A0A0",
"t c gray63",
"y c #A2A2A2",
"u c gray75",
"i c #C0C0C0",
"p c gray77",
"a c #C5C5C4",
"s c #C5C5C5",
"d c #C6C6C6",
/* pixels */
"                                                                                                                                ",
"                                                                                                                                ",
"                                                                                                                                ",
"                                                                                                                                ",
"                                                                                                                                ",
"                                                                                                                                ",
"                                                                                                                                ",
"                                                                                                                                ",
"                                                                                                                                ",
"                                                                                                                                ",
"                                                                                                                                ",
"                                                                                                                                ",
"                                                                                                                                ",
"                                                                                                                                ",
"                                                             X                                                                  ",
"                                                  XXXXXXXXXXXXXXXXXXXXX                                                         ",
"                                              XXXXXXXXXXXXXXXXXXXXXXXXXXXXXX                                                    ",
"                                           XXXXXXXX7t7ttttttttttttttttXXXXXXXXX                                                 ",
"                                        XXXXXXXt7t7t7ttttttttttttttttttttttXXXXXX                                               ",
"                                      XXXXXXt7t7ttttXXXXXXXXXXXXXXXXXXttttttttXXXXX                                             ",
"                                    XXXXXt7t7t7tXXXX>>>>>>>>>>>>>>>>>XXXXtttttttXXXXX                                           ",
"                                   XtXX7t7tttXXX>>>>>>>>>>>>4>4>4>4>4>4>4XXXttttttXXXX                                          ",
"                                  XXXX7t7ttXXX>>>>>>>>>>>>>>>>>>>>>4>4>4>4>XXXttttttXXXXXX                                      ",
"                                 XXXt7ttttXX>>XXXXX>>>4>4>4>4>4>4>4>4>4>4>4444XXttttX=XXX=X                                     ",
"                                XXXtttttXX>>>>0+O00>>>>>>>>>>4>4>4>4>4>44444444XXttXXXXXtXX                                     ",
"                               XtXtttttXX>>>>>XXXXX>4>4>4>4>4>4>4444444444444444XXtXXttXtX=                                     ",
"                               XXXtttttX>>>>>>>>>>>>>>>4>4>4>4>444444>>>>>>>4XXX4XXtttttXXX                                     ",
"                              XtXtttttX>>>>>>>4>4>4>4>4>44444444444>4>4>4>4XX=XX44XXXXXtXtX                                     ",
"                              XtXtttttX>>>>>>>>>>>>4>4>444444444>>>4>>>>>>XXX>>>>XXssssXtXX                                     ",
"                              XXXttttXX>4>4>4>4>4>444444444444444>4>4>4444XX44XXXXssssssXXX                                     ",
"                              XXttttttX>>>>>>4>4>4444444444XXXX4>4>4>4444XX44XssssssssssXtXX                                    ",
"                              XXttttttX>4>4>4>44444444444444X444444444444XX4XssssssssssXsXX                                     ",
"                              XXttttttX>>4>4>4444444444444444444444444>4XX>4XsssssssssX=XXX                                     ",
"                              XXXttttttX4>444444444444444444444444444444XX4Xssssssssss==XXX                                     ",
"                              XXtXtttttX>4444444444444444444444444444444XX>Xsssss=Xsss===XX                                     ",
"                              X1XXttttttX4444444444444444444444444444444XX4Xsssss=Xsss===XX                                     ",
"                              X13XXttttttXX4444444444444444444444444444444XsssssX==XssX==XX                                     ",
"                              X131XXttttttXX444444444444444444444444444444XsssssX==XssX=X7X                                     ",
"                              X3131XXXttttttXX4444444444444444444444444444XsssssX==XssXXX7X                                     ",
"                              X33377XXXXttttttXXX44444444444444444444444XXXsssssX==XsssX77X                                     ",
"                              X3311777XXXXtttttttXXXXX44444444444444XXXX7tXsssssXXXXssXX77X                                     ",
"                              X131337777XXXXttttitutttXXXXXXXXXXXXXtttttt7XssssssXXssX3777X                                     ",
"                               X1117177777XXXXXttttittttttttiiiiittttttt7tXXsssssXXwXX7777X                                     ",
"                               X1112777777777XXXXXXXiuuuitttiiiiiiiutXXXXXXXsssssX7O##X77X X                                    ",
"                                X33117777777777777XXXXXXXXXXXXXXXXXXXXXX777XXwwXX7##%%%XXXXX                                    ",
"                                XX1373777777777777777777777XXX77t7t7tttt7777XXw#X%XXXX##%#XX                                    ",
"                                 XX33377777777777777777777777777777t7t7tt7777O#%%XX317XXXX                                      ",
"                                  XX717777777777777777777777777777t7t7t7t777X##%X7t77XX                                         ",
"                                    XX17177777777777777777777777777777777t7tX##X7777X                                           ",
"                                     XX17777777777777777777777777777t7t7t7t3X#X7t7XX                                            ",
"                                       XXX777777777777777777777777777777771X#X77XX                                              ",
"                                          XX777777777777777777777777777773X#XXXX                                                ",
"                                             XXX7777777777777777777777733X#XX                                                   ",
"                                                XXXXX777777777777777XXXXX#XX                                                    ",
"                                                      XXXXXXXXXXXXX    XXX                                                      ",
"                                                                                                                                ",
"                                                                                                                                ",
"                                                                                                                                ",
"                                                                                                                                ",
"                                                                                                                                ",
"                                                                                                                                ",
"                                                                                                                                ",
"                                                                                                                                ",
"                                                                                                                                ",
"                                                                                                                                ",
"                                                                                                                                ",
"                                                                                                                                ",
"                                                                                                                                ",
"                                                                                                                                ",
"                                                                                                                                ",
"                                                                                                                                ",
"                                                                                                                                ",
"                                                                                                                                ",
"                                                                                                                                ",
"                                                                                                                                ",
"                                                                                                                                ",
"                                                                                                                                ",
"                                                                                                                                ",
"                                                                                                                                ",
"                                                                                                                                ",
"                                                                                                                                ",
"                                                                                                                                ",
"                                                                                                                                ",
"                                                                                                                                ",
"                                                                                                                                ",
"                                                                                                                                ",
"                                                                                                                                ",
"                                                                                                                                ",
"                                                                                                                                ",
"                                                                                                                                ",
"                                                                                                                                ",
"                                                                                                                                ",
"                                                                                                                                ",
"                                                                                                                                ",
"                                                                                                                                ",
"                                                                                                                                ",
"                                                                                                                                ",
"                                                                                                                                ",
"                                                                                                                                ",
"                                                                                                                                ",
"                                                                                                                                ",
"                                                                                                                                ",
"                                                                                                                                ",
"                                                                                                                                ",
"                                                                                                                                ",
"                                                                                                                                ",
"                                                                                                                                ",
"                                                                                                                                ",
"                                                                                                                                ",
"                                                                                                                                ",
"                                                                                                                                ",
"                                                                                                                                ",
"                                                                                                                                ",
"                                                                                                                                ",
"                                                                                                                                ",
"                                                                                                                                ",
"                                                                                                                                ",
"                                                                                                                                ",
"                                                                                                                                ",
"                                                                                                                                ",
"                                                                                                                                ",
"                                                                                                                                ",
"                                                                                                                                ",
"                                                                                                                                ",
"                                                                                                                                ",
"                                                                                                                                ",
"                                                                                                                                ",
"                                                                                                                                "
};
