/* XPM */
static char *_be39a6108fa49078263ffff91df01feNG4eTHKlcV05lYxE[] = {
/* columns rows colors chars-per-pixel */
"128 128 39 1 ",
"  c None",
". c black",
"X c #010101",
"o c gray4",
"O c #0B0B0B",
"+ c #0C0C0C",
"@ c gray5",
"# c #0E0E0E",
"$ c gray6",
"% c #101010",
"& c #191919",
"* c #2A2A2A",
"= c gray17",
"- c gray19",
"; c #313131",
": c #323232",
"> c gray28",
", c #484848",
"< c #606060",
"1 c #616060",
"2 c gray38",
"3 c gray49",
"4 c #7E7D7D",
"5 c #7E7E7E",
"6 c #929292",
"7 c #939393",
"8 c #A0A0A0",
"9 c #A1A0A0",
"0 c gray63",
"q c #A2A2A2",
"w c gray75",
"e c #C0EFB2",
"r c #C0EFB3",
"t c #C1EFB3",
"y c #C0C0C0",
"u c gray77",
"i c #C5C4C4",
"p c #C5C5C5",
"a c #C6C6C6",
/* pixels */
"                                                                                                                                ",
"                                                                                                                                ",
"                                                                                                                                ",
"                                                                                                                                ",
"                                                                                                                                ",
"                                                                                                                                ",
"                                                                                                                                ",
"                                                                                                                                ",
"                                                                                                                                ",
"                                                                                                                                ",
"                                                                                                                                ",
"                                                                                                                                ",
"                                                                                                                                ",
"                                                                                                                                ",
"                                                      ....................                                                      ",
"                                                 ....0000..............000....                                                  ",
"                                              ...00.........................00....                                              ",
"                                           ...00......0000000000000000000.......00..                                            ",
"                                         ..00.....000000000000000000000000000.....00..                                          ",
"                                       ..00....00000000.................000000000....0..                                        ",
"                                      ..5...0000000.....;;;;;;;;;;;;;;;.....0000000...00.                                       ",
"                                  ... 05...000000...;;;;;;<;<;<;<;<;<;<;<;<;...000000...0..                                     ",
"                                .........000000..;;;;;;;;;;;;;;;;;;<;<;<;<;<;<...00000...0..                                    ",
"                                ..  0.&.00000..;;;;;;;;;;;;;<;<;<;<;<;<;<;<....<..000000..0..                                   ",
"                                .. .0...0000.;;;;;;;;;;;;;;;;;;<;<;<;<;<<<.t==..<<..00000..0.                                   ",
"                                ...0.000000..;;;;;;;;;;;<;<;<;<<<<<<<<<<<<.ttt..<<<..00000.00.                                  ",
"                                  ......00.....;;;;;;;;<;;;;;;;<<<<<<<<<<<<...<<<<<<..00000.0..                                 ",
"                                  0..ppp..;.....<;<;<;<;<<<;<;<;<<<<<<<<<<<<<<<<<<<<<.00000.00.                                 ",
"                                 .0.ppppp...;;...<;<;<<<<<;<;<;<<<<<<<<<<<<<<<<<<<<<<<.00000.0.                                 ",
"                                 ..pppppp.pp..<...<<<<<<<<<<<<<<<<<<<<<<<<<<<<<<<<<<<<.00000.0.                                 ",
"                                 ..pppppppppp..<..;;;;;<;<<<<<....<<<<<<<<<<<<<<<<<<<<.00000...                                 ",
"                                 .p..ppppppppp.;<..;<;<;<<<<<..==.<<<<<<<<<<<<<<<<<<<<<0y000..                                  ",
"                                 .p..pppppppppp.;..<;<;<<<<<<<<.<<<<<<<<<<<<<<<<<<<<<<.00y00..                                  ",
"                                 .....ppppppppp.<..;<<<<<<<<<<<<<<<<<<<<<<<<<<<<<<<<<<.yy00.y.                                  ",
"                                 .....ppp..pppp.;..<<<<<<<<<<<<<<<<<<<<<<<<<<<<<<<<<<.yyw00...                                  ",
"                                 .....pp...ppppp.;.<<<<<<<<<<<<<<<<<<<<<<<<<<<<<<<<<..yyw0.y..                                  ",
"                                 .....pp...ppppp.<<<<<<<<<<<<<<<<<<<<<<<<<<<<<<<<<<..yyw0.y.5.                                  ",
"                                 .....pp...ppppp.<<<<<<<<<<<<<<<<<<<<<<<<<<<<<<<<<..yyyw...55.                                  ",
"                                 ....ppp...ppppp.<<<<<<<<<<<<<<<<<<<<<<<<<<<<<<<..yyyyy...555.                                  ",
"                                 .,..7p7...ppppp.<<<<<<<<<<<<<<<<<<<<<<<<<<<<<..wwyyy...05555.                                  ",
"                                 .>,..77...ppppp....<<<<<<<<<<<<<<<<<<<<<<<...wyyyw....005555.                                  ",
"                                 .,,>>.77..ppppp.000.....<<<<<<<<<<<<<<....yyyyw.....00005555.                                  ",
"                                  .,..o7..7pppp...00000yy.............ywyywyy.....00000055555.                                  ",
"                               ...>.++ooo>.777pp.......wyyyyyyyyyyywwyyw.......0000000050555.                                   ",
"                               .oo.+++ooo.+.7..>,555.......................00000000000555555.                                   ",
"                                ..........++++,,5555555555555.....0500000000000000000505555.                                    ",
"                                    ..>,>..+++55555555555555555555555050000000000000055555.                                     ",
"                                     ..>5,..++.55555555555555555555505050500000000000555..                                      ",
"                                       ..5>..+.5555555555555555555555555505050505050555..                                       ",
"                                        ..5>..%.5555555555555555555555050505050505050..                                         ",
"                                          ....+..5555555555555555555555555555555555..                                           ",
"                                             ..+..555555555555555555555555550505...                                             ",
"                                               .++.55555555555555555555555555...                                                ",
"                                                ........555555555555555.....                                                    ",
"                                                         .............                                                          ",
"                                                                                                                                ",
"                                                                                                                                ",
"                                                                                                                                ",
"                                                                                                                                ",
"                                                                                                                                ",
"                                                                                                                                ",
"                                                                                                                                ",
"                                                                                                                                ",
"                                                                                                                                ",
"                                                                                                                                ",
"                                                                                                                                ",
"                                                                                                                                ",
"                                                                                                                                ",
"                                                                                                                                ",
"                                                                                                                                ",
"                                                                                                                                ",
"                                                                                                                                ",
"                                                                                                                                ",
"                                                                                                                                ",
"                                                                                                                                ",
"                                                                                                                                ",
"                                                                                                                                ",
"                                                                                                                                ",
"                                                                                                                                ",
"                                                                                                                                ",
"                                                                                                                                ",
"                                                                                                                                ",
"                                                                                                                                ",
"                                                                                                                                ",
"                                                                                                                                ",
"                                                                                                                                ",
"                                                                                                                                ",
"                                                                                                                                ",
"                                                                                                                                ",
"                                                                                                                                ",
"                                                                                                                                ",
"                                                                                                                                ",
"                                                                                                                                ",
"                                                                                                                                ",
"                                                                                                                                ",
"                                                                                                                                ",
"                                                                                                                                ",
"                                                                                                                                ",
"                                                                                                                                ",
"                                                                                                                                ",
"                                                                                                                                ",
"                                                                                                                                ",
"                                                                                                                                ",
"                                                                                                                                ",
"                                                                                                                                ",
"                                                                                                                                ",
"                                                                                                                                ",
"                                                                                                                                ",
"                                                                                                                                ",
"                                                                                                                                ",
"                                                                                                                                ",
"                                                                                                                                ",
"                                                                                                                                ",
"                                                                                                                                ",
"                                                                                                                                ",
"                                                                                                                                ",
"                                                                                                                                ",
"                                                                                                                                ",
"                                                                                                                                ",
"                                                                                                                                ",
"                                                                                                                                ",
"                                                                                                                                ",
"                                                                                                                                ",
"                                                                                                                                ",
"                                                                                                                                ",
"                                                                                                                                ",
"                                                                                                                                ",
"                                                                                                                                "
};
