/* XPM */
static char *_f1829796c0b4b04a744af5488bdb905[] = {
/* columns rows colors chars-per-pixel */
"128 128 23 1 ",
"  c None",
". c black",
"X c #6D3B15",
"o c #6C3A15",
"O c #010101",
"+ c #6C3914",
"@ c #6B3914",
"# c #6C3A14",
"$ c #6D3A15",
"% c #7F4C1B",
"& c #7E4C1A",
"* c #6D3B16",
"= c #7F4D1B",
"- c #7E4C1B",
"; c #7E4B1A",
": c #896232",
"> c #896332",
", c #886231",
"< c #7F4D1C",
"1 c #8A6333",
"2 c #896231",
"3 c #8A6332",
"4 c #804D1C",
/* pixels */
"                                                                                                                                ",
"                                                                                                                                ",
"                                                                                                                                ",
"                                                                                                                                ",
"                                                                                                                                ",
"                                                                                                                                ",
"                                                                                                                                ",
"                                                                                                                                ",
"                                                                                                                                ",
"                                                               ..                                                               ",
"                                                             .Xooo.                                                             ",
"                                                           Oooo+@+#@.                                                           ",
"                                                         .o$@o+@ooo$oX.                                                         ",
"                                                       Oooo$oooXoooo+oo@.                                                       ",
"                                                     ..ooooooo+o+o@oo#ooooO                                                     ",
"                                                   .o$oOOoooX+%o%+%o%+%o%o%&.                                                   ",
"                                                 O@ooooooO.oooo@@%*&%%=%=%%%%%O                                                 ",
"                                               .o@oo+ooo&o&.O+&%&&%%%%%=%%%%-%%&.                                               ",
"                                             .ooooo#oo@o@o$%%.Oo%=%%%%%%=%%%%%%=%%O                                             ",
"                                           .ooo$o$o#%o=+-%-=%&%.O$%;-%:=>%>=:::>:,>%@                                           ",
"                                         .ooO.ooo*oo$%o=%%=;&%=<%OOo%1,::,::;,:::&o.>2.                                         ",
"                                       OooXoXo..#o=o%%&%<=&%%===:&:..o%>:2:>>:::oO>3:2>:O                                       ",
"                                     Ooo@oooo+oo..o%%4%%%%%&=%%,:>,>.O.<>:::1:o.>>,:::,::,O                                     ",
"                                   Oo$oooooooo%X&@..o%-%-%%=2%1::>O:>:,O.=:o$.,3:::>::>>::>:.                                   ",
"                                 .oo@ooooo@oooo%@%o%..o=;%&:>:>:.:>:>1,::...>:,::3>::>,,,::>::.                                 ",
"                               .o..$oXoo*o%+%o=&%&%4%%.O+%>>>:O:>:,>>2:,::>O.>>>,2>:>>,>1:,>2:1>O                               ",
"                             Ooooo$O.o#+o$o$o%%%=%=%%%%-O.o:O:>>>::>>:3::>:,:..2>::>:>:2>::,::2>::O                             ",
"                           .o#oooooooOOo%$&o=&%%=%&%-%>%>>OOo>>,::,:,>,2:2:,:1>O.>2>::::>::>>::>>>>>O                           ",
"                         .ooo*ooo+#@oooO.o@=%%%%%%=%=%%>>,:,.Oo2,:,:::>2:3%::>>:2..&,2::>:>>:>>,:,>,,,O                         ",
"                       OXooooo$+o#o+%X%+<.Oo%=%%%%=%,%::>>::,,O.o,>::::>,>:,:1,:>>:Oo>:,>:>,>:>:2:3,>>,2.                       ",
"                     .O.ooooo+ooooo+ooo;o%%.O+%&%%;4;>,:>:1:>:o..Oo:::>:::,::::>::,o...::>2,:>>::>::>>:o*..                     ",
"                   .o$$oOOoo#o##%o=o%o%&=&%%&..o-%,%:2>>2::2@O::22.O&2>>:2,::2,,>o.:>3>OO>22,:::>2,>>oo.>%=%O                   ",
"                 OoooXoo+o..#oooo%o%%%o%<&%==%%O.o&>%,:::,$.:,::>:::..o::2:>:>:oO>:,::::>.O%::>>:::@o.>2%%%-&%O                 ",
"               OoX@o**ooo$%#.Oo@&%%%==%%%%%%%:.%>.Oo:::,o.:,:::,::>::>O.%>:>:o.::1>:::::::>O.%:,:ooO:>:>>%&-%%=oO               ",
"           . .+ooooooooo$oo%o%..o&%=&%%%%%%o.%%&%>=..O$.:2::>>>::2,,:>:,OOO+.,::::,>:1>>2:>:>...o.:>:,::%4%%%%%&ooO             ",
"         OOoo.oooooo<o&o%%%&==;%OOo%%%-%-2.%:-:=:::::.Oo:>:2>:,::::>::>:::O.#>2,>:::,>:32:>::::O.%>,:::%:%%%;%-o%o&oO           ",
"       .Ooo+oooOooo+#%o%%&%%=-%&=%.Oo%%XO%%%<:%:,>>>>>:..o:2:>::>>2:::,,>:>>OOo::>>:2:>:,,>:,2:2:..&:2::%%&%%-%&ooooX@.         ",
"     OOoo@@oooXo%O%o%%%%%<=&&=:%>&:%.O.:::>>::,::>>::::2,.O$::>:::>,>:>:>:::,>..%:::3:>2:>:>:>3>>2>OXo>%%%%==%%o%o@ooo+oO       ",
"   .Oo@o#$$oooooo%4O&==%=%=%%:>>:3:3:2..*:2>>,:::,>,>>:,>::O.o>:4,>:::::>:2>>:::OOo>::>:::,>>:,>:>o.>.O%%%%%%%+ooo+$oooo@$.     ",
" O.o##oo#oo+%$%o%%&%%.-%:>,,:>:>:>>1:,:>..$::1:::,,:>:::,,>::OOo>:>,::>>,>,>::2>22OO%>:,>:>::::>oO3,:&:.Oo;=%X4o%@ooooo+o+ooO   ",
"  @oo*+ooo#oo%o=&%%%%%%.>,>>,,:>>,::3>:>::#.o>:>::::,,>:::2:,:%o.o;:,%,:::,>::,:>>2ooO@>::1:,,o.>>:,%%&=%OO&#&@ooooo#oo+ooo@#o. ",
"    oooo+o%o==&&%;%-:::2,.:>::,:>23>2,,:*.>3..o:>:,>2>>>>>:>=oO%,OOo>,>:::,:>:>,:*oO:2O.+::>#O:::::%<%%%%&%..o%*o++oXooo$ooo    ",
"      ooo*o%+%%&-%%::,:>:,>.:::,,::3,>#.:>:>::.Oo;:>>:>:>2ooO>>>:>:O.o:,:>,:>>>Xo.:>>,::O.O.>,1:;=%%;%@%%4o@*.Oo@oooooo$o$      ",
"        oo%o%%<%>%:::::,:.:,:.:1::::oO>>::>>,>>>..o::,:,%o.::>:::>>2,..@:>:::o+O:>::::::::O.X,:&:%%=%%=%%o&$%+o.OoXooo@o        ",
"          o%&=&4%,>>>%,.>::>:>>O:>$.:>::::2:>:22>>O.o:oo.:>>:::,>,,>>>,OOo:+#.%>:,>>:=>:22:,O.o%%=<&=%&%o%oooooooO.$oo          ",
"            oo%%2:1,,.:>,:>>::,2..,>:>:2:::>,>>>3>:>O.O:::>::3:>>::2:>>2:O..:>>:>::,:,2,>:::>%O.o-%=%4%o-o%ooooooooO.           ",
"              o%o::.2>>>:::>>::3:>:O>>:>,>:,>3,>>2>3>:.Oo:%:->%,%>%>>,::,>:..o:2>:2::>:2:>=>%4=-.Oo%=-#oooooo#oo@X              ",
"                o.>,::,,,:,::,,3,:>1:.:2:>:::,::::::3:2%O.o=>%:%:%:%>&>>2:>::..o,:,:>:%,>%:<%%=%&-O.+$%o%o@oo#oo                ",
"                  o::>::,,,2>,>::2:::1:.:>,2>>::o:::::%%%&O.o&%;%%%4%%%:&>=,:>o..o,::::,%%%&&%%-%%%%.Ooo$$oooo                  ",
"                    o>>,2:::,:>::1:>::::,.:2:>>::2>>:&>=>o%%O.o==%%%%%<%:&>>$.:>>..#:>,=:%%&%%%%&;%o&o..oooo                    ",
"                      o2>3::>>:::>>>:::2>:@o:>>:::;=%%%%%<%&%%O..%=&%%%-;=oO=::>::>..o&=%%%=%%%%&+#oo$oo.$                      ",
"                        $:,>::3>:,:>:,,>oo..Oo,>:%>;4&==%%%%%..%%%O%%%%%$O,=2%>:>=,>,O.o%%%&%%%&%X%o=ooo O                      ",
"                          o>>:31,:>:>:oo.>:::OOo<%%<%=<%%%%.O-&%%%%%O%oO%%%<&%%:%:%:&%&..#&&=%%%ooooo#                          ",
"                            o%:::>>:o+O:-:>>>%>OOo%&%%%&%OO-%4%&<%%=%%O%%%=&%->%:%:%:%%;%.Oo%-%o%o%$                            ",
"                              *:2,ooO::::>%%%%%-%..o&%%.O%o%o-@%o;%%o<&%.%=&%%%%%%%%&&*%%o%..ooooX                              ",
"                                OoO:::,%:%;=%&%%=%%...Oo<o=o%o%o%*%%<%-%<-O%=%=%%=%;%=%4%-<;+.OO                                ",
"                                  o,%=-&=%%%o%<4=%$=o..oooooo+*ooo$=X%%%%%%%.%%%%=;%%=&%%-&%$o                                  ",
"                                    o%X%&%%%%&=@%ooo4o%..o-o%#;o%o%o-o-&%<=--%O%%&=%%%=%%4&o                                    ",
"                                      o&;=@-ooo@ooooo@@oo.O.@X+#*o+o+##;o-%%4%%;O%===;%==o                                      ",
"                                        oo%o%oo+o$o#ooo$O#oo*.ooo#oo%o%$%=%%%-%=%%Oo=%=#                                        ",
"                                          *oooooo+o++*.@X+oooo+O$oooo+ooo%X%;<%%%=%=.o                                          ",
"                                            oo@#ooooO@oo@oooooo@oOo$oo%+%$%*%&%%=&%o                                            ",
"                                              ooo@.oo#@oo+oX$oooooo.@o*@ooo%o&%$4o                                              ",
"                                                O+o#++ooo#oooooXo++o+.@$=@-o%oo#                                                ",
"                                                  ooo$o*oo#o*oooooo$+#o.ooo$oo                                                  ",
"                                                    ooooo+oo#+ooo*oo+ooo$.oo                                                    ",
"                                                      @#X$@$oo++ooo#o++ooo.                                                     ",
"                                                        @oo$o+o#oooooo#o                                                        ",
"                                                          $oo@o#oo$oo$                                                          ",
"                                                            *#$o$ooo                                                            ",
"                                                              oo#o                                                              ",
"                                                                                                                                ",
"                                                                                                                                ",
"                                                                                                                                ",
"                                                                                                                                ",
"                                                                                                                                ",
"                                                                                                                                ",
"                                                                                                                                ",
"                                                                                                                                ",
"                                                                                                                                ",
"                                                                                                                                ",
"                                                                                                                                ",
"                                                                                                                                ",
"                                                                                                                                ",
"                                                                                                                                ",
"                                                                                                                                ",
"                                                                                                                                ",
"                                                                                                                                ",
"                                                                                                                                ",
"                                                                                                                                ",
"                                                                                                                                ",
"                                                                                                                                ",
"                                                                                                                                ",
"                                                                                                                                ",
"                                                                                                                                ",
"                                                                                                                                ",
"                                                                                                                                ",
"                                                                                                                                ",
"                                                                                                                                ",
"                                                                                                                                ",
"                                                                                                                                ",
"                                                                                                                                ",
"                                                                                                                                ",
"                                                                                                                                ",
"                                                                                                                                ",
"                                                                                                                                ",
"                                                                                                                                ",
"                                                                                                                                ",
"                                                                                                                                ",
"                                                                                                                                ",
"                                                                                                                                ",
"                                                                                                                                ",
"                                                                                                                                ",
"                                                                                                                                ",
"                                                                                                                                ",
"                                                                                                                                ",
"                                                                                                                                ",
"                                                                                                                                ",
"                                                                                                                                ",
"                                                                                                                                ",
"                                                                                                                                ",
"                                                                                                                                ",
"                                                                                                                                ",
"                                                                                                                                ",
"                                                                                                                                ",
"                                                                                                                                ",
"                                                                                                                                ",
"                                                                                                                                "
};
