/* XPM */
static char *db63cfb0d5e94fe1f2aa706e2f3bdd60sYhffUPlvi0GVnrX[] = {
/* columns rows colors chars-per-pixel */
"128 128 20 1 ",
"  c None",
". c black",
"X c #010101",
"o c #323230",
"O c #323231",
"+ c #323331",
"@ c #333331",
"# c #333332",
"$ c #9D9A95",
"% c #9D9A96",
"& c #9E9A96",
"* c #9E9B96",
"= c #9E9B97",
"- c #9F9B97",
"; c #B7B5AD",
": c #B7B5AE",
"> c #B8B5AE",
", c #B8B6AE",
"< c #B8B6AF",
"1 c #B9B6AF",
/* pixels */
"                                                                                                                                ",
"                                                                                                                                ",
"                                                                                                                                ",
"                                                                                                                                ",
"                                                                                                                                ",
"                                                                                                                                ",
"                                                                                                                                ",
"                                                                                                                                ",
"                                                                                                                                ",
"                                                                                                                                ",
"                                                                                                                                ",
"                                                                                                                                ",
"                                                                   *.                                                           ",
"                                                                  .**.                                                          ",
"                                                                 .***.                                                          ",
"                                                                 *****                                                          ",
"                                                                .*****.                                                         ",
"                                                               .******.                                                         ",
"                                                           ... .******.                                                         ",
"                                                    .   .***,:********.                                                         ",
"                                                   .*..**********@****.                                                         ",
"                                                   .***.***********@**                                                          ",
"                                                   ******.**********@*                                                          ",
"                                                   ***************,,,.                                                          ",
"                                                  .*******************                                                          ",
"                                                  .*******************.                                                         ",
"                                                  .********************                                                         ",
"                                                 ..********************                                                         ",
"                                                 ..********************.                                                        ",
"                                                 ,,********************.                                                        ",
"                                                 ,:.@******************                                                         ",
"                                                 ,,*@*@*************@*,                                                         ",
"                                                .,****************@@*:,,,.                                                      ",
"                                                .,***************@****.,,,,.                                                    ",
"                                                 ***************@*******,,,:*.                                                  ",
"                                                 .************************,***.                                                 ",
"                                                  **@@*****@*@@****************.                                                ",
"                                                   .@@*@***@*@******************                                                ",
"                                                     ...@@@@@***@***************.                                               ",
"                                                        @@@@*********************                                               ",
"                                                       .@@***********************.                                              ",
"                                                       .**********************@**. .  .                                         ",
"                                                       .**********************@@*.**...                                         ",
"                                                       **********************.**..*..                                           ",
"                                                       @.@@******************.*..*.                                             ",
"                                                      .@@@@@*@*****************@**                                              ",
"                                                      .@@.@@@@@@*************.@...                                              ",
"                                                      *.@@.@@@@@*************@****                                              ",
"                                                     .@.@. .@@@@@*****************                                              ",
"                                                       ..   .@@@@@*************.**                                              ",
"                                                             ..@@@@@@*********..**                                              ",
"                                                               ..@@@.****.***..@**.                                             ",
"                                                                  ...****...  .@**.                                             ",
"                                                                     @***      ...                                              ",
"                                                                     .***                                                       ",
"                                                                     .**.                                                       ",
"                                                                     @**.                                                       ",
"                                                                    .@**.                                                       ",
"                                                                                                                                ",
"                                                                                                                                ",
"                                                                                                                                ",
"                                                                                                                                ",
"                                                                                                                                ",
"                                                                                                                                ",
"                                                                                                                                ",
"                                                                                                                                ",
"                                                                                                                                ",
"                                                                                                                                ",
"                                                                                                                                ",
"                                                                                                                                ",
"                                                                                                                                ",
"                                                                                                                                ",
"                                                                                                                                ",
"                                                                                                                                ",
"                                                                                                                                ",
"                                                                                                                                ",
"                                                                                                                                ",
"                                                                                                                                ",
"                                                                                                                                ",
"                                                                                                                                ",
"                                                                                                                                ",
"                                                                                                                                ",
"                                                                                                                                ",
"                                                                                                                                ",
"                                                                                                                                ",
"                                                                                                                                ",
"                                                                                                                                ",
"                                                                                                                                ",
"                                                                                                                                ",
"                                                                                                                                ",
"                                                                                                                                ",
"                                                                                                                                ",
"                                                                                                                                ",
"                                                                                                                                ",
"                                                                                                                                ",
"                                                                                                                                ",
"                                                                                                                                ",
"                                                                                                                                ",
"                                                                                                                                ",
"                                                                                                                                ",
"                                                                                                                                ",
"                                                                                                                                ",
"                                                                                                                                ",
"                                                                                                                                ",
"                                                                                                                                ",
"                                                                                                                                ",
"                                                                                                                                ",
"                                                                                                                                ",
"                                                                                                                                ",
"                                                                                                                                ",
"                                                                                                                                ",
"                                                                                                                                ",
"                                                                                                                                ",
"                                                                                                                                ",
"                                                                                                                                ",
"                                                                                                                                ",
"                                                                                                                                ",
"                                                                                                                                ",
"                                                                                                                                ",
"                                                                                                                                ",
"                                                                                                                                ",
"                                                                                                                                ",
"                                                                                                                                ",
"                                                                                                                                ",
"                                                                                                                                ",
"                                                                                                                                ",
"                                                                                                                                ",
"                                                                                                                                "
};
