/* XPM */
static char *_71b6392b7964edecf1c95e07169d6cd2kJxiaVBgUrfLjUr[] = {
/* columns rows colors chars-per-pixel */
"128 128 33 1 ",
"  c None",
". c black",
"X c #010101",
"o c #090909",
"O c gray4",
"+ c #0C0C0C",
"@ c #0E0E0E",
"# c #101010",
"$ c #323230",
"% c #323231",
"& c #323331",
"* c #333331",
"= c #333332",
"- c #9D9A95",
"; c #9D9A96",
": c #9E9A96",
"> c #9E9B96",
", c #9E9B97",
"< c #9F9B97",
"1 c #B7B5AD",
"2 c #B7B5AE",
"3 c #B8B5AE",
"4 c #B8B6AE",
"5 c #B8B6AF",
"6 c #B9B6AF",
"7 c #CA969B",
"8 c #C79FA3",
"9 c #C7A0A3",
"0 c #C8A0A4",
"q c #C9A1A5",
"w c #C7A8AD",
"e c #C7A9AD",
"r c #C8A9AE",
/* pixels */
"                                                                                                                                ",
"                                                                                                                                ",
"                                                                                                                                ",
"                                                                                                                                ",
"                                                                                                                                ",
"                                                                                                                                ",
"                                                                                                                                ",
"                                                                                                                                ",
"                                                                                                                                ",
"                                                                                                                                ",
"                                                                                                                                ",
"                                                                                                                                ",
"                                                                                                                                ",
"                                                                                                                                ",
"                                                                                                                                ",
"                                                                                                                                ",
"                                                                             X                                                  ",
"                                                                            X>X                                                 ",
"                                                                          X>>>X                                                 ",
"                                                                         X>>>>X                                                 ",
"                                                                         >>>>8>                                                 ",
"                                           X                            X>>>00>X                                                ",
"                                           XXX                          >>>>0w>X                                                ",
"                                            XXX                    XXXXX>>>>rw>X                                                ",
"                                             XX4             XXX X>>>>>4>>>>0>>X                                                ",
"                                              X2X           X>>X>>>>>>>>>>>&&>>                                                 ",
"                                              X44           >>>>>X>>>>>>>>>>>&>                                                 ",
"                                               44X    XXXXXX>>>8>>>>>>>>>>>>>>X                                                 ",
"                                               X44X X444424X>>099>>>>>>>>>>>>>>X                                                ",
"                                               X4X4X24444>4X>>0w>>>>>>>>>>>>>>>>X                                               ",
"                                                X>X4242>>>>X>>>w&>>>>>>>>>>>>>>>X                                               ",
"                                                 X4444>>>>>X>>>>>>>>>>>>>>>>>@>>>X                                              ",
"                                                 44442>>>>>X&>>>>>>>>>>>>>>>>@X>>X                                              ",
"                                                X4444>>>>>>X&>>&>>>>>>>>>oX>>>X>>X                                              ",
"                                                X4444>>>>>X>&>>&>>>>>>>>>o#>>>X>>                                               ",
"                                                44444>>>>>X>X>>>>>>>>>>>>>@>>>>>>                                               ",
"                                                24444>>>>>X>>&&>>>>>>>>>>>&>>X>>X                                               ",
"                                                4>4>>>>>>>X>>>>>>>>>>>>>>>>>7X>>                                                ",
"                                                >>>>>>>>>>X>>>>>>>>>>>>>>>>>>>>X                                                ",
"                                                >>>>>>>>>&>>>>>>>>>>>>>>>>>>>XX                                                 ",
"                                                >>>>>>>>>>&X&>>>>>>>>>>>>>>>>XX                                                 ",
"                                                >>>>>>>>>&&>X&>>>>>>>>>>>>>XX                                                   ",
"                                                >X&>&>>&&>&>&X&&&>>>>>>>>XX                                                     ",
"                                                >&X&&&&&>&&>>>>XX&>&>>XX>XX                                                     ",
"                                                >>XX&&&&&&&&>>>>>>>>>>>>>XX                                                     ",
"                                               X>XX X&&&&&&&>>>&>>>>>>>>>>>                                                     ",
"                                               X>>>X  X&&&&&&&>>>>>>X>>&>>X                                                     ",
"                                                XXXX   XX&&&&&&&>>>>XX XX>XX                                                    ",
"                                                          XXXX&&>>>>XX X&>XX                                                    ",
"                                                               X>>>>X   X&>>                                                    ",
"                                                                &>>>X   XX>>X                                                   ",
"                                                                X>>>X    XXX                                                    ",
"                                                                X>>>X                                                           ",
"                                                                 &>>X                                                           ",
"                                                                 X&>>                                                           ",
"                                                                  X                                                             ",
"                                                                                                                                ",
"                                                                                                                                ",
"                                                                                                                                ",
"                                                                                                                                ",
"                                                                                                                                ",
"                                                                                                                                ",
"                                                                                                                                ",
"                                                                                                                                ",
"                                                                                                                                ",
"                                                                                                                                ",
"                                                                                                                                ",
"                                                                                                                                ",
"                                                                                                                                ",
"                                                                                                                                ",
"                                                                                                                                ",
"                                                                                                                                ",
"                                                                                                                                ",
"                                                                                                                                ",
"                                                                                                                                ",
"                                                                                                                                ",
"                                                                                                                                ",
"                                                                                                                                ",
"                                                                                                                                ",
"                                                                                                                                ",
"                                                                                                                                ",
"                                                                                                                                ",
"                                                                                                                                ",
"                                                                                                                                ",
"                                                                                                                                ",
"                                                                                                                                ",
"                                                                                                                                ",
"                                                                                                                                ",
"                                                                                                                                ",
"                                                                                                                                ",
"                                                                                                                                ",
"                                                                                                                                ",
"                                                                                                                                ",
"                                                                                                                                ",
"                                                                                                                                ",
"                                                                                                                                ",
"                                                                                                                                ",
"                                                                                                                                ",
"                                                                                                                                ",
"                                                                                                                                ",
"                                                                                                                                ",
"                                                                                                                                ",
"                                                                                                                                ",
"                                                                                                                                ",
"                                                                                                                                ",
"                                                                                                                                ",
"                                                                                                                                ",
"                                                                                                                                ",
"                                                                                                                                ",
"                                                                                                                                ",
"                                                                                                                                ",
"                                                                                                                                ",
"                                                                                                                                ",
"                                                                                                                                ",
"                                                                                                                                ",
"                                                                                                                                ",
"                                                                                                                                ",
"                                                                                                                                ",
"                                                                                                                                ",
"                                                                                                                                ",
"                                                                                                                                ",
"                                                                                                                                ",
"                                                                                                                                ",
"                                                                                                                                ",
"                                                                                                                                ",
"                                                                                                                                ",
"                                                                                                                                ",
"                                                                                                                                "
};
