/* XPM */
static char *_e940d893eb94cf4b733b2183b3e48ffRjZMuy4VAveumhNU[] = {
/* columns rows colors chars-per-pixel */
"128 128 31 1 ",
"  c None",
". c black",
"X c #010101",
"o c #0C0C0C",
"O c #101010",
"+ c #111111",
"@ c gray7",
"# c #323231",
"$ c #323331",
"% c #333331",
"& c #333332",
"* c #9D9A95",
"= c #9D9A96",
"- c #9E9A96",
"; c #9E9B96",
": c #9E9B97",
"> c #9F9B97",
", c #B7B5AD",
"< c #B7B5AE",
"1 c #B8B5AE",
"2 c #B8B6AE",
"3 c #B8B6AF",
"4 c #B9B6AF",
"5 c #C79FA3",
"6 c #C7A0A3",
"7 c #C8A0A4",
"8 c #C8A1A4",
"9 c #C9A1A4",
"0 c #C7A8AD",
"q c #C7A9AD",
"w c #C7A9AE",
/* pixels */
"                                                                                                                                ",
"                                                                                                                                ",
"                                                                                                                                ",
"                                                                                                                                ",
"                                                                                                                                ",
"                                                                                                                                ",
"                                                                                                                                ",
"                                                                                                                                ",
"                                                                                                                                ",
"                                                                                                                                ",
"                                                                                                                                ",
"                                                                                                                                ",
"                                                                                                                                ",
"                                                                                                                                ",
"                                                                                                                                ",
"                                                                                                                                ",
"                                                    X                                                                           ",
"                                                   X=X                                                                          ",
"                                                   X===                                                                         ",
"                                                   =====                                                                        ",
"                                                  X=8==%X                                                                       ",
"                                                  X=8==%=X                          X1                                          ",
"                                                  X=08===X                         X1X                                          ",
"                                                  X=08====XXXX                    X1X                                           ",
"                                                  X=08=%=======1X  XX             1=X                                           ",
"                                                  X=0X=========111X==X           X=X                                            ",
"                                                   =X===========X=0===           1XX                                            ",
"                                                   X=============86===XXXXXX    X1=                                             ",
"                                                   ==============85===X111111X X1XX                                             ",
"                                                  X===============08==X1<11111X11=X                                             ",
"                                                 X==============%%8===X111<1111X1X                                              ",
"                                                 X=X=============%8===X===<111<==                                               ",
"                                                 ==+=============%====X=========X                                               ",
"                                                X==o===+1========================X                                              ",
"                                                %=====++=========%%==X===========X                                              ",
"                                                 =====++1=========%==X=X=========X                                              ",
"                                                 X=====1===============X==========                                              ",
"                                                 X==X==================X==========                                              ",
"                                                  X===============================                                              ",
"                                                   XX=================X===========                                              ",
"                                                   XX=================X===========                                              ",
"                                                     X===============X============                                              ",
"                                                       XX===========X===========X=                                              ",
"                                                       X==XX=====XX============XX=                                              ",
"                                                       =X=====================XX==                                              ",
"                                                       ======================X XX=X                                             ",
"                                                      XX=X%%%==============X  X%==X                                             ",
"                                                      XX=XXXXX=======%=%=XX   XXXX                                              ",
"                                                      X=%X   X=====%XXXX                                                        ",
"                                                      %==X   X====X                                                             ",
"                                                     X==XX   X===X                                                              ",
"                                                      XXX    X===X                                                              ",
"                                                             X===X                                                              ",
"                                                             %===                                                               ",
"                                                            X==XX                                                               ",
"                                                               X                                                                ",
"                                                                                                                                ",
"                                                                                                                                ",
"                                                                                                                                ",
"                                                                                                                                ",
"                                                                                                                                ",
"                                                                                                                                ",
"                                                                                                                                ",
"                                                                                                                                ",
"                                                                                                                                ",
"                                                                                                                                ",
"                                                                                                                                ",
"                                                                                                                                ",
"                                                                                                                                ",
"                                                                                                                                ",
"                                                                                                                                ",
"                                                                                                                                ",
"                                                                                                                                ",
"                                                                                                                                ",
"                                                                                                                                ",
"                                                                                                                                ",
"                                                                                                                                ",
"                                                                                                                                ",
"                                                                                                                                ",
"                                                                                                                                ",
"                                                                                                                                ",
"                                                                                                                                ",
"                                                                                                                                ",
"                                                                                                                                ",
"                                                                                                                                ",
"                                                                                                                                ",
"                                                                                                                                ",
"                                                                                                                                ",
"                                                                                                                                ",
"                                                                                                                                ",
"                                                                                                                                ",
"                                                                                                                                ",
"                                                                                                                                ",
"                                                                                                                                ",
"                                                                                                                                ",
"                                                                                                                                ",
"                                                                                                                                ",
"                                                                                                                                ",
"                                                                                                                                ",
"                                                                                                                                ",
"                                                                                                                                ",
"                                                                                                                                ",
"                                                                                                                                ",
"                                                                                                                                ",
"                                                                                                                                ",
"                                                                                                                                ",
"                                                                                                                                ",
"                                                                                                                                ",
"                                                                                                                                ",
"                                                                                                                                ",
"                                                                                                                                ",
"                                                                                                                                ",
"                                                                                                                                ",
"                                                                                                                                ",
"                                                                                                                                ",
"                                                                                                                                ",
"                                                                                                                                ",
"                                                                                                                                ",
"                                                                                                                                ",
"                                                                                                                                ",
"                                                                                                                                ",
"                                                                                                                                ",
"                                                                                                                                ",
"                                                                                                                                ",
"                                                                                                                                ",
"                                                                                                                                ",
"                                                                                                                                ",
"                                                                                                                                "
};
