/* XPM */
static char *_017766c52ba484d81e5887254286befVOyRAJEu0HC8sVxu[] = {
/* columns rows colors chars-per-pixel */
"128 128 18 1 ",
"  c None",
". c black",
"X c #010101",
"o c #323231",
"O c #323331",
"+ c #333331",
"@ c #333332",
"# c #9D9A95",
"$ c #9D9A96",
"% c #9E9A96",
"& c #9E9B96",
"* c #9E9B97",
"= c #9F9B97",
"- c #B7B5AD",
"; c #B7B5AE",
": c #B8B5AE",
"> c #B8B6AE",
", c #B8B6AF",
/* pixels */
"                                                                                                                                ",
"                                                                                                                                ",
"                                                                                                                                ",
"                                                                                                                                ",
"                                                                                                                                ",
"                                                                                                                                ",
"                                                                                                                                ",
"                                                                                                                                ",
"                                                                                                                                ",
"                                                                                                                                ",
"                                                                                                                                ",
"                                                                                                                                ",
"                                                             XX                                                                 ",
"                                                            X&&X                                                                ",
"                                                            &&&&                                                                ",
"                                                           X&&&&X                                                               ",
"                                                           X&&&&&X                                                              ",
"                                                           X&&&&&;                                                              ",
"                                                           X&&&&&&X XXX                                                         ",
"                                                           X&&&&@&&;:::::X   X                                                  ",
"                                                           X&&&@&&&&&&&::;:X@&X                                                 ",
"                                                           X&&&&&&&&&&&&::X&&&X                                                 ",
"                                                            &&&&&&&&&&&&X&&&&&X                                                 ",
"                                                            X&&&&&&&&&&&&&&&&&&                                                 ",
"                                                            &&&&&&&&&&&@&&&&&&&                                                 ",
"                                                           X&&&&&&&&&&&@&&&&&&&X                                                ",
"                                                           &&&&&&&&&&&&&&&&&&&&X                                                ",
"                                                          X&&&&&&&&&&&&&@&&&&&&XX                                               ",
"                                                          X&&&&&&&&&&&&&&@&&&&&&X                                               ",
"                                                          X&&&&&&&&&&&&&&&&&&&&&X                                               ",
"                                                          X&&&&&&&&&&&&&&&&&&&X&&                                               ",
"                                                          X&&&&&&&&&&&&&&&&&&&&&&                                               ",
"                                                        X&&&&&@&&&&&&&&&&&&&&&&&&                                               ",
"                                                      X&&&&X&&&&&&&&&&&&&&&&&&&&&                                               ",
"                                                    X:&&&&&&&&&&&&&&&&&&&&&&&&&&&                                               ",
"                                                   X:&&&&&&&&&&&&&&&&&&&&&&&&&&&X                                               ",
"                                                  X:&&&&&&&&&&&&&&&&&&&&&&&&&&&X                                                ",
"                                                 X::&&&&&&&&&&&&&&&&&&&&&&&&&&X                                                 ",
"                                                 X:;&&&&&&&&&&&&&&&&&&&&@XXXX                                                   ",
"                                                X:;:&&&&&&&&&&&&&&&&&&&&&&                                                      ",
"                                                X&:&&&&&&&&&&&&&&&&&&&&&&&X                                                     ",
"                                               X&&;&&&&&&&&&&&&&&&&&&&&&&&X                                                     ",
"                                           XXX&&X&:&&&&&&&&&&&&&&&&&&&&&&&X                                                     ",
"                                             XX&XX&&&&&&&&&&&&&&&&&&&&&&&X&                                                     ",
"                                               @&XXXX&&&&&&&&&&&&&&&&&&&&X&                                                     ",
"                                               X&&X&X&&&&&&&&&&&&&&&&&&&X&&X                                                    ",
"                                                XXX&&&&&&&&&&&&&&&&&&&&&X&&X                                                    ",
"                                                @@@@@@&&&&&&&&&&&&&&&&&X@@XX                                                    ",
"                                                @@@@@@@@&&&&&&&&&&&&&&X X@X&X                                                   ",
"                                                @@X@@@@@&&&&&&&&&&&&&X   XX                                                     ",
"                                                @@XX@@@@@@&&&&&&&&&X                                                            ",
"                                               X@@@ X@@@@@&&&X&@@XX                                                             ",
"                                               X@@&X XXXX@&&&XXX                                                                ",
"                                                XX      X@&&&                                                                   ",
"                                                         @&&X                                                                   ",
"                                                         X&&X                                                                   ",
"                                                         @&&&                                                                   ",
"                                                         @&&XX                                                                  ",
"                                                                                                                                ",
"                                                                                                                                ",
"                                                                                                                                ",
"                                                                                                                                ",
"                                                                                                                                ",
"                                                                                                                                ",
"                                                                                                                                ",
"                                                                                                                                ",
"                                                                                                                                ",
"                                                                                                                                ",
"                                                                                                                                ",
"                                                                                                                                ",
"                                                                                                                                ",
"                                                                                                                                ",
"                                                                                                                                ",
"                                                                                                                                ",
"                                                                                                                                ",
"                                                                                                                                ",
"                                                                                                                                ",
"                                                                                                                                ",
"                                                                                                                                ",
"                                                                                                                                ",
"                                                                                                                                ",
"                                                                                                                                ",
"                                                                                                                                ",
"                                                                                                                                ",
"                                                                                                                                ",
"                                                                                                                                ",
"                                                                                                                                ",
"                                                                                                                                ",
"                                                                                                                                ",
"                                                                                                                                ",
"                                                                                                                                ",
"                                                                                                                                ",
"                                                                                                                                ",
"                                                                                                                                ",
"                                                                                                                                ",
"                                                                                                                                ",
"                                                                                                                                ",
"                                                                                                                                ",
"                                                                                                                                ",
"                                                                                                                                ",
"                                                                                                                                ",
"                                                                                                                                ",
"                                                                                                                                ",
"                                                                                                                                ",
"                                                                                                                                ",
"                                                                                                                                ",
"                                                                                                                                ",
"                                                                                                                                ",
"                                                                                                                                ",
"                                                                                                                                ",
"                                                                                                                                ",
"                                                                                                                                ",
"                                                                                                                                ",
"                                                                                                                                ",
"                                                                                                                                ",
"                                                                                                                                ",
"                                                                                                                                ",
"                                                                                                                                ",
"                                                                                                                                ",
"                                                                                                                                ",
"                                                                                                                                ",
"                                                                                                                                ",
"                                                                                                                                ",
"                                                                                                                                ",
"                                                                                                                                ",
"                                                                                                                                ",
"                                                                                                                                ",
"                                                                                                                                "
};
