/* XPM */
static char *_9cfbce9c2604388a366cd289cd50befbjn6fWNKaPdEddPT[] = {
/* columns rows colors chars-per-pixel */
"128 128 33 1 ",
"  c None",
". c black",
"X c #010101",
"o c gray28",
"O c #484848",
"+ c #606060",
"@ c #616060",
"# c #616160",
"$ c gray38",
"% c gray49",
"& c #7E7D7D",
"* c #7E7E7E",
"= c #CD3A0B",
"- c #CE3A0B",
"; c #CE3B0B",
": c #CE3B0C",
"> c #CF3B0C",
", c #CF3C0C",
"< c #A0A0A0",
"1 c #A1A0A0",
"2 c gray63",
"3 c #A2A2A1",
"4 c #A2A2A2",
"5 c gray75",
"6 c #F9918B",
"7 c #F9928B",
"8 c #F9928C",
"9 c #FA928C",
"0 c #FA938C",
"q c #C0BFBF",
"w c #C0C0C0",
"e c #C1C0C0",
"r c #C1C1C1",
/* pixels */
"                                                                                                                                ",
"                                                                                                                                ",
"                                                                                                                                ",
"                                                                                                                                ",
"                                                                                                                                ",
"                                                                                                                                ",
"                                                                                                                                ",
"                                                                                                                                ",
"                                                                                                                                ",
"                                                                                                                                ",
"                                                                                                                                ",
"                                                                                                                                ",
"                                                                                                                                ",
"                                                                                                                                ",
"                                                                                                                                ",
"                                                                                                                                ",
"                                                     ...........5w..........                                                    ",
"                                                .....www5w5ww55w55wwwwwwwwww5....                                               ",
"                                            ....w5w5ww5w5w,;:::::::::::wwww5wwwwww...                                           ",
"                                         ...wwwwwww;;::;;:;::;:;:,:;;:::::::::www5w25...                                        ",
"                                       ..wwwwwww:,::::;::::;;.......:,;:;;;:;;:;:;ww2222...                                     ",
"                                    ...wwwwww:;;;::;:......%%%%%%%%%%%......:;;::::,:2w2w22..                                   ",
"                                   ..www5w:::;:::....%%%%%..............%%%%....::;:::;222222..                                 ",
"                                 ..wwwww:::;;::..%%%.....www55wwwwwwww5w.....%%%...:::::;22222..                                ",
"                                .www5w;:::;:...%....5www5w5wwww55wwwww5wwwwwww...%%..:;;;::22222..                              ",
"                               .55www,::,:..%%..w5wwwwww;::,::::::;::;:;:5ww5www5..%%..:,:;:;2222..                             ",
"                             ..ww5w:;:;;:..%..wwwwww:::;::;;:::::::::;,;:::;;ww5ww2...o..::;;:22222.                            ",
"                            ..wwww:::::;.O..w5www:;:;:,::$$$$$$$$$$$$$$$:;;;:,::w252w2.o..:::::22222.                           ",
"                            .w5ww;;;;:....5wwww:::,::$$$$$$$$$$$$$$$$$$$$$$$::,:;:22222..o.:::,;22222.                          ",
"                           .www5:;:;:....wwww,::7:0$$$$$$$$$$$$$$$$$$$$$$$$$$$;;::;:w2222.O.:::;;2222.                          ",
"                          ..w5ww:::;:..5qwww:;:;:$$$$$$$$$$$$$$$$$$$$$$$$$$$$$$$::;:;:2222.o.::;:22222.                         ",
"                          .w5w5;:;::..w5w5w:7;7$$$$$$$$$$$$$$$$$$$$$$$$$$$$$$$$$$$:;:,:2222..;::,;2222.                         ",
"                          .5555:::::..www5::::$$$$$$$$$$$$$$$$$$$$$$$$$$$$$$$$$$$$$;::::2222..::::22222.                        ",
"                         .w5www;;;:..wwww:7;0$$$$$$$$$$$$$$$$$$$$$$$$$$$$$$$$$$$$$$$::;:2222..;;:::2222.                        ",
"                         .wwww:::;:..wwww::;:$$$$$$$$$$$$$$$$$$$$$$$$$$$$$$$$$$$$$$$:,:,;2222.;::::2222.                        ",
"                         .w5ww;;::7.2w5w;;7:$$$$$$$$$$$$$$$$$$5w5ww$$$$$$$$$$$$$$$$$$,;,;2222..::::2222..                       ",
"                         .5ww5w;::;.25ww::::$$$$$$$$$$$$$$$$$w55ww5w$$$$$$$$$$$$$$$$$::;;22222;;::;2222.                        ",
"                         .w55ww:0;7.2www7:0:$$$$$$$$$$$$$$$$$ww55ww5w$$$$$$$$$$$$$$$$::;:2222.,::;:2222.                        ",
"                         .www5w:;,:.255w,:;:$$$$$$$$$$$$$$$$$$www5w$$$$$$$$$$$$$$$$$$:::;2222.;::,22222.                        ",
"                         ..5www:7:0,.55ww;0:7$$$$$$$$$$$$$$$$$$$$$$$$$$$$$$$$$$$$$$$$::;:222.:;:::22222.                        ",
"                         ..w555w:;::..www:;;:$$$$$$$$$$$$$$$$$$$$$$$$$$$$$$$$$$$$$$$::;:2222.;::,22222..                        ",
"                         .%.w55ww;0:7.2ww50,7;$$$$$$$$$$$$$$$$$$$$$$$$$$$$$$$$$$$$$::;::222.;:;::22222..                        ",
"                          ..www55w:,;7.2www::;;$$$$$$$$$$$$$$$$$$$$$$$$$$$$$$$$$$$:::;:222.;:;,:22222.o.                        ",
"                          .o.wwwwwq:7:0..5ww7:7,7$$$$$$$$$$$$$$$$$$$$$$$$$$$$$$$::::;:222.:;,;:22222.%.                         ",
"                           .%.wwwwww:0:7..5ww:;;:0:$$$$$$$$$$$$$$$$$$$$$$$$$$$$::;::222..;;;,;22222.%%.                         ",
"                           .%%..ww5ww:7;77..5ww:0:7:0$$$$$$$$$$$$$$$$$$$$$$$:::::::222.;::::222222.%%.                          ",
"                            .%%..wwwwww0;077..5ww7:0:7:7:$$$$$$$$$$$$$$$$:::::;;222...:;:::22222..%%%.                          ",
"                             .%%%..ww5w5707777...www0;7:0:0:0:7:7:7:0;0:7;0::;222..::::;:222222..%%..                           ",
"                              .%%%..www5ww5700777...5w5w:7:7:7:7:7;0::::;,222...::;;:::222222..%%%..                            ",
"                               .%%%%..555ww5w07777007.....www5wwww55222......:7:::;;2222222..%%%%..                             ",
"                                .%%%%%...w5wwwwww7707777007............;;,::::;:222222222..%%%%%..                              ",
"                                 ..%%%%%%..5ww5wwww5w70007777777777:7;7:0:7:5222222222...%%%%%..                                ",
"                                   ..%%%%%%%...wwwwwwwww5ww5w55w7wwww5wwww22222222....%%%%%%%.                                  ",
"                                     ..%%%%%%%%.....www55ww5www5wwwwwwwww2w252....%%%%%%%%...                                   ",
"                                       ..%%%%%%%%%%%.........55ww5ww.........%%%%%%%%%%%..                                      ",
"                                          ..%%%%%%%%%%%%%%%%%%%...%%%%%%%%%%%%%%%%%%%...                                        ",
"                                             ...%%%%%%%%%%%%%%%%%%%%%%%%%%%%%%%%%....                                           ",
"                                                ......%%%%%%%%%%%%%%%%%%%%%%.....                                               ",
"                                                      .....................                                                     ",
"                                                                                                                                ",
"                                                                                                                                ",
"                                                                                                                                ",
"                                                                                                                                ",
"                                                                                                                                ",
"                                                                                                                                ",
"                                                                                                                                ",
"                                                                                                                                ",
"                                                                                                                                ",
"                                                                                                                                ",
"                                                                                                                                ",
"                                                                                                                                ",
"                                                                                                                                ",
"                                                                                                                                ",
"                                                                                                                                ",
"                                                                                                                                ",
"                                                                                                                                ",
"                                                                                                                                ",
"                                                                                                                                ",
"                                                                                                                                ",
"                                                                                                                                ",
"                                                                                                                                ",
"                                                                                                                                ",
"                                                                                                                                ",
"                                                                                                                                ",
"                                                                                                                                ",
"                                                                                                                                ",
"                                                                                                                                ",
"                                                                                                                                ",
"                                                                                                                                ",
"                                                                                                                                ",
"                                                                                                                                ",
"                                                                                                                                ",
"                                                                                                                                ",
"                                                                                                                                ",
"                                                                                                                                ",
"                                                                                                                                ",
"                                                                                                                                ",
"                                                                                                                                ",
"                                                                                                                                ",
"                                                                                                                                ",
"                                                                                                                                ",
"                                                                                                                                ",
"                                                                                                                                ",
"                                                                                                                                ",
"                                                                                                                                ",
"                                                                                                                                ",
"                                                                                                                                ",
"                                                                                                                                ",
"                                                                                                                                ",
"                                                                                                                                ",
"                                                                                                                                ",
"                                                                                                                                ",
"                                                                                                                                ",
"                                                                                                                                ",
"                                                                                                                                ",
"                                                                                                                                ",
"                                                                                                                                ",
"                                                                                                                                ",
"                                                                                                                                ",
"                                                                                                                                ",
"                                                                                                                                ",
"                                                                                                                                ",
"                                                                                                                                ",
"                                                                                                                                ",
"                                                                                                                                ",
"                                                                                                                                ",
"                                                                                                                                ",
"                                                                                                                                "
};
