/* XPM */
static char *_061f0cb588f419799a28a59ee81618bzu3p95LULaNsbgN5[] = {
/* columns rows colors chars-per-pixel */
"128 128 34 1 ",
"  c None",
". c black",
"X c #010101",
"o c gray28",
"O c #484848",
"+ c #606060",
"@ c #616060",
"# c #616160",
"$ c gray38",
"% c gray49",
"& c #7E7D7D",
"* c #7E7E7E",
"= c #60BB3D",
"- c #61BB3D",
"; c #61BC3D",
": c #61BC3E",
"> c #62BC3E",
", c #62BD3E",
"< c #62BD3F",
"1 c #A0A0A0",
"2 c #A1A0A0",
"3 c gray63",
"4 c #A2A2A1",
"5 c #A2A2A2",
"6 c gray75",
"7 c #C0BFBF",
"8 c #C0EEB2",
"9 c #C0EFB2",
"0 c #C0EFB3",
"q c #C1EFB3",
"w c #C1F0B3",
"e c #C0C0C0",
"r c #C1C0C0",
"t c #C1C1C1",
/* pixels */
"                                                                                                                                ",
"                                                                                                                                ",
"                                                                                                                                ",
"                                                                                                                                ",
"                                                                                                                                ",
"                                                                                                                                ",
"                                                                                                                                ",
"                                                                                                                                ",
"                                                                                                                                ",
"                                                                                                                                ",
"                                                                                                                                ",
"                                                                                                                                ",
"                                                                                                                                ",
"                                                                                                                                ",
"                                                                                                                                ",
"                                                                                                                                ",
"                                                     ...........6e..........                                                    ",
"                                                .....eee6e6ee66e66eeeeeeeeee6....                                               ",
"                                            ....e6e6ee6e6e:::::::::::::eeee6eeeeee...                                           ",
"                                         ...eeeeeee:9:9:9:9:9:9::::=::::::::::eee6e36...                                        ",
"                                       ..eeeeeee:::::::::::=:.......:::::::::=::::ee3333...                                     ",
"                                    ...eeeeee:9:9:9:9......%%%%%%%%%%%......:::::::::3e3e33..                                   ",
"                                   ..eee6e:::::::....%%%%%..............%%%%....:::::::333333..                                 ",
"                                 ..eeeee::::9:9..%%%.....eee66eeeeeeee6e.....%%%...::::::33333..                                ",
"                                .eee6e::::::...%....6eee6e6eeee66eeeee6eeeeeee...%%..::::::33333..                              ",
"                               .66eee:::w:..%%..e6eeeeee9:9:9:9:9::::::::6ee6eee6..%%..:::=::3333..                             ",
"                             ..ee6e::::::..%..eeeeee:::::::::::::::::::::::::ee6ee3...o..::=::33333.                            ",
"                            ..eeee::::9:.O..e6eee:9:9:w:9$$$$$$$$$$$$$$$::::::::e363e3.o..:::::33333.                           ",
"                            .e6ee:::::....6eeee::::::$$$$$$$$$$$$$$$$$$$$$$$::::::33333..o.:::::33333.                          ",
"                           .eee6::::9....eeee:9:9:9$$$$$$$$$$$$$$$$$$$$$$$$$$$::::::e3333.O.:::::3333.                          ",
"                          ..e6ee:::::..67eee:::::$$$$$$$$$$$$$$$$$$$$$$$$$$$$$$$::::::3333.o.::::33333.                         ",
"                          .e6e6:::9:..e6e6e:9:9$$$$$$$$$$$$$$$$$$$$$$$$$$$$$$$$$$$:::::3333..:::::3333.                         ",
"                          .6666:::::..eee6::::$$$$$$$$$$$$$$$$$$$$$$$$$$$$$$$$$$$$$:::::3333..::::33333.                        ",
"                         .e6eee=9:9..eeee:9:9$$$$$$$$$$$$$$$$$$$$$$$$$$$$$$$$$$$$$$$::::3333..:::::3333.                        ",
"                         .eeee:::::..eeee::::$$$$$$$$$$$$$$$$$$$$$$$$$$$$$$$$$$$$$$$:::::3333.:::::3333.                        ",
"                         .e6ee9:9:9.3e6e9:9:$$$$$$$$$$$$$$$$$$6e6ee$$$$$$$$$$$$$$$$$$::::3333..::::3333..                       ",
"                         .6ee6e::::.36ee::::$$$$$$$$$$$$$$$$$e66ee6e$$$$$$$$$$$$$$$$$::::33333:::::3333.                        ",
"                         .e66ee:9:9.3eee9:9:$$$$$$$$$$$$$$$$$ee66ee6e$$$$$$$$$$$$$$$$::::3333.:::::3333.                        ",
"                         .eee6e::::.366e:::9$$$$$$$$$$$$$$$$$$eee6e$$$$$$$$$$$$$$$$$$::::3333.=:::33333.                        ",
"                         ..6eee:9:9:.66ee:w:9$$$$$$$$$$$$$$$$$$$$$$$$$$$$$$$$$$$$$$$$::=:333.:::::33333.                        ",
"                         ..e666e:9:9..eee::::$$$$$$$$$$$$$$$$$$$$$$$$$$$$$$$$$$$$$$$::=:3333.::::33333..                        ",
"                         .%.e66ee:w:9.3ee69:99$$$$$$$$$$$$$$$$$$$$$$$$$$$$$$$$$$$$$:::::333.:::::33333..                        ",
"                          ..eee66e:w=9.3eee9:99$$$$$$$$$$$$$$$$$$$$$$$$$$$$$$$$$$$:::::333.:::::33333.o.                        ",
"                          .o.eeeee79999..6ee9:9:9$$$$$$$$$$$$$$$$$$$$$$$$$$$$$$$::::::333.:::::33333.%.                         ",
"                           .%.eeeeee9999..6ee9:9:99$$$$$$$$$$$$$$$$$$$$$$$$$$$$:::::333..:::::33333.%%.                         ",
"                           .%%..ee6ee99999..6ee9w9999$$$$$$$$$$$$$$$$$$$$$$$9:9::::333.:::::333333.%%.                          ",
"                            .%%..eeeeee99999..6ee99ww9999$$$$$$$$$$$$$$$$:::::::333...:::::33333..%%%.                          ",
"                             .%%%..ee6e6999999...eeew9999999999999999:w:9:9:9:333..::::::333333..%%..                           ",
"                              .%%%..eee6ee699w999...6e6e999999:999:w:9:9::333...::=::::333333..%%%..                            ",
"                               .%%%%..666ee6e99999999.....eee6eeee66333......:9:9:::3333333..%%%%..                             ",
"                                .%%%%%...e6eeeeee99999999w9............9:w::::::333333333..%%%%%..                              ",
"                                 ..%%%%%%..6ee6eeee6e99w99999999999999999:9:6333333333...%%%%%..                                ",
"                                   ..%%%%%%%...eeeeeeeee6ee6e66e9eeee6eeee33333333....%%%%%%%.                                  ",
"                                     ..%%%%%%%%.....eee66ee6eee6eeeeeeeee3e363....%%%%%%%%...                                   ",
"                                       ..%%%%%%%%%%%.........66ee6ee.........%%%%%%%%%%%..                                      ",
"                                          ..%%%%%%%%%%%%%%%%%%%...%%%%%%%%%%%%%%%%%%%...                                        ",
"                                             ...%%%%%%%%%%%%%%%%%%%%%%%%%%%%%%%%%....                                           ",
"                                                ......%%%%%%%%%%%%%%%%%%%%%%.....                                               ",
"                                                      .....................                                                     ",
"                                                                                                                                ",
"                                                                                                                                ",
"                                                                                                                                ",
"                                                                                                                                ",
"                                                                                                                                ",
"                                                                                                                                ",
"                                                                                                                                ",
"                                                                                                                                ",
"                                                                                                                                ",
"                                                                                                                                ",
"                                                                                                                                ",
"                                                                                                                                ",
"                                                                                                                                ",
"                                                                                                                                ",
"                                                                                                                                ",
"                                                                                                                                ",
"                                                                                                                                ",
"                                                                                                                                ",
"                                                                                                                                ",
"                                                                                                                                ",
"                                                                                                                                ",
"                                                                                                                                ",
"                                                                                                                                ",
"                                                                                                                                ",
"                                                                                                                                ",
"                                                                                                                                ",
"                                                                                                                                ",
"                                                                                                                                ",
"                                                                                                                                ",
"                                                                                                                                ",
"                                                                                                                                ",
"                                                                                                                                ",
"                                                                                                                                ",
"                                                                                                                                ",
"                                                                                                                                ",
"                                                                                                                                ",
"                                                                                                                                ",
"                                                                                                                                ",
"                                                                                                                                ",
"                                                                                                                                ",
"                                                                                                                                ",
"                                                                                                                                ",
"                                                                                                                                ",
"                                                                                                                                ",
"                                                                                                                                ",
"                                                                                                                                ",
"                                                                                                                                ",
"                                                                                                                                ",
"                                                                                                                                ",
"                                                                                                                                ",
"                                                                                                                                ",
"                                                                                                                                ",
"                                                                                                                                ",
"                                                                                                                                ",
"                                                                                                                                ",
"                                                                                                                                ",
"                                                                                                                                ",
"                                                                                                                                ",
"                                                                                                                                ",
"                                                                                                                                ",
"                                                                                                                                ",
"                                                                                                                                ",
"                                                                                                                                ",
"                                                                                                                                ",
"                                                                                                                                ",
"                                                                                                                                ",
"                                                                                                                                ",
"                                                                                                                                ",
"                                                                                                                                "
};
