/* XPM */
static char *_71b4fbc00d94c62aff8c2c5d74b4a7d[] = {
/* columns rows colors chars-per-pixel */
"128 128 32 1 ",
"  c None",
". c black",
"X c #010101",
"o c #163400",
"O c #173400",
"+ c #173500",
"@ c #173501",
"# c #183501",
"$ c #214B40",
"% c #214C40",
"& c #224C40",
"* c #224C41",
"= c #224D41",
"- c #234D41",
"; c #234D42",
": c #227E54",
"> c #227F54",
", c #227F55",
"< c #237F55",
"1 c #3D8900",
"2 c #3E8900",
"3 c #3E8A00",
"4 c #3E8A01",
"5 c #3F8A01",
"6 c #3F8B01",
"7 c #63A73D",
"8 c #64A73D",
"9 c #64A83D",
"0 c #64A83E",
"q c #65A83E",
"w c #65A93E",
"e c #238055",
/* pixels */
"                                                                                                                                ",
"                                                            .                                                                   ",
"                                                            ...  ..                                                             ",
"                                                      ...    *0.  ....                                                          ",
"                                                      ..0.   .*.  ..0.                                                          ",
"                                              .       ....   .*.   ....                                                         ",
"                                              ..      .*.0.  .**.  ..0....                                                      ",
"                                               .0.     .*0....**.  ..0..0.                                                      ",
"                                               ..0.    .*.0...$*.   *...00.                                                     ",
"                                            .   ...    .*.*..0.*.   ..0..0.                                                     ",
"                                            ..  ..0.   .**..*..*..  .*...00.                                                    ",
"                                            ... ..0.  ..**.**.0.$.  .*..*.00.                                                   ",
"                                     ....   .*.  .0.. 0.*....*..*.  .*.*..**.                                                   ",
"                                     ..0.   .*.  ..00...**.00...*.. ...$..>*.                                                   ",
"                         .   .       .*.0.  .**. ...8.0.**..00.0.080.0...*.*.           .                                       ",
"                         .    .       *.0.. .**.  ..0....**..0.*.80.00...*.*.    .       .                                      ",
"                         0.   .0.     .*.0...**.  .*...00.*..008$00.00.*...*.     ...    .0                                     ",
"                        .00.   .0.    .*.7...**.  ...0..0...*08..000000..0.*.  ....00.    ...                                   ",
"                        .**.   ..0.   .**..*..**. ...0..70.0..00.00.000.0.0.* ......00.    .0.                                  ",
"                        .**.   ..0.    **.**..**....*...00.0..00.0*.000...00...0....80......00.                                 ",
"                       . **.    ..0. . .*.0..0.*.*..*.**.00..*.0.00.*0>*...0.$.0....*08...*....                                 ",
"                       ...**.   ..0.....*......*.....**..00..*.*.00.0e0*...00..>0....**.**. 00..                                ",
"                .      .*..*.   .*.0...>$..0..0..000.**.*.0..*.*.08.*0*...0.00***....***..* .00.                                ",
"                ..      *..*.  ....0>.0....00...>70.0...*.*..*.*.0.....*..0.00***..0.*e*.*...008.                               ",
"                ...     .*.*.  ....0.00..*..00.*800.0.*.$.$.0*.*$00>*070.....08.*.*00.$*.*.0..00.                               ",
"                .*.  ...**........*..0..**...0...0.000.*..**0.....0e.0000.0..00.....00.**..00.*e0.                              ",
"          ...   .**.  .0.......0..........*...0..0.>00.*.*.*......00..000.00..*.*...00.**...0*.*0.    .                         ",
"          ..0.   **.  ..0.*.*..0.0.*.*....*.*.0.....00.....*..e...00.*....000.**...*.*..*...0*.**...  ....       ..             ",
"  .       ....   .*.  ..0...*.*.0...*...*.*.**....00.0...8........70.*...*....**..*....***..00*.*.... .....  .   ..             ",
"  ..      .*.0.. .**.  ..*....*.0.0.**.8.**.**.....0.*....0.7..00.000.*.**.00.*.....*..*...800*..0.70. 0.**  .   .0             ",
"   .0.    .*.0...***.  ..0....**00.**.*......*.0..$......*..0...0.000.*.**..**...0***.0....8.*0*...00. 00.*. ..  .0             ",
"   ..0.    .*.0...**.  .*...0....0***.*.0....**..*..0........0.*.0.08.**.*$.......00.....0.0..**.**.00.00.*. .0  *0.            ",
"    ...    .*.*..0.*. ....*..0....**..**0...***..*..0......*...*.*..0.**.**.*..00.08.0......0...*.*.00..00.* .0..**.            ",
"    ..0.   .**..*..*.....*0..0..80.*.*.*.0...*..****...$...*....*.0...**.*0.....0*..0....**.>.*.*....0*.00....00.**... ..       ",
"    ..0.  ..*...*..*...0....*.0..0...*.*.0..0.*.***..0...0.*..0.*.*...**.....*.*0*.00.....*...*...*.07.*.0..*.00.**...00.       ",
"     ..0. ..*.....0.*.0.00.*..7.....0*.**..*........*...*.0...0.*.*.*..*..08.*.*.***8.*..0....**..*..*.*.00.7..00....00.  ..    ",
"     ..0..*.**.00..0....00.*..0.*...0..*...*.0.*....*..*..*..*..**..*..*..00.....0**.**..0...***.....*...*0.*..80.*.07.   .0..  ",
"     .*.>.*.*...00.*....0*0..*.*....0.***...........*..*.*.*....*..**.*.*.00.*$...**.>0.*.0.**.*..**..*....**..00*.00..   ..00. ",
"      $.*.**.*...0***.*.****..e.0....*.**..0.......*.......*.*..*$.0...*..00..**.....>*.*.*...$**.**..*.00.**..00.00..    .000. ",
"      ..*.*......08.*.*..*$.*...0.*.*$.....00.***..**..*.7..*.*.*...0..*..70..**..0.....***..0.**.**.$...07.****>>0..0.   .000. ",
"      .*.**..*...0>.***..**.$..0*.*.*.00.*..0.***..**.***.0*..**........0.7.*.....0..07*.*.*$..**.*70..**.0.**....0.*0... .8*e. ",
"     ..*..*..*....0*.....**.*.000.*...>.*...00.***.**..**.0*.***..*.0..0..7.*......*.**0.*.*.*0.*.**0..*..00.*.*>0*.....0..>0*. ",
"   ..00...........****..*.*.*..0..*..**.**.*.0..*$..*..***.0*.**.....00..*...0.....*.0*..*...$..$.**7.$...07.*.*$........0.>*.  ",
" ..0****.....0...*.**.*.*..$*.....*..*>.***..*0.**.....**..0**...***.00.....0*.*.****....*.....0..000.e.**.0.*.**.....*.**...0. ",
" ..******.*......$.**......***.*..*......**..*..**.*.0......>....***..00..*..*......*..*.**.00.....0.0..*..00*.**..**.*.**.00.. ",
" .***.**.**...*..*.**.*....*.*.....**.00.*..*......**..0>...**.....0..0.....*.*......$.*.**..0...000.0..*.0.0..**..**.*.00..00. ",
" .****........*..*.**.*....*.*.*...***.08...*.*.**.**...**..*.0......$.0..0.*...0*...*.**.*.*00.*.00.00.*.*.0.*...****....00000 ",
" .******..*...**.*.$*......*..0.*.***..00.*...*.00.**...***....*.**.08.*....*...00.0**.$*.....00..**.00...*.0.0*0e****..007008. ",
" ..**$****..*.000..*....*...**....***...00..e.*......**..**.0.*$..*.00.*.0......00.0..*8*.0...00..**.00.*.*00.>0**08..000000... ",
" .O..*******..*000..*..0..*..*.*...**...**0.0.*......***.*.00.**..**000.*.*..*..*0.*..0**.00.*.0..**.00.0.*.0.e>000.000000..... ",
" .OO....******..*****...*...**.**.*.....***..**....0*.0....8..**..0*.00..*...*.0.***...***000..00.**.00.00....00>.0000000...33. ",
" .OOOO.....*****..****.*..*..**.*$.*..0..**.........**.*..00........*.*...*....0.*$*...*0.000.*.0.**.000000..>..0000080...3333. ",
" .OOOOOO.....***$*..0*.......**.**..**...*..*.0.**.*.*.**.00.*..0.......0.*....00.***..>..*>0.*00.**.00.e000..0000000...333333. ",
" .OOOOOOO#.....*$***..****...**...*..**.**.**.0.**.*.*.*>.*0**...0..0..*..**.>..00.*>...0.*00.*.0.**000.*0..000000....33333333. ",
" .OOOOOOOOO#.....*****..**......*......**.....0.**.***.**.*.**$..7..0..*..**.>..00.**.0.*0**7.*.0.*....0*.000000....3333333333. ",
" .OO#OOOOOOOOO.....*****....*$*.*......**..*..0.**..*****.*.**..*.0...*.*.**.*.*0**..0.****$*.*.0.000*0.0000800...333333333333. ",
" .OOO#OOOOOO#OOO.....*****..******......*..*....**..*.***.*.....*.0.0.*.*.****.*0*$....0*****0..0.00..0000000...33333333333333. ",
" .OOOOOOOOOOOOOOO#.....*****..****...00.*0.*.*.....0..**0.......**.00.*.**.*>*0*.**.0.000***000..*..0008000...3333333333333333. ",
" .OOOO#OOOOOOOO#OOOO.....*****..**..***.$..*.*.***....$>*...$....*.0.*.$**..***..*.*..0*0*00000*..00000000..333333333333333333. ",
" .OOOOO#OOOOOOOOOO#O#O.....*****..*.***......*.*...*........*..**.00....**.......*.*.**0**0070..0000000...33333333333333333333. ",
" .OOOOOOOOOOOOOOOOOOOOOO.....*****..***...**.*.....*....*..*.*.0*.00.*............**.**00**0..000000....3333333333333333333333. ",
" .OOOOOOOOO##OOOOOOOOOOOOO.....*****..*0..**.........$*....**..$0.00.*.80.*..80.*.*..0*000..700870....333333333333333333333333. ",
" .OOOOOOOOOOOOOOOOOOOO#OO#OO.....***$*....**0*..0.**..$.....**.**.*.$*.80.**.00.0.*.**00..008000....33333333333333333333333333. ",
" .OOOOOOOOOOOO##O#O#OOOOOOOOOO.....*****..*****.*.*.*.**.*..**.*0.0..*.00.**.00.0*..**..000000....3333333333333333333333333333. ",
" .OOOOOOOOOOO#OOOOOOOOOO#OO#O#OO.....****$..***.*............****.0..*....*..00.00**..000000....333333333333333333333333333333. ",
" .OOOOOOOOOOOOOO#OOOOOOOOOOOOO#OOO.....*$***..*.....*.*...**..000.0.......*..00.*80.000000....33333333333333333333333333333333. ",
" .#O#OOOOO#OOOOOOOOOOOOOO#OOOOOOOOOOO....$$***..*7.........*..>0*............0....000000....3333333333333333333333333333333333. ",
" .OOOOOOOOOOOOOOOOOOO#OOOOOOOOOOO#OOOOO....*****....**....0*..*.....0.**.**.....000000....333333333333333333333333333333333333. ",
" .#OOOOOOOO#OOOOOOOOO#OOOOOOOOOOOOOOOOOOO....*****..**.........*.......*..8*..000000....33333333333333333333333333333333333333. ",
" .OOOO#O#OOOOOOOOOO#OOOOOOOOOOOO#OOOOO#OOOO....*****..e**..*.....*.*.*......000000....3333333333333333333333333333333333333333. ",
" .O#OO#OOO#OOO#OOOOOO##OOOOOOOOOOO#O##OO#OOOO....*****..*..........0.***..000000....333333333333333333333333333333333333333333. ",
" .OOO#OOOOO#OOOOOO#OOOOOOOOOOOOOOOOOO#OOOOOOOOO....*****....*0..**...*e.000000....33333333333333333333333333333333333333333333. ",
" .OOO#OOOOO#OOOOOOOOO#OOOOOOOOOOOOOOOOOOO#O#OOOOO....*****..**..****..700000....3333333333333333333333333333333333333333333333. ",
" .OOOOO#OOO#OOOOOO#OOOOOOOOO#OOOOOOOOOOOOOOOOOOOOO.....*****...>>*..000000....333333333333333333333333333333333333333333333333. ",
" .OOOOOO##OOOOO#OOOOOOOOOOOO##OOOOOOOOO#OOOOOO#OO#OO.....*****....000000....33333333333333333333333333333333333333333333333333. ",
" .OOOOOOOOOOOOOOOO#OOOOOOO#OOOOOOO#O#OOOOOOOOOOOOOOOO#.....*****.00800....3333333333333333333333333333333333333333333333333333. ",
" .O#OOOOOOO#OOOOOOOOOOOO#OO#O#OOOOOOOOOOOOO#O#O#OOOOOOOO.....**$0000....333333333333333333333333333333333333333333333333333333. ",
" .O#OOOOO#OOOOOOO##OOOOOOOOOOOOOOOOOOOOOOO#OO#OO###OOOO#OO.....*00....33333333333333333333333333333333333333333333333333333333. ",
" .OOOOOOOOOOOOOOOOOOOOOO#OOO#OOOOOOO#OOOOOO#OOOOOOO#OOOOOOOO........3333333333333333333333333333333333333333333333333333333333. ",
" .OOOOO##OOO#OO#O##OOO#OOOOO#OOO#OOOOOO#OOOOOOOOOOOOO###OOOO#O....333333333333333333333333333333333333333333333333333333333333. ",
" .OOOOOO#OOOOOOOOOOOO##OOOOOOOOOOOOOO#OOOOOO#OOOO#OOOOOOO#OOOOOO.3333333333333333333333333333333333333333333333333333333333333. ",
" .OOOOOOOOOOOOOOOOOOOOOOOOOOOOOOOOO#OOOOOOOO#OOOOOOOOOOOOOOO#OOO.3333333333333333333333333333333333333333333333333333333333333. ",
" .OOOOOOOO#OOOOOOOOOOOOOOOOO##OOO#OOOOO#OOOOOOOOOOOOOOOOOO#OOOOO.3333333333333333333333333333333333333333333333333333333333333. ",
" .OOO#OOOOOOOOOO##OOOOOOOOOOOOOOO#OO#OOO##OOOOO#O#OOOO#OOOO#OOOO.3333333333333333333333333333333333333333333333333333333333333. ",
" .OOOOOOOOOO#OOOOOOOOOO#OOOOOOOOOOOOOOOO#OOOOOOOO#OO#OO#OO#OOOO#.3333333333333333333333333333333333333333333333333333333333333. ",
" .#OOOOOOOO#OOOOOOOOO#OOOOOOOOOOOOOOOOOOOO#O#OOOOOOOOOOO##OOO#O#.3333333333333333333333333333333333333333333333333333333333333. ",
" .OOOOOOOOOOOOOOOOOOOOOOOOOOOOOOOO#OOOOOOOOOOOOOOOOOO#OOOOOOOOOO.3333333333333333333333333333333333333333333333333333333333333. ",
" .OOOOOOOOOOOOOOOOOOOOOOOOO#OO#OOOOOO#OOOOOOOOO#OOOOOOOOOOO#OO#O.3333333333333333333333333333333333333333333333333333333333333. ",
" .O#OO##OOOOOOOOOOOOOOOO#OOOOOOOOOOOOOOOOOOOOOOOOOOOOOOOOOOOOOOO.3333333333333333333333333333333333333333333333333333333333333. ",
" .OOOOOOOOOOOO#OOOOOOOOOOOOOO#OOOOO#O#OO#OOOOO#OOOO#OOO#OO##OOOO.3333333333333333333333333333333333333333333333333333333333333. ",
" .OOOOOOOOOOOOOOO#OOOOOOOOOOO#OOOO#OOOOOO#O#OOOO#O#OOOOOOOOOOOOO.3333333333333333333333333333333333333333333333333333333333333. ",
" .OOOOOOO#OOOOOO##OOOOOOOOOOOOOOOOOOOO#OO#OO#OOO#OOOOO#OOO#OOO#O.3333333333333333333333333333333333333333333333333333333333333. ",
" .OOOOOO#OOO##OOOO#OOOOOOOOOO#OOOOOOOOOOOOO#OOOOOO#OOOO##OOOOOOO.3333333333333333333333333333333333333333333333333333333333333. ",
" .OOOOOOOOOOOOOOOOOOOOOO#OOOOO#OOOOOO#OO#O#OO#OOOO#OOOOO##OOOOOO.3333333333333333333333333333333333333333333333333333333333333. ",
" .OOOOOOOOOOOOOOOO#OOOOOOOOOOOOOOOOOOOOOOOOOOOOOOOO#O#OOOO#O#OOO.3333333333333333333333333333333333333333333333333333333333333. ",
" .OOOOO#OOOOOOOOOOOOO##O#OOOOOOOOO#OOOOOOOOOOOOOOOOOOOOOOOOOOOOO.3333333333333333333333333333333333333333333333333333333333333. ",
"  ..O#OO#OOOOOOOOOOOO#OOOOOOOOOOOOOOOOOO#OO#OOO#OOOOOOOOOO#OOOOO.33333333333333333333333333333333333333333333333333333333333..  ",
"    ..OOOOO#OO#OO#OO##OOO#OOO#OOOOOOOOOOOOOOOOOOOOOOOOOOOOOOOOOO.333333333333333333333333333333333333333333333333333333333..    ",
"      ..OOOOOOOOOOOOOOOO#OOOOOOOOOO#OOOOOOOOOOOOOOOOOO#OOOOOOOOO.3333333333333333333333333333333333333333333333333333333..      ",
"        ..OOOOOOOOOO#OOOOOOO##OOOOOOOOOOOOOOOOO#OOOOOOOOOOOOOOOO.33333333333333333333333333333333333333333333333333333..        ",
"          ..OOOOOOOOOOOOOOOO#OOOOOOOOOO#OOOO#OOOOOOOOOOOOOOOOOOO.333333333333333333333333333333333333333333333333333..          ",
"            ..#OOOOOOOOOO##OOOOOOOOOOOOOOOOOOOOOOOOOOOOOOOO#OOOO.3333333333333333333333333333333333333333333333333..            ",
"              ..OO#OO##O#O#OOO#OO#O#OOOO#OOOOOOOOO#O#OOOOOOOOO#O.33333333333333333333333333333333333333333333333..              ",
"                ..OOOOOOOOOOOOO#O###OOO#OO#OO#OOOOOOOOOOOOOOOOOO.333333333333333333333333333333333333333333333..                ",
"                  ..OOOOOOOOOOO#OOOO##OOOOOOO#OOOOOOOOOOOOOOOOOO.3333333333333333333333333333333333333333333..                  ",
"                    ..OOOOO#OOOOOO#OOOOO#OO#OOOO#OOOOOOOO#OO#OOO.33333333333333333333333333333333333333333..                    ",
"                      ..OOOOOOOOOOO#OOOOO#OOOOO#OOO#OO#OOOOOOO#O.333333333333333333333333333333333333333..                      ",
"                        ..OOOOO#OOOOOOOOOO#OOOO#OOOOOOOOOOOOOOOO.3333333333333333333333333333333333333..                        ",
"                          ..OOOOOO#OOOOOOOOO#OOOOOOOOOOOOO#OOOOO.33333333333333333333333333333333333..                          ",
"                            ..OOOOOOOOOOOOO#OOOO#OOOOOOOOOOOO#O#.333333333333333333333333333333333..                            ",
"                              ..OOOO#OO#O#OOO#O#OOO##OOOOOOOO#OO.3333333333333333333333333333333..                              ",
"                                ..O#OOOOOOOOOOOOOOOO#OOOOOOOOOOO.33333333333333333333333333333..                                ",
"                                  ..O#OOOOOOO#OOOOOOOOOOOOOO#OOO.333333333333333333333333333..                                  ",
"                                    ..OOOOOOOOOOOOOOOOOOOOOOOOO#.3333333333333333333333333..                                    ",
"                                      ..OOOOO#OOOOO#OOOOO#OOOOOO.33333333333333333333333..                                      ",
"                                        ..OOOOOOOOOO#OO#OOOOOOOO.333333333333333333333..                                        ",
"                                          ..O#OO#OO#O##OOOOO#OOO.3333333333333333333..                                          ",
"                                            ..OOOOOOOOOOOO#OO#OO.33333333333333333..                                            ",
"                                              ..OOOOOOOOOOOOOOOO.333333333333333..                                              ",
"                                                ..OOOO#O#O#OOOOO.3333333333333..                                                ",
"                                                  ..OOOOOOOOOO#O.33333333333..                                                  ",
"                                                    ..OOOOOOOOOO.333333333..                                                    ",
"                                                      ..OO#OO#OO.3333333..                                                      ",
"                                                        ..OO#OOO.33333..                                                        ",
"                                                          ..OOO#.333..                                                          ",
"                                                            ..OO.3..                                                            ",
"                                                              ....                                                              ",
"                                                                .                                                               "
};
