/* XPM */
static char *_5cf53604e494803e5b746fd6e5bf240phvNDQEidPBw7mJ8[] = {
/* columns rows colors chars-per-pixel */
"128 128 30 1 ",
"  c None",
". c black",
"X c #010101",
"o c #163400",
"O c #173400",
"+ c #173500",
"@ c #173501",
"# c #183501",
"$ c #214B40",
"% c #214C40",
"& c #224C40",
"* c #224C41",
"= c #224D41",
"- c #234D41",
"; c #234D42",
": c #227F54",
"> c #237F55",
", c #3D8900",
"< c #3E8900",
"1 c #3E8A00",
"2 c #3E8A01",
"3 c #3F8A01",
"4 c #3F8B01",
"5 c #63A73D",
"6 c #64A73D",
"7 c #64A83D",
"8 c #64A83E",
"9 c #65A83E",
"0 c #65A93E",
"q c #238055",
/* pixels */
"                                                                                                                                ",
"                                                            .                                                                   ",
"                                                            ...  ..                                                             ",
"                                                      ...    88.  ....                                                          ",
"                                                      ..8.   .8.  ..8.                                                          ",
"                                              .       ....   .8.   ....                                                         ",
"                                              ..      .>.>.  .88.  ..*....                                                      ",
"                                               .8.     .8*....**.  ..*..8.                                                      ",
"                                               ..8.    .*.*...$*.   *...88.                                                     ",
"                                            .   ...    .*.q..8.*.   ..*..8.                                                     ",
"                                            ..  ..8.   .**..8..*..  .*...8>.                                                    ",
"                                            ... ..8.  ..q*.**.8.>.  .*..*.8*.                                                   ",
"                                     ....   .8.  .8.. 8.*....*..*.  .*.*..**.                                                   ",
"                                     ..8.   .8.  ..88...**.88...*.. ...$..**.                                                   ",
"                         .   .       .*.8.  .8>. ...6.8.**..88.*.86888...*.*.           .                                       ",
"                         .    .       *.8.. .**.  ..8....**..8.*.68.88...*.*.    .       .                                      ",
"                         8.   .8.     .*.8...**.  .*...88.*..886$88.88.*...*.     ...    .8                                     ",
"                        .88.   .8.    .*.5...**.  ...8..8...*86.*888888..8.*.  ....88.    ...                                   ",
"                        .88.   ..8.   .**..*..**. ...*..58.8*.88.88.888.*.8.* ......88.    .8.                                  ",
"                        .88.   ..8.    **.8*..**....*...8888..88.88.888...88...8....68......8*.                                 ",
"                       . 88.    ..8. . .*.8..8.*.8..*.**888..>.8.88.8888...8.$.8....886...*....                                 ",
"                       ...86.   ..8.....*......*.....**.*88..*.q.88.8888...88..88....*8.**. 88..                                ",
"                .      .*..8.   .*.8...8$..8..8..888.**.*.8..*.>.86.888...8.8.*88....*>8..* .88.                                ",
"                ..      *..q.  ....88.8....88...85888...*.*..*.*.8.....*..8.88.*8..8.**8.*...886.                               ",
"                ...     .*.q.  ....8.88..8..88.>688.8.*.$.$.**.>$8888858.....86.*..88.$*.*.8..88.                               ",
"                .*.  ...**........*..8..*8...88*.*.888.*..**8.....88.8888.8..88.*...88.**..8*.888.                              ",
"          ...   .**.  .8.......8..........8.*.8..*.888.*.*.*......88..888.88..*.*...88.**...**.88.    .                         ",
"          ..8.   **.  ..8.*.*..8.8.*.8....>.*.8.....88.....*..8...88.*....888.**...8....*...8*.88...  ....       ..             ",
"  .       ....   .*.  ..8...*.*.8...*...*.*.**....88.8...6........58.*...*....**..*.....*...8**.8.... .....  .   ..             ",
"  ..      .*.8.. .**.  ..8....*.8.8.8*.6.**.**.....8.8....8.5..88.888.*.*q.88.>.....*..*...6.8*..*.58. 8.*8  .   .8             ",
"   .8.    .*.8...***.  ..8....**88.****......*.8..$......8..8...8.888.*.**..*8...8*8*.8....6..**...88. 88.8. ..  .8             ",
"   ..8.    .*.*...**.  .*...8....8**>.*.8....**..*..8........8.*.*.86.**.*$.......88.....8.8..**.**.88.88.*. .8  88.            ",
"    ...    .*.8..8.*. ....*..8.8..**..**8...***..*..8......*...*.>..8.**.**....88.*6.8......8...*.*.88..88.* .8..88.            ",
"    ..8.   .**..*..*.....*8..8..68.*.*.*.8...*..****...$...*....*.8...**.*8.....88..8....**.8.*.*....8*.88....88.>*... ..       ",
"    ..8.  ..*...*..*...8....*.8..8...8.*.8..8.*.***..8...8.*..8.*.*...**.....*.*.8*88.....*...*...*.85.*.8..*.88.**...88.       ",
"     ..8. ..*.....8.*.8.88.*..$.....8*.**..*........*...*.8...8.*.*.*..*..86.*.*.*8*6.8..8....**..*..8.*.88.5..88....88.  ..    ",
"     ..8..8.**.88..8....88.8..*.*...8..*...*.8.*....*..*..*..*..**..*..*..88.....8**.88..8...***.....*...88.8..68.*.85.   .8..  ",
"     .*.8.6.*...88.*....888..*.*....8.***...........*..*.*.8....*..**.*.*.88.*$...**.88.*.8.>*.*..**..*....88..88*.88..   ..88. ",
"      $.8.88.*...88**.*.8888..q.8....8.**..8.......*.......*.*..*$.8...*..88..**.....88.*.*...$**.**..*.88.8>..88.88..    .888. ",
"      ..*.8......86.*.*..85.*...8.8.8$.....88.**>..**..*.$..8.*.*...8..*..58..**..8.....**...8.**.**.$...85.8.*.858..*.   .888. ",
"      .*.8>..*...88.***..88.$..88.8.*.88.*..8.***..**.***.**..**..........5.*.....8..85*.*.*...**.*$*..**.8.>6....8.**... .688. ",
"     ..*..8..*....8*.....88.*.888.8...8.*...88.***.**..**.**.***..*.8..8..5.8......8.8**.*.*.*8.*.**8..*..88.8.88.*.....8..888. ",
"   ..88...........8***..*.8.*..8..8..88.**.*.8..*$..*..***.**.**.....88..*...8.....*.8*..*...$..$.**5.$...85.8.85........*.88.  ",
" ..88***.....*...*.8*.*.*..$*.....8..88.***..88.**.....**..***...***.88.....88.*.****....*.....8...88.*.**.8.>.88.....*.**...8. ",
" ...*****.*......$.**......***.>..*......**..*..**.*.8......*..8.***..88..*.*8......*..*.**.88.....>.8..*..888.88..**.*.**.*... ",
" .**..**.8*...*..*.**.8*...*.*.....*8.8>.*..*......**..*8...**.....8..8.....*.*......$.*.**..8...888.8..*.*.8..88..**.*.**..88. ",
" .****........*..*.**.8....*.*.*...*88.q*...*.*.**.**...**..*.8......$.8..*.*...88...*.**.*.*88.*.*8.88.*.*.8.*...****....8888. ",
" ..*****..*...**.*.$*......*..8.*.**8..*8.8...*.88.**...**8....*.**.86.*....*...88...*.$*.....88..**.88...*.8.***88***..885886. ",
" ....$****..*.***..*....8...**....***...*>....*......**..**.8.*$..*.88.*.8......88.8..***.*...88..**.88.*.*.8.******..888888... ",
" .O....*****..**88..8..8..*..*.*...*8...**8.8.*......*8*.*.88.**..**.88.*.*..*..*8.*..8**.*8.*.8..8*.88.8.*.8.8***..888888..11. ",
" .OO.....*****..8**88...*...**.**.*.....***..**....8*.*....*..**..**.88..*...*.8.***...**.888..88.**.88.8*....**..888888...111. ",
" .OOOO.....*****..8888.*..6..**.*$.*..8..**.........**.*..>*........*.8...*....8.*$*...8*.888.*.8.**.888**8..*..888886...11111. ",
" .OOOOOO.....***$*..**.......**.**..**...*..*.8.**.*.*.**.**.*..8.........*....88.***..8..*88.*.8.**.88.**88..888888...1111111. ",
" .OOOOOOO#.....*$***..***8...**.*.*..**.**.**.8.**.*.*.**.q***...8..8..8..**.>..88.**...*.**8.*.8.8*888.**..888888....11111111. ",
" .OOOOOOOOO#.....*****..88......*......**.....8.**.***.**.*.**$..5..8..8..**.*..8*.**.8.****$.*.8.*....8..888888....1111111111. ",
" .OO#OOOOOOOOO.....*****....*$*.*......**..*..8.**..*****.*.**..*.8...8.*.**.*..8**..q.****$*.*.8.888*..888868....111111111111. ",
" .OOO#OOOOOO#OOO.....*****..888***......*..*....**..*.***.*.....*.8.8.>.*.**.*.*8*$....88****8..8.88..888888....11111111111111. ",
" .OOOOOOOOOOOOOOO#.....*****..6888...88.*..*.*.....8..***.......**.88.8.**.*****.**.8.8888**8>*..*..888688....1111111111111111. ",
" .OOOO#OOOOOOOO#OOOO.....*****..**..8**.$..*.*.***8...$**...$....*.8.*.$**..***..*.*..8**88*88**..888888....111111111111111111. ",
" .OOOOO#OOOOOOOOOO#O#O.....*****..*.***......*.*...*........*..*..88....**.......*.*.*88888858..888888....11111111111111111111. ",
" .OOOOOOOOOOOOOOOOOOOOOO.....*****..888...**.*.....*....*..*.*.**.>8.*............**.**88888..888888....1111111111111111111111. ",
" .OOOOOOOOO##OOOOOOOOOOOOO.....*****..88..**.........$*....**..$>.8q.*.68.*..68.*.*..8*888..588658....111111111111111111111111. ",
" .OOOOOOOOOOOOOOOOOOOO#OO#OO.....***$*....*888..8.*...$.....**.**.>.$*.68.**.88.q.*.**88..886888....11111111111111111111111111. ",
" .OOOOOOOOOOOO##O#O#OOOOOOOOOO.....*****..*8***.*.*.*.**.*..**.**.8..*.88.**.88.8*..**..888888....1111111111111111111111111111. ",
" .OOOOOOOOOOO#OOOOOOOOOO#OO#O#OO.....****$..88*.*............****.*..*....*..88.*8**..888888....111111111111111111111111111111. ",
" .OOOOOOOOOOOOOO#OOOOOOOOOOOOO#OOO.....*$***..8.....*.*....*..8*8.8.......*..88.*6..888888....11111111111111111111111111111111. ",
" .#O#OOOOO#OOOOOOOOOOOOOO#OOOOOOOOOOO....$$***..*5.........*..*>*............8....888888....1111111111111111111111111111111111. ",
" .OOOOOOOOOOOOOOOOOOO#OOOOOOOOOOO#OOOOO....*****....**....**..*.....8.8*.*8.....888888....111111111111111111111111111111111111. ",
" .#OOOOOOOO#OOOOOOOOO#OOOOOOOOOOOOOOOOOOO....*****..**.................*..6*..888888....11111111111111111111111111111111111111. ",
" .OOOO#O#OOOOOOOOOO#OOOOOOOOOOOO#OOOOO#OOOO....*****..8**..*.....*.*.*......888888....1111111111111111111111111111111111111111. ",
" .O#OO#OOO#OOO#OOOOOO##OOOOOOOOOOO#O##OO#OOOO....*****..*..........*.**8..888888....111111111111111111111111111111111111111111. ",
" .OOO#OOOOO#OOOOOO#OOOOOOOOOOOOOOOOOO#OOOOOOOOO....*****....*8..**...*..888888....11111111111111111111111111111111111111111111. ",
" .OOO#OOOOO#OOOOOOOOO#OOOOOOOOOOOOOOOOOOO#O#OOOOO....*****..**..****..588888....1111111111111111111111111111111111111111111111. ",
" .OOOOO#OOO#OOOOOO#OOOOOOOOO#OOOOOOOOOOOOOOOOOOOOO.....*****...***..888888....111111111111111111111111111111111111111111111111. ",
" .OOOOOO##OOOOO#OOOOOOOOOOOO##OOOOOOOOO#OOOOOO#OO#OO.....*****....888888....11111111111111111111111111111111111111111111111111. ",
" .OOOOOOOOOOOOOOOO#OOOOOOO#OOOOOOO#O#OOOOOOOOOOOOOOOO#.....*****.88688....1111111111111111111111111111111111111111111111111111. ",
" .O#OOOOOOO#OOOOOOOOOOOO#OO#O#OOOOOOOOOOOOO#O#O#OOOOOOOO.....**$.888....111111111111111111111111111111111111111111111111111111. ",
" .O#OOOOO#OOOOOOO##OOOOOOOOOOOOOOOOOOOOOOO#OO#OO###OOOO#OO.....*.8....11111111111111111111111111111111111111111111111111111111. ",
" .OOOOOOOOOOOOOOOOOOOOOO#OOO#OOOOOOO#OOOOOO#OOOOOOO#OOOOOOOO........1111111111111111111111111111111111111111111111111111111111. ",
" .OOOOO##OOO#OO#O##OOO#OOOOO#OOO#OOOOOO#OOOOOOOOOOOOO###OOOO#O....111111111111111111111111111111111111111111111111111111111111. ",
" .OOOOOO#OOOOOOOOOOOO##OOOOOOOOOOOOOO#OOOOOO#OOOO#OOOOOOO#OOOOOO.1111111111111111111111111111111111111111111111111111111111111. ",
" .OOOOOOOOOOOOOOOOOOOOOOOOOOOOOOOOO#OOOOOOOO#OOOOOOOOOOOOOOO#OOO.1111111111111111111111111111111111111111111111111111111111111. ",
" .OOOOOOOO#OOOOOOOOOOOOOOOOO##OOO#OOOOO#OOOOOOOOOOOOOOOOOO#OOOOO.1111111111111111111111111111111111111111111111111111111111111. ",
" .OOO#OOOOOOOOOO##OOOOOOOOOOOOOOO#OO#OOO##OOOOO#O#OOOO#OOOO#OOOO.1111111111111111111111111111111111111111111111111111111111111. ",
" .OOOOOOOOOO#OOOOOOOOOO#OOOOOOOOOOOOOOOO#OOOOOOOO#OO#OO#OO#OOOO#.1111111111111111111111111111111111111111111111111111111111111. ",
" .#OOOOOOOO#OOOOOOOOO#OOOOOOOOOOOOOOOOOOOO#O#OOOOOOOOOOO##OOO#O#.1111111111111111111111111111111111111111111111111111111111111. ",
" .OOOOOOOOOOOOOOOOOOOOOOOOOOOOOOOO#OOOOOOOOOOOOOOOOOO#OOOOOOOOOO.1111111111111111111111111111111111111111111111111111111111111. ",
" .OOOOOOOOOOOOOOOOOOOOOOOOO#OO#OOOOOO#OOOOOOOOO#OOOOOOOOOOO#OO#O.1111111111111111111111111111111111111111111111111111111111111. ",
" .O#OO##OOOOOOOOOOOOOOOO#OOOOOOOOOOOOOOOOOOOOOOOOOOOOOOOOOOOOOOO.1111111111111111111111111111111111111111111111111111111111111. ",
" .OOOOOOOOOOOO#OOOOOOOOOOOOOO#OOOOO#O#OO#OOOOO#OOOO#OOO#OO##OOOO.1111111111111111111111111111111111111111111111111111111111111. ",
" .OOOOOOOOOOOOOOO#OOOOOOOOOOO#OOOO#OOOOOO#O#OOOO#O#OOOOOOOOOOOOO.1111111111111111111111111111111111111111111111111111111111111. ",
" .OOOOOOO#OOOOOO##OOOOOOOOOOOOOOOOOOOO#OO#OO#OOO#OOOOO#OOO#OOO#O.1111111111111111111111111111111111111111111111111111111111111. ",
" .OOOOOO#OOO##OOOO#OOOOOOOOOO#OOOOOOOOOOOOO#OOOOOO#OOOO##OOOOOOO.1111111111111111111111111111111111111111111111111111111111111. ",
" .OOOOOOOOOOOOOOOOOOOOOO#OOOOO#OOOOOO#OO#O#OO#OOOO#OOOOO##OOOOOO.1111111111111111111111111111111111111111111111111111111111111. ",
" .OOOOOOOOOOOOOOOO#OOOOOOOOOOOOOOOOOOOOOOOOOOOOOOOO#O#OOOO#O#OOO.1111111111111111111111111111111111111111111111111111111111111. ",
" .OOOOO#OOOOOOOOOOOOO##O#OOOOOOOOO#OOOOOOOOOOOOOOOOOOOOOOOOOOOOO.1111111111111111111111111111111111111111111111111111111111111. ",
"  ..O#OO#OOOOOOOOOOOO#OOOOOOOOOOOOOOOOOO#OO#OOO#OOOOOOOOOO#OOOOO.11111111111111111111111111111111111111111111111111111111111..  ",
"    ..OOOOO#OO#OO#OO##OOO#OOO#OOOOOOOOOOOOOOOOOOOOOOOOOOOOOOOOOO.111111111111111111111111111111111111111111111111111111111..    ",
"      ..OOOOOOOOOOOOOOOO#OOOOOOOOOO#OOOOOOOOOOOOOOOOOO#OOOOOOOOO.1111111111111111111111111111111111111111111111111111111..      ",
"        ..OOOOOOOOOO#OOOOOOO##OOOOOOOOOOOOOOOOO#OOOOOOOOOOOOOOOO.11111111111111111111111111111111111111111111111111111..        ",
"          ..OOOOOOOOOOOOOOOO#OOOOOOOOOO#OOOO#OOOOOOOOOOOOOOOOOOO.111111111111111111111111111111111111111111111111111..          ",
"            ..#OOOOOOOOOO##OOOOOOOOOOOOOOOOOOOOOOOOOOOOOOOO#OOOO.1111111111111111111111111111111111111111111111111..            ",
"              ..OO#OO##O#O#OOO#OO#O#OOOO#OOOOOOOOO#O#OOOOOOOOO#O.11111111111111111111111111111111111111111111111..              ",
"                ..OOOOOOOOOOOOO#O###OOO#OO#OO#OOOOOOOOOOOOOOOOOO.111111111111111111111111111111111111111111111..                ",
"                  ..OOOOOOOOOOO#OOOO##OOOOOOO#OOOOOOOOOOOOOOOOOO.1111111111111111111111111111111111111111111..                  ",
"                    ..OOOOO#OOOOOO#OOOOO#OO#OOOO#OOOOOOOO#OO#OOO.11111111111111111111111111111111111111111..                    ",
"                      ..OOOOOOOOOOO#OOOOO#OOOOO#OOO#OO#OOOOOOO#O.111111111111111111111111111111111111111..                      ",
"                        ..OOOOO#OOOOOOOOOO#OOOO#OOOOOOOOOOOOOOOO.1111111111111111111111111111111111111..                        ",
"                          ..OOOOOO#OOOOOOOOO#OOOOOOOOOOOOO#OOOOO.11111111111111111111111111111111111..                          ",
"                            ..OOOOOOOOOOOOO#OOOO#OOOOOOOOOOOO#O#.111111111111111111111111111111111..                            ",
"                              ..OOOO#OO#O#OOO#O#OOO##OOOOOOOO#OO.1111111111111111111111111111111..                              ",
"                                ..O#OOOOOOOOOOOOOOOO#OOOOOOOOOOO.11111111111111111111111111111..                                ",
"                                  ..O#OOOOOOO#OOOOOOOOOOOOOO#OOO.111111111111111111111111111..                                  ",
"                                    ..OOOOOOOOOOOOOOOOOOOOOOOOO#.1111111111111111111111111..                                    ",
"                                      ..OOOOO#OOOOO#OOOOO#OOOOOO.11111111111111111111111..                                      ",
"                                        ..OOOOOOOOOO#OO#OOOOOOOO.111111111111111111111..                                        ",
"                                          ..O#OO#OO#O##OOOOO#OOO.1111111111111111111..                                          ",
"                                            ..OOOOOOOOOOOO#OO#OO.11111111111111111..                                            ",
"                                              ..OOOOOOOOOOOOOOOO.111111111111111..                                              ",
"                                                ..OOOO#O#O#OOOOO.1111111111111..                                                ",
"                                                  ..OOOOOOOOOO#O.11111111111..                                                  ",
"                                                    ..OOOOOOOOOO.111111111..                                                    ",
"                                                      ..OO#OO#OO.1111111..                                                      ",
"                                                        ..OO#OOO.11111..                                                        ",
"                                                          ..OOO#.111..                                                          ",
"                                                            ..OO.1..                                                            ",
"                                                              ....                                                              ",
"                                                                .                                                               "
};
