/* XPM */
static char *_bec874277dc4668bef27dab4ec94523[] = {
/* columns rows colors chars-per-pixel */
"128 128 31 1 ",
"  c None",
". c black",
"X c #010101",
"o c #5F3312",
"O c #5F3412",
"+ c #603412",
"@ c #603413",
"# c #603513",
"$ c #905000",
"% c #905100",
"& c #915100",
"* c #915101",
"= c #915201",
"- c #925201",
"; c #91765F",
": c #92765F",
"> c #927660",
", c #927760",
"< c #937760",
"1 c #937761",
"2 c #B8A08D",
"3 c #B9A08D",
"4 c #B9A18D",
"5 c #B9A18E",
"6 c #BAA18E",
"7 c #C3C0B7",
"8 c #C3C0B8",
"9 c #C3C1B8",
"0 c #C4C1B8",
"q c #C4C1B9",
"w c #C4C2B9",
/* pixels */
"                                                                                                                                ",
"                                                                                                                                ",
"                                                                                                                                ",
"                                                                                                                                ",
"                                                                                                                                ",
"                                                                                                                                ",
"                                                                                                                                ",
"                                                                                                                                ",
"                                                                                                                                ",
"                                                                                                                                ",
"                                                                                                                                ",
"                                                                                                                                ",
"                                                                X                                                               ",
"                                                           XXXXw8XX                                                             ",
"                                                      XXXXX8w58878XX           XXXXX                                            ",
"                                                  XXXXwww88ww8w8878X   XXXXXXXX&&O+++XXX                                        ",
"                                              XXXw7w8w8www8w8w577wwXXX&&&&&&&&&&&&++++O+XX                                      ",
"                                            XX55w78878ww8w88w77888w8X&&&&&&&&&&&&&&+Oo+O+XX                                     ",
"                                          XX,5555888887w78w888w88ww8X&&&&&&&&&&&&&+++O+O++XX                                    ",
"                                        XX:,,,555ww888w7888w8788ww87XX&&&&&&&&&&&&&+o++++++X                                    ",
"                                       X,,,,,,555w88w88wwww778ww8wwwwX&&&&&&&&&&&&+++Oo+o++X                                    ",
"                                      X,,,,,,,5555w88888ww8w8www88888X&&&&&&&O&&&&&&&&&+&+&X                                    ",
"                                     X,,:,,,,:5555588ww8www7ww885w7w8X+++&&&&&&&&&&&&&&&&&&X                                    ",
"                                     ,,,,,,,,,555588w88w888w88w85ww8wX&&&&&&&&&&&&&&&&&&&&&X                                    ",
"                                    X,,,,,:,,,,55555588w7878w8w855555XX&&&&&&&&&&&&&&&&&&XXX                                    ",
"                                    XX,,,,,:,,,55555558575w555555555,XXXX&&&&&&&&&&&&&&XX&X                                     ",
"                                    XX::,,,,,,,,555555555555555555XXX8w88X&&&&&&&XXXXX&&&XX                                     ",
"                                    X+X,,,:,,:,,55555555555,XXXXX8787w7888XXXXXX&&&++++XX                                       ",
"                                    XX+XX,:,,,,,,,,,,,,,XXXX8w88887885w88wXX++++O+ooXXXXXXXXX                                   ",
"                                     XXX+XXX,,,,,,,,:XXXwww877w8w7w8888w8w8XXXXXXXX&&&&&&&&&&XXX                                ",
"                                     XXoXXXXXXXXXXXXX558www8w8888w888858888X&&&&&&&&&&&&&&&&&&+OX                               ",
"                                      XX+o+XXXXXXX55555558887w88888w78ww887XX&&&&&&&&&&&&&&&&&&+&X                              ",
"                                        XXX++++X,,:,,55555578788w88887855555X&&&&&&&&&&&&&&&+++++&X                             ",
"                                           XX+X,,,,,,,555555558585w555555555X&&&&&&&&&&&&+&&&&&&&&X                             ",
"                                             X,:,,,,,,,555555555555555555555X&&&&&O&&&&&&&&&&&&&&&XX                            ",
"                                            X,,,,,,,,,5,55555555555555555555XX&&&&&&&&&&&&&&&&&&&&X                             ",
"                                            X,,,:,,,,,,:,55555555555555555555X&&&&&&&&&&&&&&&&&&&&X                             ",
"                                           XX,:,,,,,,,5,555555555555555555555X&&&&&&&&&&&&&&&&&&XXX                             ",
"                                           XX:,,,:,:,,,:,555555555555555,5555X&&&&&&&&&&&&&&&XXX&XX                             ",
"                                           XXX,,,::,,,5,5555555555555555:5555X&&&&&&&&&XXXXX&&&&XX                              ",
"                                           XXXX,,,,,::,,,555555555555555,55XX&&&&XXXXX&&&&&&XXXX                                ",
"                                            XXOXX,:,,,,,55555555555XXXXXXXXXXXXX&&&&&&XXXXXX                                    ",
"                                            XOXXOXXXXXXXXXXXXXXXXX&XXXXXXX&&&&&&XXXXXX                                          ",
"                                             X++XXXXXXXXXXXXXXXXXX&&&&&&&&XXXXXX                                                ",
"                                              XX+&&&XXXX&&&&&&&&&&&XXXXXX                                                       ",
"                                                XXXX&&&&&XXXXXXXXX                                                              ",
"                                                     XX                                                                         ",
"                                                                                                                                ",
"                                                                                                                                ",
"                                                                                                                                ",
"                                                                                                                                ",
"                                                                                                                                ",
"                                                                                                                                ",
"                                                                                                                                ",
"                                                                                                                                ",
"                                                                                                                                ",
"                                                                                                                                ",
"                                                                                                                                ",
"                                                                                                                                ",
"                                                                                                                                ",
"                                                                                                                                ",
"                                                                                                                                ",
"                                                                                                                                ",
"                                                                                                                                ",
"                                                                                                                                ",
"                                                                                                                                ",
"                                                                                                                                ",
"                                                                                                                                ",
"                                                                                                                                ",
"                                                                                                                                ",
"                                                                                                                                ",
"                                                                                                                                ",
"                                                                                                                                ",
"                                                                                                                                ",
"                                                                                                                                ",
"                                                                                                                                ",
"                                                                                                                                ",
"                                                                                                                                ",
"                                                                                                                                ",
"                                                                                                                                ",
"                                                                                                                                ",
"                                                                                                                                ",
"                                                                                                                                ",
"                                                                                                                                ",
"                                                                                                                                ",
"                                                                                                                                ",
"                                                                                                                                ",
"                                                                                                                                ",
"                                                                                                                                ",
"                                                                                                                                ",
"                                                                                                                                ",
"                                                                                                                                ",
"                                                                                                                                ",
"                                                                                                                                ",
"                                                                                                                                ",
"                                                                                                                                ",
"                                                                                                                                ",
"                                                                                                                                ",
"                                                                                                                                ",
"                                                                                                                                ",
"                                                                                                                                ",
"                                                                                                                                ",
"                                                                                                                                ",
"                                                                                                                                ",
"                                                                                                                                ",
"                                                                                                                                ",
"                                                                                                                                ",
"                                                                                                                                ",
"                                                                                                                                ",
"                                                                                                                                ",
"                                                                                                                                ",
"                                                                                                                                ",
"                                                                                                                                ",
"                                                                                                                                ",
"                                                                                                                                ",
"                                                                                                                                ",
"                                                                                                                                ",
"                                                                                                                                ",
"                                                                                                                                ",
"                                                                                                                                ",
"                                                                                                                                ",
"                                                                                                                                ",
"                                                                                                                                ",
"                                                                                                                                ",
"                                                                                                                                ",
"                                                                                                                                ",
"                                                                                                                                ",
"                                                                                                                                "
};
