/* XPM */
static char *c97a830034754bb89c45478ddf38a156mMJ2xA14DRn1DI4E[] = {
/* columns rows colors chars-per-pixel */
"128 128 34 1 ",
"  c None",
". c black",
"X c #010101",
"o c #5F3312",
"O c #5F3412",
"+ c #603412",
"@ c #603413",
"# c #603513",
"$ c #905000",
"% c #905100",
"& c #915100",
"* c #915101",
"= c #915201",
"- c #925201",
"; c #91765F",
": c #92765F",
"> c #927660",
", c #927760",
"< c #937760",
"1 c #CD813B",
"2 c #CD823B",
"3 c #CD823C",
"4 c #CE823C",
"5 c #CE833C",
"6 c #B9A08D",
"7 c #B9A18D",
"8 c #B9A18E",
"9 c #BAA18E",
"0 c #C3C0B7",
"q c #C3C0B8",
"w c #C3C1B8",
"e c #C4C1B8",
"r c #C4C1B9",
"t c #C4C2B9",
/* pixels */
"                                                                                                                                ",
"                                                                                                                                ",
"                                                                                                                                ",
"                                                                                                                                ",
"                                                                                                                                ",
"                                                                                                                                ",
"                                                                                                                                ",
"                                                                                                                                ",
"                                                                                                                                ",
"                                                                                                                                ",
"                                                                                                                                ",
"                                                                                                                                ",
"                                                                                                                                ",
"                                                                                                                                ",
"                                                                                                                                ",
"                                                                                                                                ",
"                                                                                                                                ",
"                                                                                                                                ",
"                                                                                                                                ",
"                                                                                                                                ",
"                                                                                                                                ",
"                                                                                                                                ",
"                                                             XXXX                                                               ",
"                                                         XXXw6twwX                                                              ",
"                                                    XXXt0w0wt>tw0tX       XXXXXXXX                                              ",
"                                                 XXtwwwt0wtttwtwtwXXXX*********@OO@XX                                           ",
"                                              XX6>twtwwwtwwwtw6ttwwX**********@O@@O@OX                                          ",
"                                            X666tw0wwttwttttwtt0ww0X***********@@@O@@@X                                         ",
"                                          X666666tt>>wwtt:w0wtw:ww0X**@****@**@@O@ooOOO                                         ",
"                                         X666666w>>w:tww6ttw00t6t0tw***@O**O@@*******@OX                                        ",
"                                        X>6666666w0t:t6wtttwtww6>twwX***42222244422****X                                        ",
"                                        >6666666ww:wwwttwwww0tw66wwtX2444222222*44224**                                         ",
"                                       X>66666666wwt60>wwwt060w66wwwX*242*2*444444422X*                                         ",
"                                       X66666666t>>wwww0t6w6ww6666tXXXX4**444*24**4XX*X                                         ",
"                                       XX66666666t>66t66>6>66t>6XXwwwtwX@**2*XXXX****X                                          ",
"                                       XXX666666w6>6w6666>>XXwwwwwwt6wtwXXX***O**@*O                                            ",
"                                       X*XXX66666>66666XXtwww6wwttww6w0wtX@*XXXXXX******XX                                      ",
"                                        X*XXXXXXXXXXXXw>0w6tw6twwwtwtwtwtX**********444***@X                                    ",
"                                         X***XXXXXX0t>w:tw>tw6tw60tww6wwtX*******44424****O@X                                   ",
"                                           X****XX0wtwww:066w66ttwtww6t60t*444242244444**O@@O                                   ",
"                                               X6tww00twwwww6wwtw>6666666wX422*24424*@o@OO@@oX                                  ",
"                                               6tw0tw>tttt>tt>wt0666666666X24@***@*@***O*@*@OX                                  ",
"                                              X660wttwtwtwwt>6tt6666666666X**@*@*O*@*O*******X                                  ",
"                                              66w6tww0w0w>wwwtw6666666666>X***********O@**@*XX                                  ",
"                                              X6666wt>wt0>tt6666666666666>X*O*******@****XX**                                   ",
"                                              X66666t6t6w666666666666>666>>@*@*****XXXX****X                                    ",
"                                              XX6666666666666666>>>>>:>>:XX***XXX*******XX                                      ",
"                                              XXOX66666666666>6>>XXXXXXXXXX*******XXXX                                          ",
"                                              X*XXXXXXXXXXXXXX**XXXX********XXXX                                                ",
"                                               X***XXXXXXXXX**********XXXX                                                      ",
"                                                 XX**********XXXXX                                                              ",
"                                                     XXXX                                                                       ",
"                                                                                                                                ",
"                                                                                                                                ",
"                                                                                                                                ",
"                                                                                                                                ",
"                                                                                                                                ",
"                                                                                                                                ",
"                                                                                                                                ",
"                                                                                                                                ",
"                                                                                                                                ",
"                                                                                                                                ",
"                                                                                                                                ",
"                                                                                                                                ",
"                                                                                                                                ",
"                                                                                                                                ",
"                                                                                                                                ",
"                                                                                                                                ",
"                                                                                                                                ",
"                                                                                                                                ",
"                                                                                                                                ",
"                                                                                                                                ",
"                                                                                                                                ",
"                                                                                                                                ",
"                                                                                                                                ",
"                                                                                                                                ",
"                                                                                                                                ",
"                                                                                                                                ",
"                                                                                                                                ",
"                                                                                                                                ",
"                                                                                                                                ",
"                                                                                                                                ",
"                                                                                                                                ",
"                                                                                                                                ",
"                                                                                                                                ",
"                                                                                                                                ",
"                                                                                                                                ",
"                                                                                                                                ",
"                                                                                                                                ",
"                                                                                                                                ",
"                                                                                                                                ",
"                                                                                                                                ",
"                                                                                                                                ",
"                                                                                                                                ",
"                                                                                                                                ",
"                                                                                                                                ",
"                                                                                                                                ",
"                                                                                                                                ",
"                                                                                                                                ",
"                                                                                                                                ",
"                                                                                                                                ",
"                                                                                                                                ",
"                                                                                                                                ",
"                                                                                                                                ",
"                                                                                                                                ",
"                                                                                                                                ",
"                                                                                                                                ",
"                                                                                                                                ",
"                                                                                                                                ",
"                                                                                                                                ",
"                                                                                                                                ",
"                                                                                                                                ",
"                                                                                                                                ",
"                                                                                                                                ",
"                                                                                                                                ",
"                                                                                                                                ",
"                                                                                                                                ",
"                                                                                                                                ",
"                                                                                                                                ",
"                                                                                                                                ",
"                                                                                                                                ",
"                                                                                                                                ",
"                                                                                                                                ",
"                                                                                                                                ",
"                                                                                                                                ",
"                                                                                                                                ",
"                                                                                                                                ",
"                                                                                                                                "
};
