/* XPM */
static char *a295a83b968148c8f9a0f81b9b6d01e4xaOp4EZXSKBGvT19[] = {
/* columns rows colors chars-per-pixel */
"50 50 2 1 ",
"  c white",
". c #FF4848",
/* pixels */
"                                                  ",
"                                                  ",
"                                                  ",
"                                                  ",
"                                                  ",
"                                                  ",
"                                                  ",
"                                                  ",
"                                                  ",
"                                                  ",
"                                                  ",
"         .........                                ",
"       ....   ......       ............           ",
"       ..         ....   .....      ....          ",
"      ..            ... ...           ...         ",
"      ..             .....             ..         ",
"      .               ...               .         ",
"      .                ..               .         ",
"      .                                 .         ",
"      .                                ..         ",
"      ..                               ..         ",
"      ..                              ..          ",
"       ..                            ...          ",
"       ...                           ..           ",
"        ..                         ...            ",
"         ..                       ...             ",
"         ..                      ...              ",
"          ..                    ...               ",
"           ..                   ..                ",
"           ...                 ..                 ",
"            ....              ..                  ",
"              ...            ..                   ",
"               ...          ..                    ",
"                ...         ..                    ",
"                 ...       ..                     ",
"                  ...     ...                     ",
"                   ...    ..                      ",
"                    ...   ..                      ",
"                     ... ..                       ",
"                      .. ..                       ",
"                       ...                        ",
"                        ..                        ",
"                                                  ",
"                                                  ",
"                                                  ",
"                                                  ",
"                                                  ",
"                                                  ",
"                                                  ",
"                                                  "
};
