/* XPM */
static char *f95333bfb25c4d14c147bb0420531e6aBLVCwLQUAO5t1zwG[] = {
/* columns rows colors chars-per-pixel */
"128 128 30 1 ",
"  c None",
". c black",
"X c #010101",
"o c #090909",
"O c #191919",
"+ c gray17",
"@ c gray19",
"# c #313131",
"$ c #323131",
"% c #323232",
"& c gray28",
"* c #484848",
"= c #606060",
"- c #616060",
"; c gray38",
": c gray49",
"> c #7E7D7D",
", c #7E7E7E",
"< c #939393",
"1 c #A0A0A0",
"2 c #A1A0A0",
"3 c gray63",
"4 c #A2A2A2",
"5 c gray75",
"6 c #C0EFB2",
"7 c #C0EFB3",
"8 c #C0C0C0",
"9 c gray77",
"0 c #C5C5C5",
"q c #C6C6C6",
/* pixels */
"                                                                                                                                ",
"                                                                                                                                ",
"                                                                          XXXXXX                                                ",
"                                                                         XXXXXXXX                                               ",
"                                                                         XX    XXX                                              ",
"                                                                         XX     X                                               ",
"                                                                         XX         XXXX                                        ",
"                                                                             XXXXX  XXXOX                                       ",
"                                                                            X00000X  X XXX                                      ",
"                                                                            X000000XXX  XXX                                     ",
"                                                                            X000000000X  XX                                     ",
"                                                                           X00000000000X  XX                                    ",
"                                                                           X000000000000X XX                                    ",
"                                                                           X0000000000000XXOX                                   ",
"                                                                           X<000000000000XXOX                                   ",
"                                                                           X00000000000000XXX                                   ",
"                                                     XXXXXXXXXXXXXXX        X0000000000000X                                     ",
"                                                XXXXXXXXXXXXXXXXXXXXXXXXXX  X0000000000000X                                     ",
"                                            XXXXXXXXXXX111111111111XXXXXXXXX<0000000000000X                                     ",
"                                         XXXXXXXX111111111111111111111111XXX,0000000000000X                                     ",
"                                       XXXXXX1111111111XXXXXXXXXXX11111111,,,0000000000000X                                     ",
"                                     XXXXX11111111XXXXXX##=#=#=#=XXXXXX111,,,,000<00000000X                                     ",
"                                   XXXXX1111111XXX#################=###XXXX,,,,,,<0000000X                                      ",
"                                  XXXX111111XXX#######=#=#=#=#=#=#=#=###=#XXX,,,,,0000000X                                      ",
"                                 XXXX11111XXX##############=#=#=#=#=####=###XXX,,,,,,X,,X                                       ",
"                                X1XX11111XX#####=#=#=#=#=#=#=#========##==####XX1,1,,XX,X                                       ",
"                                XXX11111X##############=#=#=#=========###=######X,,,,,XX,X                                      ",
"                               XXX11111X####=#=#=#=#=#=#===============####=#####X1,1,1XXX                                      ",
"                              X1X11111X##########=#=#====================#####=###X1,1,,X1X                                     ",
"                              X1X11111X#=#=#=#=#=#=========================####=##X1111,X1X                                     ",
"                              X1X1111X#######=#=#=================================#X11111XX                                     ",
"                              X1X1111X=#=#=#=#=============XXX===================##X81811XX                                     ",
"                              X1X11111X##=#=#==============XXX====================##1111X1XXX                                   ",
"                              X1X11111X#=#========================================X11111X1XoXX                                  ",
"                              X11X1111X=#=========================================X8881XX8X                                     ",
"                              XX1X11111X=========================================X85588X5XX                                     ",
"                              XX11X1111XX=======================================XX8858X55XX                                     ",
"                              X&X11X1111XX===XXXXX=============================XX8888X85X,X                                     ",
"                              X*&X11X11111X==X+++7============================XX8888X88X,,X                                     ",
"                              X***X11XX1111XXXX7XX==========================XX5855XX88X,,,X                                     ",
"                              X**&&XX11X11111XX===========================XX88588X58XX,,,,X                                     ",
"                              X&*&,,,XX1XXX1111XXXX===================XXXX5888XXX8XX111,,,X                                     ",
"                              X&&&&,,,,XX11XX111111XXXXXXX======XXXXXX858858XX88XX1111,,,,X                                     ",
"                              X*&&&,,,,,,XX151XXX1858555888XX88888855885XXXX88XX111111,,,,X                                     ",
"                               X&**,,,,,,,,,XXX58XXXXXX85888888585XXXXXX88XXXX11111111,,,X                                      ",
"                               X&&&*,,,,,,,,,,,XXXXX85888XXXXXXXX5558XXXXX11111111111,,,,X                                      ",
"                                X*&**,,,,,,,,,,,,,,,XXXXXXXXXXXXXXXX,1111111111111,1,,,,X                                       ",
"                                 X**,&,,,,,,,,,,,,,,,,,,,,,,,,,,,,1,1,1111111111111,1,,X                                        ",
"                                  X&&*,,,,,,,,,,,,,,,,,,,,,,,,,,,,,,,,,11111111111,,,,X                                         ",
"                                   XX&,,,,,,,,,,,,,,,,,,,,,,,,,,,,1,1,1,1,1,111,1,1,XX                                          ",
"                                     X&,*,,,,,,,,,,,,,,,,,,,,,,,,,,,,,,,,,,1,1,1,,,XX                                           ",
"                                      XX,,,,,,,,,,,,,,,,,,,,,,,,,,,,,,,,1,1,1,1,1XX                                             ",
"                                        XXX,,,,,,,,,,,,,,,,,,,,,,,,,,,,,,,,,,,XXX                                               ",
"                                           XXX,,,,,,,,,,,,,,,,,,,,,,,,,,,,,XXX                                                  ",
"                                              XXXX,,,,,,,,,,,,,,,,,,,,,XXXX                                                     ",
"                                                   XXXXXXXXXXXXXXXXXXXX                                                         ",
"                                                                                                                                ",
"                                                                                                                                ",
"                                                                                                                                ",
"                                                                                                                                ",
"                                                                                                                                ",
"                                                                                                                                ",
"                                                                                                                                ",
"                                                                                                                                ",
"                                                                                                                                ",
"                                                                                                                                ",
"                                                                                                                                ",
"                                                                                                                                ",
"                                                                                                                                ",
"                                                                                                                                ",
"                                                                                                                                ",
"                                                                                                                                ",
"                                                                                                                                ",
"                                                                                                                                ",
"                                                                                                                                ",
"                                                                                                                                ",
"                                                                                                                                ",
"                                                                                                                                ",
"                                                                                                                                ",
"                                                                                                                                ",
"                                                                                                                                ",
"                                                                                                                                ",
"                                                                                                                                ",
"                                                                                                                                ",
"                                                                                                                                ",
"                                                                                                                                ",
"                                                                                                                                ",
"                                                                                                                                ",
"                                                                                                                                ",
"                                                                                                                                ",
"                                                                                                                                ",
"                                                                                                                                ",
"                                                                                                                                ",
"                                                                                                                                ",
"                                                                                                                                ",
"                                                                                                                                ",
"                                                                                                                                ",
"                                                                                                                                ",
"                                                                                                                                ",
"                                                                                                                                ",
"                                                                                                                                ",
"                                                                                                                                ",
"                                                                                                                                ",
"                                                                                                                                ",
"                                                                                                                                ",
"                                                                                                                                ",
"                                                                                                                                ",
"                                                                                                                                ",
"                                                                                                                                ",
"                                                                                                                                ",
"                                                                                                                                ",
"                                                                                                                                ",
"                                                                                                                                ",
"                                                                                                                                ",
"                                                                                                                                ",
"                                                                                                                                ",
"                                                                                                                                ",
"                                                                                                                                ",
"                                                                                                                                ",
"                                                                                                                                ",
"                                                                                                                                ",
"                                                                                                                                ",
"                                                                                                                                ",
"                                                                                                                                ",
"                                                                                                                                ",
"                                                                                                                                ",
"                                                                                                                                ",
"                                                                                                                                "
};
