/* XPM */
static char *_d604496133a42fdbae1340bd46c9398sddt5yQvhyuIKNNd[] = {
/* columns rows colors chars-per-pixel */
"128 128 39 1 ",
"  c None",
". c black",
"X c #010101",
"o c #060606",
"O c #070707",
"+ c #0B0B0B",
"@ c #0C0C0C",
"# c gray5",
"$ c #0E0E0E",
"% c gray6",
"& c #151515",
"* c gray17",
"= c #313131",
"- c gray28",
"; c #484848",
": c #606060",
"> c #606160",
", c #616160",
"< c gray38",
"1 c gray49",
"2 c #7E7D7D",
"3 c #7E7E7E",
"4 c #929292",
"5 c #939292",
"6 c #939393",
"7 c #A0A0A0",
"8 c #A1A0A0",
"9 c gray63",
"0 c #A2A2A1",
"q c #A2A2A2",
"w c gray75",
"e c #C0EFB3",
"r c #C1EFB3",
"t c #C1F0B3",
"y c #C0C0C0",
"u c #C1C1C1",
"i c gray77",
"p c #C5C5C5",
"a c #C6C6C6",
/* pixels */
"                                                                                                                                ",
"                                                                                                                                ",
"                                                                                                                                ",
"                                                                                                                                ",
"                                                                                                                                ",
"                                                                                                                                ",
"                                                                                                                                ",
"                                                                                                                                ",
"                                                                                                                                ",
"                                                                                                                                ",
"                                                                                                                                ",
"                                                                                                                                ",
"                                                                                                                                ",
"                                                                                                                                ",
"                                                                                                                                ",
"                                                                                                                                ",
"                                                                                                                                ",
"                                                                                                                                ",
"                                                                                                                                ",
"                                                           ................                                                     ",
"                                                      ..y...1...................                                                ",
"                                                   .y.....wywyyyywyyyyyyyww........                                             ",
"                                                ......yyyyywyyywyywyyyyyyyyyyyyy...9.                                           ",
"                                              .y...yyywywyy...............ywyywyy9y.....                                        ",
"                                            .y..wyywwyy...:::::::::::::::::...wy99999..9.                                       ",
"                                           .y..wywyyy..::::::::::::::::::::::::..9y9999..9.                                     ",
"                                          ...wyyyyy.:::.:::::::::::::::::::::::::..99999..9.                                    ",
"                                         ...y9yyy..::.t*r.:::::::::::::::::::::::::.99999-.9.                                   ",
"                                        .y.yyyyy.::::.rrt.::::::::::::::::::::::::::..99999.9                                   ",
"                                       .y.yyyyy.::::::::::::::::::::::::=::::::::::::..9999.9.                                  ",
"                                       .9yyyyw.:::::::::::::::::::::::::::::::::::::::.99999.9                                  ",
"                                       w.wyyww:::::::::::::::::::::::::::::::::::::...=.9999.9.                                 ",
"                                       y.wyyyy:::::::::::::::::::::::::::::::::::.99999..99999.                                 ",
"                                      .y.yywyy:::::::::::::::::::...::::::::::..999999999..9.9.                                 ",
"                                       9y9ywyy::::::::::::::::::::.::::::::=:.999999999......9.                                 ",
"                                       yw.wyy9.:::::::::::::::::::::::::::::.999999999.&..1..9.                                 ",
"                                       .y.yyyy.:::::::::::::::=::::::::::::.9999999.....pp1199.                                 ",
"                                       1yy.yyww.::::::::::::::::::::::::::.199999...%..pp%119..                                 ",
"                                       9.yw.ywyy.:::::::::::::::::::::::::.99999.p.pp.ppp%-.91.                                 ",
"                                       19.yy.yyyy.::::::::::::::::::::::::.1119.ppp4p.ppp..111.                                 ",
"                                       199.wy.9yyyy.::::::::::::::::::::::.11..44pp%..4p..1111.                                 ",
"                                       19999.ww.yywyw.::::::::::::::::::::111..44pp..-;.111111.                                 ",
"                                       199999..yw.yyyyy..::::::::::::::::.111.;.44p.;..1..1111.                                 ",
"                                       19999999..wy..wwwyyy.....:::::...99.11.-;-;..11-++%.11..                                 ",
"                                       .9999999999..1y...yyyyyywyw99999y9y9.1-;..11..%.%%%%%%.                                  ",
"                                        9999999999999..yy1y......9w9.......;.11111o+%%..1.....                                  ",
"                                        .9999999999999999.....1999999999....11111-o%%11111111                                   ",
"                                         .999999999999999999911111111111111111111.+%11111111.                                   ",
"                                          .9999999999999999911111111111111111111-%+.1111111                                     ",
"                                           .99999999999991911111111111111111111;.+.111111.                                      ",
"                                             .99991999999919111111111111111111-.+.111111.                                       ",
"                                              ..99999999919111111111111111111.%%.11111.                                         ",
"                                                ..9999991911111111111111111111111111.                                           ",
"                                                   ..1919191111111111111111111111..                                             ",
"                                                      ...11111111111111111111..                                                 ",
"                                                            ..............                                                      ",
"                                                                                                                                ",
"                                                                                                                                ",
"                                                                                                                                ",
"                                                                                                                                ",
"                                                                                                                                ",
"                                                                                                                                ",
"                                                                                                                                ",
"                                                                                                                                ",
"                                                                                                                                ",
"                                                                                                                                ",
"                                                                                                                                ",
"                                                                                                                                ",
"                                                                                                                                ",
"                                                                                                                                ",
"                                                                                                                                ",
"                                                                                                                                ",
"                                                                                                                                ",
"                                                                                                                                ",
"                                                                                                                                ",
"                                                                                                                                ",
"                                                                                                                                ",
"                                                                                                                                ",
"                                                                                                                                ",
"                                                                                                                                ",
"                                                                                                                                ",
"                                                                                                                                ",
"                                                                                                                                ",
"                                                                                                                                ",
"                                                                                                                                ",
"                                                                                                                                ",
"                                                                                                                                ",
"                                                                                                                                ",
"                                                                                                                                ",
"                                                                                                                                ",
"                                                                                                                                ",
"                                                                                                                                ",
"                                                                                                                                ",
"                                                                                                                                ",
"                                                                                                                                ",
"                                                                                                                                ",
"                                                                                                                                ",
"                                                                                                                                ",
"                                                                                                                                ",
"                                                                                                                                ",
"                                                                                                                                ",
"                                                                                                                                ",
"                                                                                                                                ",
"                                                                                                                                ",
"                                                                                                                                ",
"                                                                                                                                ",
"                                                                                                                                ",
"                                                                                                                                ",
"                                                                                                                                ",
"                                                                                                                                ",
"                                                                                                                                ",
"                                                                                                                                ",
"                                                                                                                                ",
"                                                                                                                                ",
"                                                                                                                                ",
"                                                                                                                                ",
"                                                                                                                                ",
"                                                                                                                                ",
"                                                                                                                                ",
"                                                                                                                                ",
"                                                                                                                                ",
"                                                                                                                                ",
"                                                                                                                                ",
"                                                                                                                                ",
"                                                                                                                                ",
"                                                                                                                                ",
"                                                                                                                                ",
"                                                                                                                                "
};
