/* XPM */
static char *_2b674971be743eef01e1fea51f233e8HSNcthXE6Gr3Ylgd[] = {
/* columns rows colors chars-per-pixel */
"128 128 31 1 ",
"  c None",
". c black",
"X c #010101",
"o c #191919",
"O c #2B2A2A",
"+ c gray17",
"@ c gray19",
"# c #313131",
"$ c #323232",
"% c gray28",
"& c #484747",
"* c #484848",
"= c #606060",
"- c #616060",
"; c gray38",
": c gray49",
"> c #7E7D7D",
", c #7E7E7E",
"< c #939393",
"1 c #A0A0A0",
"2 c #A1A0A0",
"3 c gray63",
"4 c #A2A2A2",
"5 c gray75",
"6 c #C0EEB2",
"7 c #C0EFB3",
"8 c #C1EFB3",
"9 c #C0C0C0",
"0 c gray77",
"q c #C5C5C5",
"w c #C6C6C6",
/* pixels */
"                                                                                                                                ",
"                                               XXXX                                                                             ",
"                                             XXXXXXX                                                                            ",
"                                            XoX   XX                                                                            ",
"                                            XX    XXX                                                                           ",
"                                       XX         XXX                                                                           ",
"                                     XXoXX  XXXX                                                                                ",
"                                    XXXXX  XqqqXX                                                                               ",
"                                   XXX   XXqqqqqX                                                                               ",
"                                  XXX  XXqXqqqqqqX                                                                              ",
"                                  XX XXqqqqqqqqqqX                                                                              ",
"                                 XX XXqqqqqqqqqqqX                                                                              ",
"                                 XX XqqqqqqqqqqqqX                                                                              ",
"                                 XXXqqqqqqqqqqqqqX                                                                              ",
"                                 XXXqqqqqqqqqqqqqX                                                                              ",
"                                 X XqqqqqqqqqqqqqX       XXXXXXXXXXXXX                                                          ",
"                                  XqqqqqqqqqqqqqqX XXXXXX33333333333333XXXXX                                                    ",
"                                  XqqqqqqqqqqqqqXXX33XXXXXXXXXXXXXXXXXXXXX333XXX                                                ",
"                                  XqqqqqqqqqqqqqqXXXXXXXXX33333333333XXXXXXXXX33XXX                                             ",
"                                  XqqqqqqqqqqqqqXXXX33333333333333333333333XXXXXX33XX                                           ",
"                                   Xqqqqqqqqqqqq3333333333XXXXXXXXXXX3333333333XXXX33XX                                         ",
"                                   Xqqqqqqqqq,3333333XXXXXX#=#=#=#=XXXXXXX33333333XXX33XX                                       ",
"                                   X<qqqqqqq,33333XXXX#############=#=#=#=XXX3333333XXX3XX                                      ",
"                                    XqqXqq,,333XXX####=#=#=#=#=#=#=#=#=#=#===XXX333333XX33X                                     ",
"                                   X,,XX,,3333XX###########=#=#=#=#=#=#========XXX33333XX33X                                    ",
"                                  X,,XX,,333XX##=#=#=#=#=#=#=#===================XX33333XX33X                                   ",
"                                  X,XX,3333XX##########=#=#=#======================X33333XX33X                                  ",
"                                 X,XX33333X#=#=#=#=#=#=#============================X33333XX3X                                  ",
"                                 X3X33333XX######=#=#================================X33333X33X                                 ",
"                                X33X33333X=#=#=#=#===================================X33333X33X                                 ",
"                                X33X3333X####=#=#=====================================X33333X3X                                 ",
"                                XXX33333X#=#=#================XXX=====================X39353X3X                                 ",
"                                XXX33333X=#=#================XOOOX====================X33933XXX                                 ",
"                                XXX33333X#====================XXX=====================X99933XX                                  ",
"                                 X3X3333X=============================================X95933XX                                  ",
"                                 XXX33333X===========================================XX9539XXX                                  ",
"                                 XX3X3333X===========================================X9535X9XX                                  ",
"                                 X%XXX3333X================================XX=======X9959XXX,X                                  ",
"                                 X%*XXX3333XX============================XXO6X=====X9999XXX,,X                                  ",
"                                 X**,XXX3333XX===========================X6O66X==XX9999XXX3,,X                                  ",
"                                 X%***XXXX3333XX==========================XXXX=XX95999XXX,,,,X                                  ",
"                                 X**,%,,XXX33333XX===========================XX59999XXX33,,,,X                                  ",
"                                 X%*%*,,,,XXXX33333XXX===================XXXX99999XXXX333,,,,X                                  ",
"                                 X%&%*,,,,,,XXXX939595XXXXXXX=====XXXXXXX959995XXXX333333,,,,X                                  ",
"                                  X%%*%,,,,,,,XXXXXX99995999999595599959999XXXXXX3333333,,,,X                                   ",
"                                  X*%*,%,,,,,,,,,,XXXXXXXXX3535995559XXXXXXXX3333333333,3,,,X                                   ",
"                                   X**%,%,,,,,,,,,,,,,,XXXXXXXXXXXXXXXXX33333333333333,,,,,X                                    ",
"                                    X%,%,,,,,,,,,,,,,,,,,,,,,,,,,,,,3,333333333333333,3,3,X                                     ",
"                                     X%%%,,,,,,,,,,,,,,,,,,,,,,,,,,,,,,3,3,3333333333,,,,X                                      ",
"                                      XX,%,,,,,,,,,,,,,,,,,,,,,,,,,,,,3,3,33333333333,,,X                                       ",
"                                        X,%,,,,,,,,,,,,,,,,,,,,,,,,,,,,,,,,3,3,3,3,3,,XX                                        ",
"                                         XX%,,,,,,,,,,,,,,,,,,,,,,,,,,,,3,3,3,3,3,3,XX                                          ",
"                                           XXX,,,,,,,,,,,,,,,,,,,,,,,,,,,,,,,,,,,,XX                                            ",
"                                              XXX,,,,,,,,,,,,,,,,,,,,,,,,,,,3,3XX                                               ",
"                                                 XXXX,,,,,,,,,,,,,,,,,,,,,,XXX                                                  ",
"                                                     XXXXXXXXX,,XXXXXXXXXX                                                      ",
"                                                                                                                                ",
"                                                                                                                                ",
"                                                                                                                                ",
"                                                                                                                                ",
"                                                                                                                                ",
"                                                                                                                                ",
"                                                                                                                                ",
"                                                                                                                                ",
"                                                                                                                                ",
"                                                                                                                                ",
"                                                                                                                                ",
"                                                                                                                                ",
"                                                                                                                                ",
"                                                                                                                                ",
"                                                                                                                                ",
"                                                                                                                                ",
"                                                                                                                                ",
"                                                                                                                                ",
"                                                                                                                                ",
"                                                                                                                                ",
"                                                                                                                                ",
"                                                                                                                                ",
"                                                                                                                                ",
"                                                                                                                                ",
"                                                                                                                                ",
"                                                                                                                                ",
"                                                                                                                                ",
"                                                                                                                                ",
"                                                                                                                                ",
"                                                                                                                                ",
"                                                                                                                                ",
"                                                                                                                                ",
"                                                                                                                                ",
"                                                                                                                                ",
"                                                                                                                                ",
"                                                                                                                                ",
"                                                                                                                                ",
"                                                                                                                                ",
"                                                                                                                                ",
"                                                                                                                                ",
"                                                                                                                                ",
"                                                                                                                                ",
"                                                                                                                                ",
"                                                                                                                                ",
"                                                                                                                                ",
"                                                                                                                                ",
"                                                                                                                                ",
"                                                                                                                                ",
"                                                                                                                                ",
"                                                                                                                                ",
"                                                                                                                                ",
"                                                                                                                                ",
"                                                                                                                                ",
"                                                                                                                                ",
"                                                                                                                                ",
"                                                                                                                                ",
"                                                                                                                                ",
"                                                                                                                                ",
"                                                                                                                                ",
"                                                                                                                                ",
"                                                                                                                                ",
"                                                                                                                                ",
"                                                                                                                                ",
"                                                                                                                                ",
"                                                                                                                                ",
"                                                                                                                                ",
"                                                                                                                                ",
"                                                                                                                                ",
"                                                                                                                                ",
"                                                                                                                                ",
"                                                                                                                                ",
"                                                                                                                                "
};
