/* XPM */
static char *_833128a0e4d4dbb9dcdd58c6401bd69DRNR1WmzxEiSqDQo[] = {
/* columns rows colors chars-per-pixel */
"128 128 39 1 ",
"  c None",
". c black",
"X c #010101",
"o c gray2",
"O c #090909",
"+ c #0B0B0B",
"@ c #0C0C0C",
"# c gray5",
"$ c #0E0E0E",
"% c gray6",
"& c #101010",
"* c #111111",
"= c gray7",
"- c #131313",
"; c #181818",
": c #191919",
"> c #2A2A2A",
", c gray17",
"< c gray28",
"1 c #484747",
"2 c #484848",
"3 c #606060",
"4 c #616060",
"5 c gray38",
"6 c gray49",
"7 c #7E7D7D",
"8 c #7E7E7E",
"9 c #929292",
"0 c #939393",
"q c #A0A0A0",
"w c gray63",
"e c #A2A2A2",
"r c gray75",
"t c #C0EFB2",
"y c #C0C0C0",
"u c gray77",
"i c #C5C4C4",
"p c #C5C5C5",
"a c #C6C6C6",
/* pixels */
"                                                                                                                                ",
"                                                                                                                                ",
"                                                                                                                                ",
"                                                                                                                                ",
"                                                                                                                                ",
"                                                                                                                                ",
"                                                                                                                                ",
"                                                       .................                                                        ",
"                                                  ....yyyy...........rryy.....                                                  ",
"                                              ....ry........................ry...                                               ",
"                                            ..wy........yryyryyyyyyyyryy.......yr...                                            ",
"                                         ...yy.....yyyyryyyyyyyrrrrryyyryyryr.....ry..                                          ",
"                                        ..r....yyryyyyyy...............yyryyyyyy....rr..                                        ",
"                                      ..r....yryyyyy.....5555555555555.....yryyyyy....yr.                                       ",
"                                  ....wr...yyyyyy...55555555555555555555555...yyyyyyy..ry..                                     ",
"                                 ........yyyrrr...5555555555555555555555555555...ryyyy...y..                                    ",
"                                ... ....yrrry..55555555555555555555555555555..55..yyyyry..y..                                   ",
"                                .. .y...yryy..5555555555555555555555555555..,,..55..yryry..y.                                   ",
"                                .. ....yyyy.555555555555555555555555555555.t,tt.555..ryryy.yy.                                  ",
"                                . ......yy.....5555555555555555555555555555....55555..yyyy..y.                                  ",
"                                  r..ppp..5.....5555555555555555555555555555555555555.ryryy.yy.                                 ",
"                                 .y.ppppp.5555...5555555555555555555555555555555555555.yyyyy.y.                                 ",
"                                 ..pppppp.....5...555555555555555555555555555555555555.ryryy.y.                                 ",
"                                 ..pppppppppp..5..555555555555....55555555555555555555.yyyyy...                                 ",
"                                 .pp.ppppppppp.55..5555555555.,,,.555555555555555555555.ryyy...                                 ",
"                                 .p..pppppppppp.5..55555555555...555555555555555555555.yyyry..                                  ",
"                                 .....ppppppppp.5..55555555555555555555555555555555555.ryyyr..                                  ",
"                                 ...;.ppp..pppp.5..5555555555555555555555555555555555.yryyy...                                  ",
"                                 ..;..pp...ppp0p.5.5555555555555555555555555555555555.ryyy.y..                                  ",
"                                 ..;..pp...pppp0.55555555555555555555555555555555555.yrry...2.                                  ",
"                                 ..;..pp.;.pppp0.555555555555555555555555555555555..yyry.y.<<.                                  ",
"                                 ....ppp.;.pppp0.55555555555555555555555555555555.yyyyy...<<<.                                  ",
"                                 .6..ppp...pppp0.555555555555555555555555555555..yyry....<2<<.                                  ",
"                                 .66.ppp...pppp0....555555555555555555555555..ryyyy....<2<22<.                                  ",
"                                 .666..pp..pppp0.yyy....5555555555555555....rryyy....222<2222.                                  ",
"                                  .6..+p...pppp...yryyyy...............yyryrry.....<<2<2<22<<.                                  ",
"                               .. ..==%%...ppp00......yrryyryyrryyryyyrryr......<22<<22<<<2<.                                   ",
"                               .=..=====%%%.p..wwww.........................<2<22<<22<2<22<2.                                   ",
"                                ..=......==%owwwww66666666............2<2<<22<1<2222<22<<2<.                                    ",
"                                    ..www.==%.www6w66666666666622<2<<<22<2<222<2<<2222<<2<.                                     ",
"                                     ..www.=%+.w6w666666666666622<<<<<<<<<<2<<<<22<2<2<2<.                                      ",
"                                       .www.=%.ww6w6666666666662<2222<2<<<<<222<22<22<2..                                       ",
"                                        ..ww.%+.6w66666666666662<222<<2<<2<22222<<<22..                                         ",
"                                          ..w.%.<6w666666666666<<22<<<<<<2<<22<2<22..                                           ",
"                                            ...%.22666666666666<2<<222<22<<<<<222..                                             ",
"                                               .%..22<26666666622<<<<22<<222<....                                               ",
"                                                .......66666666<22222<<<.....                                                   ",
"                                                        ................                                                        ",
"                                                                                                                                ",
"                                                                                                                                ",
"                                                                                                                                ",
"                                                                                                                                ",
"                                                                                                                                ",
"                                                                                                                                ",
"                                                                                                                                ",
"                                                                                                                                ",
"                                                                                                                                ",
"                                                                                                                                ",
"                                                                                                                                ",
"                                                                                                                                ",
"                                                                                                                                ",
"                                                                                                                                ",
"                                                                                                                                ",
"                                                                                                                                ",
"                                                                                                                                ",
"                                                                                                                                ",
"                                                                                                                                ",
"                                                                                                                                ",
"                                                                                                                                ",
"                                                                                                                                ",
"                                                                                                                                ",
"                                                                                                                                ",
"                                                                                                                                ",
"                                                                                                                                ",
"                                                                                                                                ",
"                                                                                                                                ",
"                                                                                                                                ",
"                                                                                                                                ",
"                                                                                                                                ",
"                                                                                                                                ",
"                                                                                                                                ",
"                                                                                                                                ",
"                                                                                                                                ",
"                                                                                                                                ",
"                                                                                                                                ",
"                                                                                                                                ",
"                                                                                                                                ",
"                                                                                                                                ",
"                                                                                                                                ",
"                                                                                                                                ",
"                                                                                                                                ",
"                                                                                                                                ",
"                                                                                                                                ",
"                                                                                                                                ",
"                                                                                                                                ",
"                                                                                                                                ",
"                                                                                                                                ",
"                                                                                                                                ",
"                                                                                                                                ",
"                                                                                                                                ",
"                                                                                                                                ",
"                                                                                                                                ",
"                                                                                                                                ",
"                                                                                                                                ",
"                                                                                                                                ",
"                                                                                                                                ",
"                                                                                                                                ",
"                                                                                                                                ",
"                                                                                                                                ",
"                                                                                                                                ",
"                                                                                                                                ",
"                                                                                                                                ",
"                                                                                                                                ",
"                                                                                                                                ",
"                                                                                                                                ",
"                                                                                                                                ",
"                                                                                                                                ",
"                                                                                                                                ",
"                                                                                                                                ",
"                                                                                                                                ",
"                                                                                                                                ",
"                                                                                                                                ",
"                                                                                                                                ",
"                                                                                                                                ",
"                                                                                                                                ",
"                                                                                                                                ",
"                                                                                                                                ",
"                                                                                                                                "
};
