/* XPM */
static char *_d601dff13224198b38f4506967b3585OjBPxBtZYzGi9rL4[] = {
/* columns rows colors chars-per-pixel */
"128 128 27 1 ",
"  c None",
". c black",
"X c #010101",
"o c gray17",
"O c gray19",
"+ c #313131",
"@ c #323232",
"# c gray28",
"$ c #484848",
"% c #606060",
"& c #606160",
"* c #616160",
"= c gray38",
"- c gray49",
"; c #7E7D7D",
": c #7E7E7E",
"> c #A0A0A0",
", c #A1A0A0",
"< c gray63",
"1 c #A2A1A1",
"2 c #A2A2A2",
"3 c gray75",
"4 c #C0BFBF",
"5 c #C0EFB3",
"6 c #C1EFB3",
"7 c #C0C0C0",
"8 c #C1C1C1",
/* pixels */
"                                                                                                                                ",
"                                                                                                                                ",
"                                                                                                                                ",
"                                                                                                                                ",
"                                                                                                                                ",
"                                                                                                                                ",
"                                                                                                                                ",
"                                                                                                                                ",
"                                                                                                                                ",
"                                                                                                                                ",
"                                                                                                                                ",
"                                                                                                                                ",
"                                                                                                                                ",
"                                                                                                                                ",
"                                                                                                                                ",
"                                                    XX                                                                          ",
"                                                   XX7<X                                                                        ",
"                                                 XX73777<XX                                                                     ",
"                                               XXX7377373<<X                                                                    ",
"                                            XXX777733773XXX<                                                                    ",
"                                             X<7777777X----XX                                                                   ",
"                                             <<<<<73X-------- XXXXXXXXXXXXXX                                                    ",
"                                            X-<<<<<X---------X73XXXXXXXXXX7777XXX                                               ",
"                                            X<<<<<<#---------XXXXXXXXXXXXXXX-XXX7<7XX                                           ",
"                                           X<<<<<<X----------X<<<77777377777773XX$XX<<X                                         ",
"                                           X<XXX<<X$---------X<<<7377373-377377<3<7XXX<<XX                                      ",
"                                           X<<<<<<$----------XXXXX%%%%%%XXXXXX<3<<<<<XXX<<X                                     ",
"                                           X<<<<<<-$--$--XXX+%%%%%%%%%%%%%%%%%XXX<<<<<<<XX<<X                                   ",
"                                           <<<<<-X$----X++++++%%%%%%%%%%%%%%%%%%%%XX<<<<<XXX-X                                  ",
"                                           <<<<<<X-##X++++++%%%%%%%%%%%%+%%%%%%%%%%%X<<<<<<XX<X                                 ",
"                                          X-XXX<<X#X+++++++%%%%%%%%%%%%%%%%%%%%%%%%%%%X<<<<<XX<X                                ",
"                                          77X--#-XX++++++++%%%%%%%%%%%%%%%%%%%%%%%%%%%%X<<<<<X<#                                ",
"                                         X7X-----X+++++++%%%%%%%%%%%%%%%%%%%%%%%%%%%%%%%X<<<<<X<X                               ",
"                                         77X7---X+++++%%%%%%%%%%%%%%%%%%%%%%%%%%%%%%%%%%%X<<<<X<<                               ",
"                                        X7X37773X+++%%%%%%%%%%%%%%%%%%%%%%%%%%%%%%%%+%%%%X<<<<<<<                               ",
"                                        X3X<7377%%%%%%%%%%%%%%%%%%%%%%%%%%%%%%%%%%%%%%%%%%<<<<<X<                               ",
"                                        X7X<777X%%%%%%%%%%%%%%%%%%%XooX%%%%%%%%%%%%%%%%%%%<<<<<X<                               ",
"                                         7X<733X%%%%%%%%%%%%%%%%%%%XXXX%%%%%%%%%%%%%%%+%%%X<<<<XX                               ",
"                                         X3<7377%%%%%%%%%%%%%%%%%%%%%%%%%%%%%%%%%%%%%%%%%%<<<<<<X                               ",
"                                         <<X<777X%%%%%%%%%%%%%%%%%%%%%%%%%%%%%%%%%%%%%%%%X<<<<X<-                               ",
"                                         <X37<777X%%%%%%%%%%%%%%%%%%%%%%%%%%%%%%%%%%%%%%X<<<<X-X$                               ",
"                                         <<X733777X%%%%%%%%%%%%%%%%%%%%%%%%%%%%XX%%%%%%X<<<<<XX--                               ",
"                                         <<<X4<<337X%%%%%%%%%%%%%%%%%%%%%%%%%%Xoo6X%%%X<<<<<<X--#                               ",
"                                         <<<<X-X7373X%%%%%%%%%%%%%%%%%%%%%%%%%X66XX%%X<<<<X<X----                               ",
"                                         <<<<73XX77377XX%%%%%%%%%%%%%%%%%%%%%%%%%%XX<<<<<XX-----#                               ",
"                                         X<<<<7<X7X<7377XX%%%%%%%%%%%%%%%%%%%%%%XX<<<<<X<X------X                               ",
"                                         X<<<<<<<<XXXX777777XXX%%%%%%%%%%%%XXX<<<<<<XXXX--------X                               ",
"                                         X<<<<<<<<<<<XXXX<<777777<3XXXX<<<<<<<<<<XXXX-----------X                               ",
"                                          X<<<<<<<<<<<<<XXXXXXX3<<<<<<<<<<<XXXXXXX-------------X                                ",
"                                           <<<<<<<<<<<<<<<<<<XXXXXXXXXXXXXXXX------------------                                 ",
"                                           X<<<<<<<<<<<<<<<<----------------------------------X                                 ",
"                                            X<<<<<<<<<<<<<<-<-<------------------------------                                   ",
"                                              X<<<<<<<<<<<---------------------------------X                                    ",
"                                               X<<<<<<<<<-<-<-----------------------------X                                     ",
"                                                 X<<<<<<<-------------------------------X                                       ",
"                                                   XX<<<<-<--------------------------XX                                         ",
"                                                      XX<-------------------------XX                                            ",
"                                                         XXXX----------------XXX                                                ",
"                                                                XXXXXXXXXX                                                      ",
"                                                                                                                                ",
"                                                                                                                                ",
"                                                                                                                                ",
"                                                                                                                                ",
"                                                                                                                                ",
"                                                                                                                                ",
"                                                                                                                                ",
"                                                                                                                                ",
"                                                                                                                                ",
"                                                                                                                                ",
"                                                                                                                                ",
"                                                                                                                                ",
"                                                                                                                                ",
"                                                                                                                                ",
"                                                                                                                                ",
"                                                                                                                                ",
"                                                                                                                                ",
"                                                                                                                                ",
"                                                                                                                                ",
"                                                                                                                                ",
"                                                                                                                                ",
"                                                                                                                                ",
"                                                                                                                                ",
"                                                                                                                                ",
"                                                                                                                                ",
"                                                                                                                                ",
"                                                                                                                                ",
"                                                                                                                                ",
"                                                                                                                                ",
"                                                                                                                                ",
"                                                                                                                                ",
"                                                                                                                                ",
"                                                                                                                                ",
"                                                                                                                                ",
"                                                                                                                                ",
"                                                                                                                                ",
"                                                                                                                                ",
"                                                                                                                                ",
"                                                                                                                                ",
"                                                                                                                                ",
"                                                                                                                                ",
"                                                                                                                                ",
"                                                                                                                                ",
"                                                                                                                                ",
"                                                                                                                                ",
"                                                                                                                                ",
"                                                                                                                                ",
"                                                                                                                                ",
"                                                                                                                                ",
"                                                                                                                                ",
"                                                                                                                                ",
"                                                                                                                                ",
"                                                                                                                                ",
"                                                                                                                                ",
"                                                                                                                                ",
"                                                                                                                                ",
"                                                                                                                                ",
"                                                                                                                                ",
"                                                                                                                                ",
"                                                                                                                                ",
"                                                                                                                                ",
"                                                                                                                                ",
"                                                                                                                                ",
"                                                                                                                                ",
"                                                                                                                                ",
"                                                                                                                                ",
"                                                                                                                                ",
"                                                                                                                                ",
"                                                                                                                                "
};
