/* XPM */
static char *_a47591567f147539bf5a15619f0fbb6CvfUKHDYZEnfePkZ[] = {
/* columns rows colors chars-per-pixel */
"50 50 74 1 ",
"  c #0B156C",
". c #0E186F",
"X c #101A71",
"o c #121C73",
"O c #131D74",
"+ c #141E75",
"@ c #151F76",
"# c #162077",
"$ c #172178",
"% c #182279",
"& c #19237A",
"* c #1A247B",
"= c #1B257C",
"- c #1C267D",
"; c #1D277E",
": c #1E287F",
"> c #1F2980",
", c #202A81",
"< c #212B82",
"1 c #222C83",
"2 c #232D84",
"3 c #242E85",
"4 c #252F86",
"5 c #263087",
"6 c #273188",
"7 c #283289",
"8 c #29338A",
"9 c #2A348B",
"0 c #2B358C",
"q c #2C368D",
"w c #2D378E",
"e c #2E388F",
"r c #2F3990",
"t c #303A91",
"y c #313B92",
"u c #323C93",
"i c #333D94",
"p c #343E95",
"a c #353F96",
"s c #364097",
"d c #374198",
"f c #384299",
"g c #39439A",
"h c #3A449B",
"j c #3B459C",
"k c #3C469D",
"l c #3D479E",
"z c #3E489F",
"x c #3F49A0",
"c c #404AA1",
"v c #414BA2",
"b c #424CA3",
"n c #434DA4",
"m c #444EA5",
"M c #454FA6",
"N c #4650A7",
"B c #4751A8",
"V c #4852A9",
"C c #4953AA",
"Z c #4A54AB",
"A c #4B55AC",
"S c #4C56AD",
"D c #4D57AE",
"F c #4E58AF",
"G c #4F59B0",
"H c #505AB1",
"J c #515BB2",
"K c #525CB3",
"L c #535DB4",
"P c #555FB6",
"I c #5660B7",
"U c #5761B8",
"Y c #5862B9",
"T c #5B65BC",
/* pixels */
"CmvCASmbvbbmCSABmmmmmmmmnmNNNNNBkCvBGmbmmmmmNNmmmm",
"hmFZksxSAACmxzkkmmmmmmmmmmmmmmmNvZmmmkbSmmmmmmmmmm",
"GvhjFLGnzvnmbmZHmmmmNNmmBNmmmmmmZvkbCZNCmmmmmmmmmm",
"nNGxvsvxSAAABbbmmmmmNmmmCNmmNBNNCkCAnvhvmmmmmmmmmm",
"mmFyu;3=vkzNCnbmmmmmmmmmBmmmCCNnmfIS050mmmmmmmmmmm",
"Hvv3bps%320hvvNHmmmmmmmmBmmNCNvhA;yy9khNmmmmmmmmmm",
"jnTuveGSkjzxi6rvmmmmNmmmBmmmmvpqS 1rfUCNmmmmmmmmNN",
"AzN:vdHkmNZNy2pHmmmmmmmmCmmmnhq,n*SKfmhCmmmmmNNmmm",
"mmmmNNmmCmvNANf9=6dnCCCCzCk,=90;mmNmmmNNmmmNmmmmmm",
"mmmmmmmmNbxnCCnjX+=;=$+O+>>$:pzfmmNmmmmmmmmmmmmmmm",
"mmmmmmmmNnvbNCZCCAAZBNNBnmbkkbmmmmmmmmmmmmmmmmmmmm",
"mmmmmmmmCCBmnmBCvvbbnmBCSCBZZBBZmmmmmmmmmmmmmmmmmm",
"mmmmmmmmNCCBmbnmCBBBBNmmbkzmNvvNNNmmmNmmmmmmmmmmmm",
"mmmmmmmmvnNBNmmmmnmmBNnvHSASCnvvmmmmmmmmmmNNmmmmmm",
"mmmmmmmmnnmmNBNmnbvmBCCNkxvvmCZCmmmmmmmmmmNmmmmmmm",
"mmmmmNNmZBmnmNmnSBbvbnbvNAZnbBNvmmmmmmmmmmmmmmmmmN",
"mmmmmmmmZNbnBCNnvmBBNmBZZbvCSNNAmmmmmmmmkvmBBNnvmm",
"mmmmmmmmmmmmnnmmHFZCNmnbmNNnvvmBmmmmmmmmSCnbmNBNmm",
"mmmmmmmmvmCNvvnBBkphCGCvACvxNFZxmmmmmNNmZmvvnmmmNm",
"mmmNmmmmbmBNmbmNpZYC8%2skkbZSCNBNmmmmNmmzvNCCNmnmm",
"mNmmmmmmBmmmBBmvHh9umN0.10bKNuhKmmmmmmmmvNSZmvnBmm",
"NNmmmmmmCmnmBBvj2imCbknSp89xAmvmmmmmmmmmCBnhyukNmm",
"mmmmmmmmmmmmnxjfmNCZCmbvFh33xPFhmmmmmmmmCvseepzmmm",
"mmmmmmmmvmBmzfsdBmbnBCCNvGv;%hFCmmmmmmmmBkppxCZCmm",
"mmmmmmmNZkyrfmCBmmmNmmmmmmCCj09iSSmzbSAbO6zCBbmCmm",
"mmmmmmmNBxffxNBmmmmmmmmmCmmNbfpdqmSxvFz;#6kNmbmCmm",
"NmmmmmmmmbvbmNmmmmmmmmmmZbxmZBvkU$+HHo b5ivBmvmCmm",
"mmmmmmmmnmNBmmmmmmmmmmmmCnvmASNvsHb##vN5kmZZNbnNBB",
"NNmmmmmmmNNmbvnNmmmmmmmmNNNmNBNmNNmnnmbxCASZmnnmNN",
"mmmmmmNmmmmnvbmNmmNNmmmmnCZmvnmmnmCZAZBmmmmmmmNBNN",
"mmmmmmNmmmnmmmmmmmNmmmmmnCZmvmNmBmvvvbNAmnbbmNBBBB",
"mmmmmmmmmnnNCCNnmmmmmmmmmCCbbCCnmnmCBmmBZCmmBCBNBB",
"vvvnmBCANmmmmBCZCvkHChCvmmmmNmmmAmvmmvmSnmNBCBNmmm",
"mBZSZBbxZASSZmxjNCCBvmSxmmmmNNmmmvnZZmbmmnbbvbnmmm",
"CBmnmNZSdhxnBCCCvzmxvZNCmmmmmmmmmnmCCmbmCBmbbmNCmm",
"nnnmmmmmPHZnvvnmBkmmCNfSmmmmmmmmCBmmmmmCmnnnmNCCmm",
"xmAFCxu8XXO*3uzmvSAbAAkbmmmmmmmmBCBmmmmmsfkvnnnbmm",
"CmbzjhhhBBNnzfir=SkqvFHzmmmmmmmmvmCBNNbkpfzmNNmbmm",
"AmhipzZKmBZSABnv+C>9mdHNmmmmmNmmbmbjhxvkzvmBCCBmNN",
"vnNCCNnvmmmmmNCCxLovI$fSmmmmmmmmSCh98snNnnnnnnnnNm",
"mmmmNNmmmmmmmmmmGh,#;598NnvbCCd3,qhnmmmCmmmmmmmmmm",
"NmmmmmmmmmmmmmmmZNnmBCBmfy3%#%%+qpvmmmmBmmmmmmmmmm",
"NmmmmmmmmmmmmmmmvNCnp3%+,yvNCCCmhvNCNmmBmmmmmmmmmm",
"mmmmmmmmmmmmmmmmBSHSmzzvFGmr;+++nNCCmmmBmmmmmmmmmm",
"mmmmmmmmmmNNmmNmhjkzvmZGnmvhhbZSNNBNmmNCmmmmmmmmmm",
"mmmmmNmmmmNmmmmmGSACCBnvxNSFGGBkmmmmmmNBmmmNNmmmmm",
"NNmmmmmmmmmmmmmmkzvmmmnbSZvssxBZNmmmmmmmmmNNmmmmmm",
"mmmmmmmmmmmmmmmmmBCCmnmCkmSZBBNnBNNNNNmnmmmmmmmmmN",
"mmmmmmmmmmmmmmmmNNmmmmmmNNmmmmmmmmmmmmmmmmmmmmmmmm",
"mmmmmmNmmmmmmmmmmmmmmmmmmmmmmmmmmmmmmmmmmmmmmmmmmm"
};
