/* XPM */
static char *f73866dbd8344dbbc5548711535f0d93G69j5bbfA05DFYeh[] = {
/* columns rows colors chars-per-pixel */
"128 128 29 1 ",
"  c None",
". c black",
"X c #010101",
"o c #40210B",
"O c #41210B",
"+ c #41220B",
"@ c #41220C",
"# c #42220C",
"$ c #42230C",
"% c #6B3914",
"& c #6C3914",
"* c #6C3A14",
"= c #6C3A15",
"- c #6D3A15",
"; c #6D3B15",
": c #6D3B16",
"> c #733D15",
", c #733D16",
"< c #733E16",
"1 c #743E16",
"2 c #743E17",
"3 c #743F17",
"4 c #88491B",
"5 c #884A1B",
"6 c #884A1C",
"7 c #894A1C",
"8 c #894B1C",
"9 c #894B1D",
"0 c #8A4B1D",
/* pixels */
"                                                                                                                                ",
"                                                                                                                                ",
"                                                               ..                                                               ",
"                                                             ..66..                                                             ",
"                                                           ..666666..                                                           ",
"                                                         ..6666666666..                                                         ",
"                                                       ..66665666666666..                                                       ",
"                                                     .==66666666665666666..                                                     ",
"                                                   ..66.==66665666666556666..                                                   ",
"                                                 ..666666.==66666666666666666..                                                 ",
"                                               ..6=6666666..==66666666666666666..                                               ",
"                                             ..=6=6666666666..==56666666666666666..                                             ",
"                                           ..====6=6=666666656..==66666666666666666..                                           ",
"                                         ....===6=6=666666666666..==66656666566666=....                                         ",
"                                       ..====..====6=6=66666666666..==6666666666=..6666..                                       ",
"                                     ..=====6=6..===6=6666666666666=..==666666%..66666666..                                     ",
"                                   ..==%=========..==6=6666666665=..66..==66=..66666666666=..                                   ",
"                                 ..======%====6=6%6..===6666666=..666666.....666666665666=6=6..                                 ",
"                               ...===================..=%6666=..6666666666..==6666666666=6=6=6=..                               ",
"                             ..=================6=6=6=6..===..66666566666666..==6566566=6=6=6=6%6..                             ",
"                           ..====%==..===================..%%66666666666666655..==6666=6%6=6===%===..                           ",
"                         ..%==========..==========6=6=6=6=6..==66666666666666666..==6=6=6=6=6=6=6=6=6..                         ",
"                       ..===============..===============6=6=..==66666666666666666..==%6=6=============..                       ",
"                     ..=6=================..=====%==6=6=6=6=6==.6==6666666666656666=..==6=6=6=6=6=6=6=6==..                     ",
"                   ..===============%=====%=..==%=======%=%6=..6%..==65666666666==..=6..=================5=..                   ",
"                 ..==%===..=%=================..====6=6=6==..=6=666..==66666666=..6=6=6=..%=6=6=6=6==..=6=6=6..                 ",
"               ..==========..=================....=======..==6=6=6=6=..==6=6==..=6=6======..=======..====5=6=66..               ",
"           . ..%6=6========%=..=============..====..=.=..=6=6=6%6=6=5=6..=.=..6=6=6=6=6=6=6=..=.=..=6=6=6=6=66666..             ",
"         ..%.6=================..==%======..========..===%=======6%6=6=6=..==6=6==%%==========..=%=======5=5=656666..           ",
"       ..=6=6=..6=6=6============..=====..============..==6=5%6=6=6=6=6=6=6..===6=6=6=6%6=6=6=6=..=%6=6=6=6=666666656..         ",
"     ..6=6%6====..=================.....==========%=%=%=..=============6=====..===================..=====6=6=6=66666666..       ",
"   ..666666=6=6=6=..6=6==============..%=%================..%=6=6=6=5=6=6=5=6=6..===6=6=6=6=6=6=6=6...==6=6=6=66666666666..     ",
" ..6666666=6=6=%====..=================..%===========%======..===================..%=============..%==..===6=6=666666666666..   ",
" =666666666=6=6=6=5=6=..=======%=========..============%====6=..==6=6=6=6=6=6=6=6=6..===6=6=6=6..=6=6=6=..==6=666666666666666.. ",
" ===666556=6=6==========..===============....=================..=.==========%======....======..======%====..===666666666666666. ",
" =====6666666=6=6=6=6=6=6=..==%========..====..=============..6=6=..==6=6=6=6=6==..=6=6..=...=6=6=6=6=6=6=6=..==66666666666666. ",
" ===%%==6666=6=6========..==..====%==..========..=========..========..=========..=======%..==================6..==66656666666.. ",
" ..======%666=6=6=6=6=..6===%=..===..=========%==..=====..========6=6=..==6==..=6==========..===6=6=6=6=6=6=6=6=..%=6666665.... ",
" .@o..%=====66=6====..==========...================.....=========%======.....================..================6=6...6665...1,. ",
" .oooo...=====6=6=..6=6=6=5=======..=%===============..==%================..===========%=======..===6%6=6=5=6=6=656..66...1,11. ",
" .o@o@o@...=====6.==========%====%==..=================..=========%=======%=..========%=====%====..%=======%=6%6666.....111,,1. ",
" .oooooooo...===.%6=6=6=6=6===========..==========%======..===============%===..===================..===6=6=6=66666...111,,111. ",
" .oo@o@oo@oo...%.===6%===%======%===%===..=======%=========..================..=..===========%==%===%..====%66665...1,11,1111,. ",
" .oooooo@@oo@o...=====6%6=6%6=============..=========%=%=====...====%==%===..=====..===================..=.6666...1,,,,,111111. ",
" .o@@@oo@@@oo@o@...===%===================..=================..==.%======..======%==..==================6..66...,1,11111111,,1. ",
" .ooo@@@o@oo@@ooo....=====6=6===========..==..=============..======..==..==========%=%..============6=666.....,,,111,11,1,1,11. ",
" .@o@ooo@@o@o@oooooo...===============..======..=========..==========..=%===============..==========66666...1,,,,1111,,,,111,1. ",
" .ooo@o@ooooo@oo@ooooo...=====6=6===..==========..=====..============%=..==============%==..======66666....,1,,,,1,,111111,11,. ",
" .oooo@o@oooooooo@ooo@oo...=====.=..===%==%=======..=..========%=========..=======%====%====..=.66666...111111,,,11,111,1111,1. ",
" .oooo@o@@ooooo@o@o@o@@ooo...===..6=6=6=6=6=6=6=6=6=..==6=6=6=6=6=6=6=6====..=================..656...,,1,1,1,1,,11,,111111111. ",
" .oooooo@@ooo@oooo@oo@oo@@oo...=..========%=======%===..===%============%====..=============66..6...11,1,1111,11,11,111,,11,,1. ",
" .o@ooo@o@@oooooo@oo@o@o@ooooo....====6=6=6=6=6=6=6%6=6=....6=6=6=6=6=6=6=6=6==..=%=====6=6666....1111,111,11,11,,111,,111,,1,. ",
" .@@oo@ooooooo@ooooo@o@@@o@@@o@@...====================..===..%==================..=====66666...,,,11,,,11,11,111,,,,,,111,1,,. ",
" .@oooooo@oo@@@oooo@oo@oooooooooo@...=====6=6=6=6=6%6..=6=6=6=..6=6=6=6=6=6=6=6=6=6..=65666...11,1111,,1,1,11,111111111,111111. ",
" .oooooo@o@@o@o@o@ooo@@ooo@ooo@ooooo...============..=========%=..==================6.666...,111,11,1,,11,11,11,,111,,11,11111. ",
" .@o@@ooooo@o@o@oo@ooo@oooo@oooo@ooooo...=%===6=6..=6=6=6=6=6=6=6=..6=6=6=6=6=6=6=656.6...1,,111,,,11,11111,,1111,1,,1,,,,111,. ",
" .ooo@oooo@o@o@oooooo@ooooooo@ooo@@o@@oo...=====.6=6=6=6=6=6=6=6=6=6..=======6==66566...1,,11111,,11,1,,,1,11,,1,,,,1,1,,11,1,. ",
" .@o@oo@o@o@@oooo@@o@oo@ooo@@ooooooooo@ooo...==%.=6=6=6=6=6=6=5=6=6=6=..6=6=6=66666...1111,,1111,11,1,,,,1,,,,1111,1,11,,1,111. ",
" .oooo@@ooooooo@o@@ooooooo@ooooo@oooooooo@oo...%.===66%6=6=6%6=6=6=6=6=5..=666656...1,111111,1,1,,,,,,,1,11,,,11,,1,1,,1111111. ",
" .ooooo@oooo@ooooo@o@ooooo@@o@ooooo@oo@@ooo@@o...=====66666666666666666666.6666...111,1,111,,1,,1111,,,11,,1,11111,1,,1,111111. ",
" .ooooo@oo@@@ooooo@ooooo@oooo@@o@ooooo@ooo@oo@oo...====%666666666666666666.65...1111,,1111,11,1,11,1,1,,11,1111111111,,11111,1. ",
" .oooooooo@@@oo@oo@ooooooo@oooo@oo@@oooooo@@ooooo....%==%=6666656666666666....111,111,,1,,11,1,,,1,,1,,11,,,1,,,1,,,1111111,1,. ",
" .oooooooo@ooooooooooo@@o@oooo@@ooooo@oo@o@o@o@ooooo...=====6666666656656...,,1111,,1,,111,1,,1111,,111,,11,,,,,1,1,,1,1,1,,,1. ",
" .@oooo@@ooooo@@o@o@o@@ooo@ooo@@@ooo@@o@ooo@o@oo@ooooo...=====666666666...,,11,,,,11,1,,1,11,1111111,11,11,111,,111,111,111,1,. ",
" .oooooo@oooo@oooooooooo@oo@o@ooooooo@oo@o@@@o@o@oo@o@o@...=====.6666...1,1111,,1,111,,,,11,,1,111,,11111,111,111,111,,,1111,1. ",
" .ooooooooo@oo@o@oooo@@ooooooo@oooooooooooo@oooooo@oo@oooo...===.66...1,111,,1,1,,11,,,,,,,111,,111111,1,11,11,1,,11,,1,1111,1. ",
" .@o@oo@oo@oooo@ooo@oooo@@ooooo@ooo@o@oooooo@o@ooooooooo@@o@..==.6..1,,111,11,11,,,,111,,,1,,1,,,,,1,,111,111,1,11,,111,1,,11,. ",
" .oo@ooo@ooo@@ooooooo@@oooooooooo@o@ooooooooooooooooo@@@o@@@@o....111,,,1,111,11,,1,111,11,111,,1,,,1,,1,1,,111,,,1111,,11111,. ",
" .@ooooo@oo@oooo@oooo@@ooo@o@@@ooooooooo@ooo@o@@@oo@ooo@@@@@oooo1111,1,,1,,,111,1,,,1111,,1,11,,,111,11,11,111,,11111,1,111,,,. ",
" .oooo@o@oooooooooo@o@ooo@oooooo@@oo@o@ooo@oo@@ooo@@@o@ooooo@o@@11,1111,111,,,11,1,11,,,1,1,111,,11,,111,,,111,,11,111,11,1111. ",
" .o@oo@ooo@ooo@o@@ooo@@oooo@@oo@@o@o@@o@@oooo@o@@@o@@o@o@ooo@ooo,1,11,1,,,11,,1111,,,1,111,1,111,1,111,1,,11,,11,,,1,1111,1,1,. ",
" .ooo@@oooo@o@oooo@@ooooo@ooooooooooo@ooooo@oo@ooo@@ooo@@oooo@@o,1,,1,111111,,,,11111111,1,1,11,,,111,1111,11,111,111,11,,1,,,. ",
" .@oo@ooooo@ooooooo@o@oooooo@ooo@ooo@oooo@o@oooo@@oo@o@o@@o@@@o@1111,,,,111,1,111,,1111,1,11,1,,,1,11,11,1111,1,,1,1,111,,,,,,. ",
" .ooooo@o@o@@o@oo@@@o@@ooooo@oooooo@ooooo@@ooo@o@oooo@oo@@@@@ooo11,1,1111,1,,1,,1,1,11,11,,,11,111,,,,11,,1,1,111,1,1,,1111111. ",
" .oooooo@@ooo@o@o@ooooooo@@o@@@ooo@oo@@@oooooo@oo@ooooo@ooo@oo@o1,,1,,11,,1,1111,11,,,,1,,1,,1,111,,11,1111,,11,,1,11,,11,1,11. ",
" .o@oooooo@oooo@oo@oooooo@@ooooooo@o@oooooooo@oooooo@@oo@o@@o@@o,,,,1,1,1,,1,1,,11,11,1,,,1,1111,11,111,,,11,1,111111111,,11,1. ",
" .o@ooooooo@oooooooooooo@oo@o@ooo@@oooooooo@o@o@@o@oooo@@oo@oooo,1,111,11,1111111111,,,111,,111111111,,1,,11,,11,11,11,,,1,111. ",
" .o@oo@oo@oooo@oo@@oo@oooooooooooo@ooo@ooo@@o@o@@@@oooo@@o@@@@o@.,1,,11,,,,1,,1,111,1,1,1,1,1111,,11111,,,1,,11,,,,111111,,11,. ",
" .ooooooooooooooooooo@oo@ooo@ooooooo@oooooo@o@o@@oo@ooo@@ooooooo.1,,,,,1,111111,1111111,11,11111,,1,1,,11,1,1111,11,1,1,1,11,1. ",
" .ooooo@@o@o@oo@o@@oo@@ooooo@o@o@o@ooo@@o@@@ooo@ooooo@@@@ooo@o@o.,11,,111,1,,1,1,,111,,1,1,,11,,11,,,,111111,1,,,11,11,11,111,. ",
" .ooooo@@oooo@ooooooo@@@ooooooo@@oooo@oo@ooo@oooo@o@oooo@@o@oooo.11,,11111,,1,1,1,,111,111111,1,1,1111,,,,1,,111,,11111,11,111. ",
" .@oooo@ooo@ooooooo@@ooooo@oooooooo@o@@@ooo@@ooo@ooooo@@o@oo@ooo.,1,11,11111,11,1,11,,1,1,11,1,,,,,1,1,,11,,11,1,,11,,1,11,,,1. ",
" .o@oooooo@oooo@ooooooooooo@@@ooo@@o@o@@oooo@ooo@oooooo@oo@ooo@o.111111,1,1,1,,111111,1,11,11111,11,1,1,111,1,11,1,1111,1,,1,,. ",
" .ooo@@ooooooooo@@o@oooooo@ooooo@@oo@ooo@@oo@@o@@@@ooo@oooo@oooo.11,,1,11,111,,1,,11,1111111,11,11,1111,,,,1,1,,,,11,1,,,,,,,1. ",
" .@oooooooo@@ooo@o@oo@o@@@oooo@ooooooooo@o@o@oooo@oo@oo@o@@ooo@@.11111,1,,,1,,1,1,111,,1,1,,,,1,,11,1,,,1111,,1,111111,1,,,,,,. ",
" .@@ooo@@oo@o@ooooo@o@ooooooooooooo@oooooo@o@ooooo@ooooo@@ooo@@@.,11,1111,,11,,111111,1,11,1,,11,111,,11,1111,,,,1,,11,11111,,. ",
" .ooo@o@oooo@ooooooooo@ooooooooooo@@oooooo@ooo@oooooo@oo@@@o@@oo.1,111,11,,,111,11,1,1,,,,11,,1111,1,11,1111,1,,11,,,111111111. ",
" .o@oooooooooo@ooooooo@@oo@@oo@oo@ooo@oooo@oo@@@ooooooooooo@oo@o.11111,1,11,1,,11,,11111,,11,1,,1,,,11,1111,1,1,11111111,,111,. ",
" .o@oo@@o@@ooo@o@ooooooo@oo@oo@@ooooooooo@oooo@oo@ooooo@oooo@ooo.11,11,1,,,,11,,1111,1,,,,,111111,11,1,1,,,,,1,1,1111111111111. ",
" .ooooooo@@ooo@o@@o@@oooooo@o@ooooo@o@o@@o@ooo@oooo@ooo@oo@@@ooo.,,11,1,,,11,111,,1111,11,,1,11111,11,,11,111111,,1111,,11,,11. ",
" .oooooooooo@oo@@@@oooooooo@o@oooo@@o@oo@@o@oooo@o@ooooo@ooooo@@.1,11,1,,11,,,1,11,1,11,11,,,,,11,1,,1,,,,11,111,,,,,,,1,,1111. ",
" .o@@oooo@o@o@oo@@oo@@o@ooooooooooooo@@oo@oo@ooo@oooo@@o@@@@o@@o.1,,,1,,,,,,1111,1,11,1,1,,111,1111111,11,,,1111,1111111,1,1,,. ",
" .oooo@@@ooo@@oooo@ooooo@oo@o@o@ooooooo@ooo@o@ooo@@o@oo@@oooo@oo.1,,,11,,11,,111,1,,,,,11,11111,,,1,,,1,,,1,11,1,,,1,11,111,1,. ",
" .ooooooo@@oo@@o@@oo@o@@@ooooo@oooooo@oo@o@oo@oooo@ooooo@@oooo@o.,11,1,1,1,,11,,11,111,,1,1,111,,,1,11,,11111,1,1,,,1,111,1,,,. ",
" .@ooooooooooo@o@o@ooo@ooooooo@o@oooooooooooooooooo@o@oo@o@o@ooo.1,,,1111,,1,,111,,1,,,111,,111,,111111,1,111,1,1,111111,,,1,1. ",
" .oo@oo@o@@o@o@ooooo@@@o@@@@oooo@o@@@ooo@oo@oooooooooo@oooooo@oo.,11,,111,,,,,,,11,,111111,,,,,11,,11,1,1,1111111,,1,111111,11. ",
"  ..o@oo@oooooooooooo@@oooooooo@@@oooooo@oo@@oo@ooo@oooooo@ooooo.11,1,,1,,111111111,,111111,1111111,,,1,11,,,1111111,,1,1111..  ",
"    ..ooooo@oo@@@@oo@@ooo@ooo@@ooooo@@oooooo@ooo@ooooooo@ooooooo.,1,1111,1111,,11111,,,,1,1111,,,,11111111,,1,1,1,1,,11,1,..    ",
"      ..o@ooooooo@ooooo@@o@o@@ooooo@oooo@oooo@@oo@@oo@@ooooo@@@o.,,,,11,111,,,11,1,11111,11111,,1,,11,,1111,11,,111,1,1,..      ",
"        ..oooo@oo@oo@oo@oooo@@ooo@ooo@o@ooooooo@ooooooo@o@oooooo.1111,1,1,1,,1,,11,,,1,1,111,1,1,11,,,1111,1,1,1,1,,1,..        ",
"          ..o@@@ooooo@@ooooo@ooo@oo@ooo@@ooo@o@oo@@@@@ooo@ooo@oo.1,,1,,,1,11111,,11,,11,,,1,,,,,,1,,1,1111,1,,1,,1,1..          ",
"            ..@o@@o@oooo@@@oo@oo@oo@oooooo@oooooo@@ooooooo@@oo@o.,1,111,1,11,1,11111111,11,1,1111,111,1,11111,,,11..            ",
"              ..oo@@o@@o@o@ooo@@o@o@oooo@ooooooooo@o@@oo@oo@o@@o.,11,11,11,1111,1111,111,1,11,,111,,11111,,,1,,1..              ",
"                ..o@ooo@o@ooo@o@o@@@ooo@oo@oo@oooooo@ooooo@oo@o@.,1,1111,1,111,1,,11111,1,11,1,1111,,,1,11,1,1..                ",
"                  ..@ooo@oo@ooo@@ooo@@ooooooo@o@oooooo@ooooooooo.,,,,1,1,1,1,,,,11,1,1,1,,1,,,11111,,1,1111,..                  ",
"                    ..ooooo@oooooo@@oooo@o@@oooo@oo@ooooo@oo@oo@.1111,1111,1111,11111,1,,,,1,1,1111111,1,,..                    ",
"                      ..oo@oooooooo@ooooo@ooooo@ooo@@o@o@oooo@@@.111,11,11,111111,111,,11,1,1,11,111,1,,..                      ",
"                        ..ooooo@oooooo@@oo@@o@o@oo@oooooo@ooo@oo.11,,,,,,1,,11,11111,,,1,,1,1,1,11,1,,..                        ",
"                          ..o@@@o@@oo@oooooo@ooo@@oo@ooooo@ooooo.,,111,11,1,,1111,111111,,,,1,11111,..                          ",
"                            ..ooooooooooooo@o@@@@@oo@o@ooo@oo@o@.,,,111,,111,11,1,1,,,,,11111,11,,..                            ",
"                              ..ooo@@@o@o@ooo@o@@o@@@oooooooo@oo.1111,11,1,,11,,11,1,11,,111,11,..                              ",
"                                ..@@ooooo@oooooooooo@ooo@o@@@oo@.1,11,11,,111,,1,1,1111,11,111..                                ",
"                                  ..o@ooo@oo@@oooooooooooo@o@o@o.,,1111,,11,11,1,1,,,,1,111,..                                  ",
"                                    ..ooooooo@oooo@@oo@@@@oooo@@.,,,111,,,11111111,,,1,1,1..                                    ",
"                                      ..@oooo@@oooo@oooo@@oo@ooo.11,1,,,,1111,,11,1,,1,1..                                      ",
"                                        ..oo@ooooo@o@o@@@ooooooo.1111,,111,1,11,11,1,1..                                        ",
"                                          ..o@@@@oo@o@@ooooo@ooo.1,,1,1111,1,,1,1,11..                                          ",
"                                            ..@@@ooooooooo@o@@oo.1,1111,1,1,,,1,,1..                                            ",
"                                              ..oooooooooo@oooo@.,,111,11,1,,,11..                                              ",
"                                                ..oooo@o@o@o@ooo.1,111,11,1,11..                                                ",
"                                                  ..ooooo@@ooo@@.1111111,,1,..                                                  ",
"                                                    ..oooooooooo.,11,1,,11..                                                    ",
"                                                      ..oo@oo@oo.1,1,,,,..                                                      ",
"                                                        ..oo@o@o.,1111..                                                        ",
"                                                          ..ooo@.111..                                                          ",
"                                                            ..oo.1..                                                            ",
"                                                              ....                                                              ",
"                                                                .                                                               "
};
