/* XPM */
static char *_c70e11ec3e74cab99f14c29e439b335v0gcXNtLH9Gv09FT[] = {
/* columns rows colors chars-per-pixel */
"128 128 35 1 ",
"  c None",
". c black",
"X c #010101",
"o c #40210B",
"O c #41210B",
"+ c #41220B",
"@ c #41220C",
"# c #42220C",
"$ c #42230C",
"% c #6B3914",
"& c #6C3914",
"* c #6C3A14",
"= c #6C3A15",
"- c #6D3A15",
"; c #6D3B15",
": c #6D3B16",
"> c #733D15",
", c #733D16",
"< c #733E16",
"1 c #743E16",
"2 c #743E17",
"3 c #743F17",
"4 c #7E4B1A",
"5 c #7E4C1A",
"6 c #7E4C1B",
"7 c #7F4C1B",
"8 c #7F4D1B",
"9 c #7F4D1C",
"0 c #804D1C",
"q c #886231",
"w c #896231",
"e c #896232",
"r c #896332",
"t c #8A6332",
"y c #8A6333",
/* pixels */
"                                                                                                                                ",
"                                                                                                                                ",
"                                                                                                                                ",
"                                                                                                                                ",
"                                                                                                                                ",
"                                                                                                                                ",
"                                                                                                                                ",
"                                                                                                                                ",
"                                                                                                                                ",
"                                                               ..                                                               ",
"                                                             ..77..                                                             ",
"                                                           ..77747r..                                                           ",
"                                                         ..7777477777..                                                         ",
"                                                       ..777777977r7r7r..                                                       ",
"                                                     ..-77777777777777777..                                                     ",
"                                                   ..7...-7797777777r7r7r7r..                                                   ",
"                                                 ..7-777...-7777470777777r7r7r.                                                 ",
"                                               ..%7-777777...-777777r7r7r7r7rrrr.                                               ",
"                                             ..----7-7774777...-77777777777r7r7rrr.                                             ",
"                                           ..-7-7-7-7777777777...-7477r7r7r7r7r7rrr-%                                           ",
"                                         ..-..-----7-777777477797..-707777774r7r7--..r.                                         ",
"                                       ..-----..--7-777797777777777..-r7r7r7r7r--..rrrr..                                       ",
"                                     ..-%-------..-7-07777777777777-...-77770--..r7r7r7rr..                                     ",
"                                   ..---------7-7%..--77777777077-..777..-r--..9r7r7rrrrrrr..                                   ",
"                                 ..-%-----%-----%--7..-74777777-..7770477....77r7r7r7r4r7r7r7..                                 ",
"                               ....-----------7%7-7-7-..-7777-..77777777r7...-r7r7r7r7r7r7r7r7r..                               ",
"                             ..----..----------------7-7...-..77777777077777...-7r7r7r7r7r7r7r7777.                             ",
"                           ..--------..-------7-7-7-7-7777..-7777777777777r7r0r..-r7r7r7r7r7r7r7r7r7.                           ",
"                         ..--------%---..-%----------7-77777..-777477777797777777..%7r7r7r7r7r77747777.                         ",
"                       ..----------------..---7-7-7-7-77777747..-777777777r7r0r7r7r.--r7r7r7r7r7r7r4r777.                       ",
"                     ...---------------%---..-----%-%7%777077--.7.-777777777777777--...-7r7r7r777777777--..                     ",
"                   ..---..-------------%-%---..-7-7-7-77777-%..777..%77777r7r7r7--..r7...-r7r7r7r7r7r--..777.                   ",
"                 ..-------..-------------%-----..----4-77--..7777777..-7777777--..7r7r7r...-7r77777%-..777777..                 ",
"               ..-%---------..-%--------------..7..-7-7%-..77777777777..-7r7--..r0r7r7r7r7...-r4r--..7777777777..               ",
"             ..---------------..------------..-----...-..777777777777777...-..77777r7r7r7r7r....-..77477707777777..             ",
"           ..-----------------%-..--------..7-7-7-7-7..-777777777777777777..-7r7r7r7r7r0r7r7r7...-r7r77777774777777..           ",
"         ..--..-------------------..----..---------7-7-..-777777777777777777..-77r7r7r7r7r7r7r77...-77777777777777779..         ",
"       ..%%----..-----------%-------....--7-7-4-7-7-7-777..-77777777777777r7r7..-7r7r7r7r7r7r7r7r7r.--r7777777777777777..       ",
"     ..----------..-------------------..-----------7-777777..-770477777777777777..-r7r7r7r7r7r4r77-....-77777777777777-7%..     ",
"   ..-------------%..-----%----------%--..--7-7-7-7-777774777..-7777777777r7r7r7r7..-rrrrrrrr7r7-..7r7r..-4779077477777-7-7..   ",
" ..------------------..-----%----%---------.-----7-7-777777777--.-4777777747777r7r7--.%rrr0r4r-..r7477777..%7777777777-7---%-.. ",
" .---------------%-----..-----------7-7--..-..--7-4777777777--..7..-7777r7r7r7r7r--..r..-rrr-..7r7r7r7r777...-707777977-7-7---. ",
" .-------------%-----%---..-----%---%--..----7..-4-7777777--..77777..-777777777--..rrrrr.....r0r4r7747477074...-47777777------. ",
" o..------------------7%77...-7-7-7--..-7-7-7-7-..-77777--..777777777..%r7r7r--..rrrrrrrrr..-rrrr7r7r7r7r77777...-97777-----... ",
" @o...-----------%----%7..---..----..7-7-7-7-7-777..-7--..7777777777777..-7--..r7rrrrrrrrrrr..-r7r9r7777777777777..-7-----...1. ",
" @ooo...---%--7-7-0-77..7-7-7-7....-7-77777777779777....77777977777777r7r....7rrrrrrrrrrrrrrrr..-rr7r0r7r7777777777..---...<11. ",
" o@o@oo...-----77777..77777777707..-777777777977777977..-777777777777477777..-7rrrrrrrrrrrrrrrrr..-r7777777777774--..-...111<1. ",
" oooo@o@o...----.r..777477777770777..-777777777777770777..-777777777r7r7r7r7r..-rrrrrrrrrrrrrrrrrr..-7r7r7r7777----....111<11<. ",
" .oooo@o@oo...--..7777777447777777777..%777777777777777777..-77477707777777r7r-..-rrrrrrrrrrrrrrrrrr..-777777-----...11<1111<1. ",
" .oooo@o@@ooo.....--77r7r7r747777077777..-777777777777777777..-77777r7r7r7r7-..rr..-rrrrrrrrrrrrrrrrr7..-7r-----...<<111111111. ",
" .oooooo@@ooo@o...----7rrr7r7777777777777..-777777477777797777..-77777774r-..rrrrrr..-rrrrrrrrrrrrrr7r7r.-.---...11<111<<11<<1. ",
" .o@ooo@o@@oooooo...----rrrrrrr7r7r7r7r7--...-777774077777777--.7.-7r7r7-..rrrrrrrrrr..-rrrrrrrrrrrrr7r--..-...1<<111<<111<<1<. ",
" .@@oo@ooooooo@oooo...----rrrrrrrrrr7r--..777..-97797797777--..7777.-7-..r7rrrrrrrrrrrr..-rrrrrrrrrrr----....<111<<<<<<111<1<<. ",
" .@oooooo@oo@@@oooo@o...----rrrrrrrr7-..r7r7r7r..-7777777--..0r7r7r7...7rrrrrrrrrrrrrrrrr..-rrrrrrr-----...11<111111111<111111. ",
" .oooooo@o@@o@o@o@ooo@@...---%rrrr7-..rrrr7r77777..-777--..7777774777r..-rrrrrrrrrrrrrrrrrr..-rrr-----...<11<11<<111<<11<11111. ",
" .@o@@ooooo@o@o@oo@ooo@oo...-%--.-..rrrrrrrrr7r7r7r...-..7r7r7r7r0r7r7r7..-rrrrrrrrrrrrrrrrrr...----...1111<<1111<1<<1<<<<111<. ",
" .ooo@oooo@o@o@oooooo@ooooo...--..rrrrrrrrrrrrrr7r777..-77777707777r9r7rrr..-rrrrrrrrrrrrrrrr-..--...1<<<1<11<<1<<<<1<1<<11<1<. ",
" .@o@oo@o@o@@oooo@@o@oo@ooo@@.....--rrrrrrrrrrrrrrr7r7r..-r7r7r7r7r7r7rrrrrr..-rrrrrrrrrrrr---.....<1<<<<1<<<<1111<1<11<<1<111. ",
" .oooo@@ooooooo@o@@ooooooo@oooo...----rrrrrrrrrrrrrr7r4r7.--497r0r7r7rrrrrrrrr..-rrrrrrrr-----...<<<<<<1<11<<<11<<1<1<<1111111. ",
" .ooooo@oooo@ooooo@o@ooooo@@o@ooo...----rrrrrrrrrrrrrrr7-....-r7r7r7rrrrrrrrrrrr..-rrrr-----...<1111<<<11<<1<11111<1<<1<111111. ",
" .ooooo@oo@@@ooooo@ooooo@oooo@@o@oo...----rrrrrrrrrrrr-..r7r7..-7r7r7rrrrrrrrrrrrr..------...<1<11<1<1<<11<1111111111<<11111<1. ",
" .oooooooo@@@oo@oo@ooooooo@oooo@oo@@o...----rrrrrrrr-..rrrr7r7r..-rrrrrrrrrrrrrrrrr-..--...1<1<<<1<<1<<11<<<1<<<1<<<1111111<1<. ",
" .oooooooo@ooooooooooo@@o@oooo@@ooooo@o...----rrrr-..rrrrrrr7r7r7..-rrrrrrrrrrrrr---.....1<1<<1111<<111<<11<<<<<1<1<<1<1<1<<<1. ",
" .@oooo@@ooooo@@o@o@o@@ooo@ooo@@@ooo@@o@o...%---...rrrrrrrrrrrrrrrr..-rrrrrrrrr-----...<1<11<1111111<11<11<111<<111<111<111<1<. ",
" .oooooo@oooo@oooooooooo@oo@o@ooooooo@oo@o@...--.-7rrrrrrrrrrrrrrrrrr..-rrrrr-----...<<<<11<<1<111<<11111<111<111<111<<<1111<1. ",
" .ooooooooo@oo@o@oooo@@ooooooo@oooooooooooo@o....---7rrrrrrrrrrrrrrrrrr..-r-----...1<<<<<<<111<<111111<1<11<11<1<<11<<1<1111<1. ",
" .@o@oo@oo@oooo@ooo@oooo@@ooooo@ooo@o@oooooo@o@...----4rrrrrrrrrrrrrrrrrr..---...<<<111<<<1<<1<<<<<1<<111<111<1<11<<111<1<<11<. ",
" .oo@ooo@ooo@@ooooooo@@oooooooooo@o@ooooooooooooo...----7rrrrrrrrrrrrrr--..-...1<<1<111<11<111<<1<<<1<<1<1<<111<<<1111<<11111<. ",
" .@ooooo@oo@oooo@oooo@@ooo@o@@@ooooooooo@ooo@o@@@oo...-----rrrrrrrrrr----....11<1<<<1111<<1<11<<<111<11<11<111<<11111<1<111<<<. ",
" .oooo@o@oooooooooo@o@ooo@oooooo@@oo@o@ooo@oo@@ooo@@@...-%---rrrrrr-----...<<<11<1<11<<<1<1<111<<11<<111<<<111<<11<111<11<1111. ",
" .o@oo@ooo@ooo@o@@ooo@@oooo@@oo@@o@o@@o@@oooo@o@@@o@@o@...---%-r7-----...<11<<1111<<<1<111<1<111<1<111<1<<11<<11<<<1<1111<1<1<. ",
" .ooo@@oooo@o@oooo@@ooooo@ooooooooooo@ooooo@oo@ooo@@ooo@@...----.-%-...11111<<<<11111111<1<1<11<<<111<1111<11<111<111<11<<1<<<. ",
" .@oo@ooooo@ooooooo@o@oooooo@ooo@ooo@oooo@o@oooo@@oo@o@o@@o...%-.-...<<<111<1<111<<1111<1<11<1<<<1<11<11<1111<1<<1<1<111<<<<<<. ",
" .ooooo@o@o@@o@oo@@@o@@ooooo@oooooo@ooooo@@ooo@o@oooo@oo@@@@@......1<1111<1<<1<<1<1<11<11<<<11<111<<<<11<<1<1<111<1<1<<1111111. ",
" .oooooo@@ooo@o@o@ooooooo@@o@@@ooo@oo@@@oooooo@oo@ooooo@ooo@oo@..<<1<<11<<1<1111<11<<<<1<<1<<1<111<<11<1111<<11<<1<11<<11<1<11. ",
" .o@oooooo@oooo@oo@oooooo@@ooooooo@o@oooooooo@oooooo@@oo@o@@o@@o.<<<1<1<1<<1<1<<11<11<1<<<1<1111<11<111<<<11<1<111111111<<11<1. ",
" .o@ooooooo@oooooooooooo@oo@o@ooo@@oooooooo@o@o@@o@oooo@@oo@oooo.1<111<11<1111111111<<<111<<111111111<<1<<11<<11<11<11<<<1<111. ",
" .o@oo@oo@oooo@oo@@oo@oooooooooooo@ooo@ooo@@o@o@@@@oooo@@o@@@@o@.<1<<11<<<<1<<1<111<1<1<1<1<1111<<11111<<<1<<11<<<<111111<<11<. ",
" .ooooooooooooooooooo@oo@ooo@ooooooo@oooooo@o@o@@oo@ooo@@ooooooo.1<<<<<1<111111<1111111<11<11111<<1<1<<11<1<1111<11<1<1<1<11<1. ",
" .ooooo@@o@o@oo@o@@oo@@ooooo@o@o@o@ooo@@o@@@ooo@ooooo@@@@ooo@o@o.<11<<111<1<<1<1<<111<<1<1<<11<<11<<<<111111<1<<<11<11<11<111<. ",
" .ooooo@@oooo@ooooooo@@@ooooooo@@oooo@oo@ooo@oooo@o@oooo@@o@oooo.11<<11111<<1<1<1<<111<111111<1<1<1111<<<<1<<111<<11111<11<111. ",
" .@oooo@ooo@ooooooo@@ooooo@oooooooo@o@@@ooo@@ooo@ooooo@@o@oo@ooo.<1<11<11111<11<1<11<<1<1<11<1<<<<<1<1<<11<<11<1<<11<<1<11<<<1. ",
" .o@oooooo@oooo@ooooooooooo@@@ooo@@o@o@@oooo@ooo@oooooo@oo@ooo@o.111111<1<1<1<<111111<1<11<11111<11<1<1<111<1<11<1<1111<1<<1<<. ",
" .ooo@@ooooooooo@@o@oooooo@ooooo@@oo@ooo@@oo@@o@@@@ooo@oooo@oooo.11<<1<11<111<<1<<11<1111111<11<11<1111<<<<1<1<<<<11<1<<<<<<<1. ",
" .@oooooooo@@ooo@o@oo@o@@@oooo@ooooooooo@o@o@oooo@oo@oo@o@@ooo@@.11111<1<<<1<<1<1<111<<1<1<<<<1<<11<1<<<1111<<1<111111<1<<<<<<. ",
" .@@ooo@@oo@o@ooooo@o@ooooooooooooo@oooooo@o@ooooo@ooooo@@ooo@@@.<11<1111<<11<<111111<1<11<1<<11<111<<11<1111<<<<1<<11<11111<<. ",
" .ooo@o@oooo@ooooooooo@ooooooooooo@@oooooo@ooo@oooooo@oo@@@o@@oo.1<111<11<<<111<11<1<1<<<<11<<1111<1<11<1111<1<<11<<<111111111. ",
" .o@oooooooooo@ooooooo@@oo@@oo@oo@ooo@oooo@oo@@@ooooooooooo@oo@o.11111<1<11<1<<11<<11111<<11<1<<1<<<11<1111<1<1<11111111<<111<. ",
" .o@oo@@o@@ooo@o@ooooooo@oo@oo@@ooooooooo@oooo@oo@ooooo@oooo@ooo.11<11<1<<<<11<<1111<1<<<<<111111<11<1<1<<<<<1<1<1111111111111. ",
" .ooooooo@@ooo@o@@o@@oooooo@o@ooooo@o@o@@o@ooo@oooo@ooo@oo@@@ooo.<<11<1<<<11<111<<1111<11<<1<11111<11<<11<111111<<1111<<11<<11. ",
" .oooooooooo@oo@@@@oooooooo@o@oooo@@o@oo@@o@oooo@o@ooooo@ooooo@@.1<11<1<<11<<<1<11<1<11<11<<<<<11<1<<1<<<<11<111<<<<<<<1<<1111. ",
" .o@@oooo@o@o@oo@@oo@@o@ooooooooooooo@@oo@oo@ooo@oooo@@o@@@@o@@o.1<<<1<<<<<<1111<1<11<1<1<<111<1111111<11<<<1111<1111111<1<1<<. ",
" .oooo@@@ooo@@oooo@ooooo@oo@o@o@ooooooo@ooo@o@ooo@@o@oo@@oooo@oo.1<<<11<<11<<111<1<<<<<11<11111<<<1<<<1<<<1<11<1<<<1<11<111<1<. ",
" .ooooooo@@oo@@o@@oo@o@@@ooooo@oooooo@oo@o@oo@oooo@ooooo@@oooo@o.<11<1<1<1<<11<<11<111<<1<1<111<<<1<11<<11111<1<1<<<1<111<1<<<. ",
" .@ooooooooooo@o@o@ooo@ooooooo@o@oooooooooooooooooo@o@oo@o@o@ooo.1<<<1111<<1<<111<<1<<<111<<111<<111111<1<111<1<1<111111<<<1<1. ",
" .oo@oo@o@@o@o@ooooo@@@o@@@@oooo@o@@@ooo@oo@oooooooooo@oooooo@oo.<11<<111<<<<<<<11<<111111<<<<<11<<11<1<1<1111111<<1<111111<11. ",
"  ..o@oo@oooooooooooo@@oooooooo@@@oooooo@oo@@oo@ooo@oooooo@ooooo.11<1<<1<<111111111<<111111<1111111<<<1<11<<<1111111<<1<1111..  ",
"    ..ooooo@oo@@@@oo@@ooo@ooo@@ooooo@@oooooo@ooo@ooooooo@ooooooo.<1<1111<1111<<11111<<<<1<1111<<<<11111111<<1<1<1<1<<11<1<..    ",
"      ..o@ooooooo@ooooo@@o@o@@ooooo@oooo@oooo@@oo@@oo@@ooooo@@@o.<<<<11<111<<<11<1<11111<11111<<1<<11<<1111<11<<111<1<1<..      ",
"        ..oooo@oo@oo@oo@oooo@@ooo@ooo@o@ooooooo@ooooooo@o@oooooo.1111<1<1<1<<1<<11<<<1<1<111<1<1<11<<<1111<1<1<1<1<<1<..        ",
"          ..o@@@ooooo@@ooooo@ooo@oo@ooo@@ooo@o@oo@@@@@ooo@ooo@oo.1<<1<<<1<11111<<11<<11<<<1<<<<<<1<<1<1111<1<<1<<1<1..          ",
"            ..@o@@o@oooo@@@oo@oo@oo@oooooo@oooooo@@ooooooo@@oo@o.<1<111<1<11<1<11111111<11<1<1111<111<1<11111<<<11..            ",
"              ..oo@@o@@o@o@ooo@@o@o@oooo@ooooooooo@o@@oo@oo@o@@o.<11<11<11<1111<1111<111<1<11<<111<<11111<<<1<<1..              ",
"                ..o@ooo@o@ooo@o@o@@@ooo@oo@oo@oooooo@ooooo@oo@o@.<1<1111<1<111<1<<11111<1<11<1<1111<<<1<11<1<1..                ",
"                  ..@ooo@oo@ooo@@ooo@@ooooooo@o@oooooo@ooooooooo.<<<<1<1<1<1<<<<11<1<1<1<<1<<<11111<<1<1111<..                  ",
"                    ..ooooo@oooooo@@oooo@o@@oooo@oo@ooooo@oo@oo@.1111<1111<1111<11111<1<<<<1<1<1111111<1<<..                    ",
"                      ..oo@oooooooo@ooooo@ooooo@ooo@@o@o@oooo@@@.111<11<11<111111<111<<11<1<1<11<111<1<<..                      ",
"                        ..ooooo@oooooo@@oo@@o@o@oo@oooooo@ooo@oo.11<<<<<<1<<11<11111<<<1<<1<1<1<11<1<<..                        ",
"                          ..o@@@o@@oo@oooooo@ooo@@oo@ooooo@ooooo.<<111<11<1<<1111<111111<<<<1<11111<..                          ",
"                            ..ooooooooooooo@o@@@@@oo@o@ooo@oo@o@.<<<111<<111<11<1<1<<<<<11111<11<<..                            ",
"                              ..ooo@@@o@o@ooo@o@@o@@@oooooooo@oo.1111<11<1<<11<<11<1<11<<111<11<..                              ",
"                                ..@@ooooo@oooooooooo@ooo@o@@@oo@.1<11<11<<111<<1<1<1111<11<111..                                ",
"                                  ..o@ooo@oo@@oooooooooooo@o@o@o.<<1111<<11<11<1<1<<<<1<111<..                                  ",
"                                    ..ooooooo@oooo@@oo@@@@oooo@@.<<<111<<<11111111<<<1<1<1..                                    ",
"                                      ..@oooo@@oooo@oooo@@oo@ooo.11<1<<<<1111<<11<1<<1<1..                                      ",
"                                        ..oo@ooooo@o@o@@@ooooooo.1111<<111<1<11<11<1<1..                                        ",
"                                          ..o@@@@oo@o@@ooooo@ooo.1<<1<1111<1<<1<1<11..                                          ",
"                                            ..@@@ooooooooo@o@@oo.1<1111<1<1<<<1<<1..                                            ",
"                                              ..oooooooooo@oooo@.<<111<11<1<<<11..                                              ",
"                                                ..oooo@o@o@o@ooo.1<111<11<1<11..                                                ",
"                                                  ..ooooo@@ooo@@.1111111<<1<..                                                  ",
"                                                    ..oooooooooo.<11<1<<11..                                                    ",
"                                                      ..oo@oo@oo.1<1<<<<..                                                      ",
"                                                        ..oo@o@o.<1111..                                                        ",
"                                                          ..ooo@.111..                                                          ",
"                                                            ..oo.1..                                                            ",
"                                                              ....                                                              ",
"                                                                .                                                               "
};
