/* XPM */
static char *_612b764601846909b50d4ddecb0d883[] = {
/* columns rows colors chars-per-pixel */
"128 128 36 1 ",
"  c None",
". c black",
"X c #010101",
"o c #40210A",
"O c #40210B",
"+ c #41210B",
"@ c #41220B",
"# c #41220C",
"$ c #42220C",
"% c #42230C",
"& c #6B3914",
"* c #6C3914",
"= c #6C3A14",
"- c #6C3A15",
"; c #6D3A15",
": c #6D3B15",
"> c #6D3B16",
", c #733D15",
"< c #733D16",
"1 c #733E16",
"2 c #743E16",
"3 c #743E17",
"4 c #743F17",
"5 c #7E4B1A",
"6 c #7E4C1A",
"7 c #7E4C1B",
"8 c #7F4C1B",
"9 c #7F4D1B",
"0 c #7F4D1C",
"q c #804D1C",
"w c #886231",
"e c #896231",
"r c #896232",
"t c #896332",
"y c #8A6332",
"u c #8A6333",
/* pixels */
"                                                                                                                                ",
"                                                                                                                                ",
"                                                                                                                                ",
"                                                                                                                                ",
"                                                                                                                                ",
"                                                                                                                                ",
"                                                                                                                                ",
"                                                                                                                                ",
"                                                                                                                                ",
"                                                               ..                                                               ",
"                                                             .----.                                                             ",
"                                                           .----&--&.                                                           ",
"                                                         .--&--&------.                                                         ",
"                                                       .---------------&.                                                       ",
"                                                     ..-----------&-------.                                                     ",
"                                                   .---..-----8-8-8-8-8-8-88.                                                   ",
"                                                 .&------..----&&8-88888888888.                                                 ",
"                                               .-&------8-8..-888888888888888888.                                               ",
"                                             .--------&-&--88..-888888888888888888.                                             ",
"                                           .--------8-8-8888888..-8588w8w8w8wwwwwww8&                                           ",
"                                         .--..-------8-8888588808..-8wwwwwww5wwww8-.ww.                                         ",
"                                       .------..--8-888808888888w8w..-8wwwwwwwww-.wwwwww.                                       ",
"                                     .--&-------..-88q888888888wwwww...0wwwwww-.wwwwwwwwww.                                     ",
"                                   .----------8-8&..-8888888w8wwww.wwww..8w--.wwwwwwwwwwwwww.                                   ",
"                                 .--&-----&----8&8-8..-8588wwwww.wwwwwwww...wwwwwwwwwwwwwwwwww.                                 ",
"                               .-..-------8-8-88888q88..-8wwww.wwwwwwwwwwww..wwwwwwwwwwwwwwwwwww.                               ",
"                             .-----..--------88888888888..-w.wwwwwwwwwwwwwwww..wwwwwwwwwwwwwwwwwww.                             ",
"                           .---------..-8-8-8888888888w8ww..-wwwwwwwwwwwwwwwwww..wwwwwwwwwwwwwwwwwww.                           ",
"                         .---------&---..-&888888888888wwwww..-wwwwwwwwwww8wwwwww..8wwwwwwwwwwwwwwwwww.                         ",
"                       .------------8-8-0..-88888888w8wwwwwwww..-wwwwwwwwwwwwwwwwww.-wwwwwwwwwwwwwwwwwww.                       ",
"                     ...---------------5-88..-88885q5wwwwwwwww-.w.-wwwwwwwwwwwwwwww-...wwwwwwwwwwwwwwww--..                     ",
"                   .----..------8-8-8-8888888..-88w8wwwwwwww&.wwww..8wwwwwwwwwwww-.wwww..wwwwwwwwwwww--.w888.                   ",
"                 .--------..-----8-888-80888888..-8w8wwwww-.wwwwwwww..-wwwwwwww-.wwwwwwww..qwwwwwww&-.ww888888.                 ",
"               .--&-------8-..-&8888888888888w.8w..-wwww-.wwwwwwwwwwww..8wwww-.wwwwwwwwwwww..8www--.wwwww888888-.               ",
"             .-------------8-8..-8888888888-.8888w8...-.wwwwwwwwwwwwwwww...-.wwwwwwwwwwwwwwww...-.wwwwww8q888888--.             ",
"           ..-------0-8-88888858..-888888w.8w8w8wwwww..-wwwwwwwwwwwwwwwwww..-wwwwwwwwwwwwwwwwww..8wwwww8w888588-8-8-.           ",
"         .---..------8-88888888888..-88w.8880w8wwwwwwww..-wwwwwwwwwwwwwwwwww..-wwwwwwwwwwwwwwwwww..8wwww88888888-----&.         ",
"       .-&&----..-8-8888808888w8w8w8...wwwwwwwwwwwwwwwwww..-wwwwwwwwwwwwwwwwww..8wwwwwwwwwwwwwwwwww.--w88888888-8-&-----.       ",
"     .&----------..-888888888wwwwwwwww..-wwwwwwwwwwwwwwwwww..-wwqwwwwwwwwwwwwwww..-wwwwwwwwwwwwwww-.w..8888888----------&-.     ",
"   .--------8-8-888..-88wwwwwwwwwwwwwwww..-wwwwwwwwwwwwwwwwww..-wwwwwwwwwwwwwwwwww..qwwwwwwwwwww-.www8w..-588-q-8&----------.   ",
" .&----------8-888888..-wwwwwwwwwwwwwwwwww-.-wwwwwwwwwwwwwwwww8-.-5ww8wwwwwwwwwwwww--.&wwwwwww-.wwww88888..8-8&------------&--. ",
" .--------8-88888588www..-wwwwwwwwwwwwww-.ww..-wwwwwwwwwwwww8-.8w..-wwwwwwwwwwwww--.ww..-www-.wwwww80888888..-8---------------. ",
" .---------8-888888wwwwww..-wwwwwwwwww-.wwwwww..-5wwwwwwww--.wwwwww..-wwwwwwwww--.wwwwww....wwww588858&88q-&-..-&-------------. ",
" O..------8-8808w8wwwwwwww...-wwwwww-.wwwwwwwwww..-wwwww8-.wwwwwwwwww..&wwwww--.wwwwwwwwww..-ww8w88888888-8-8--..-----&------.. ",
" #O...-----8888q8wwww8ww.wwww..-ww-.wwwwwwwwwwwwww..-w--.wwwwwwwwwwwwww..-w--.8wwwwww8wwwwww..-888088888-8-------..--------..2. ",
" #OOO...---&--88wwwwww.wwwwwwww...wwwwwwwwwwwwwwwwww...wwwwwwwwwwwwwwwwww...wwwwwwwwwwwwwwwww8..-8888q8-8-8--------..----..<22. ",
" O#O#OO...-----8-www.wwwwwwwwwwww..-wwwwwwwwwwwwwwwwww..-w8w8w8w8w8wwwwwwww..-wwwwwwwwwwww8w8q88..-888----------&---.--..222<2. ",
" OOOO#O#O...-----w.wwwwwwwwwwwwwwww..-wwwwwwwwwwwwwwwww8..-8w8w8w8w8w8wwwwwww..-wwwwww8ww8w0888888..--8-8-&---------...222<22<. ",
" OOOOO#O#OO...---.-wwwwwwwwwwwwwwwwww..&wwwwwwww-wwwww8888..-885888q888w8w8www-..-wwwwww888888888888..-------------..22<2222<2. ",
" OOOOO#O##OOO...-.---wwwwwwwwwwwwwwwwww..-wwwwwwwwwww8w8w-88..-888888808w8ww-.www..-www8w8888888858-8-..---------..<<222222222. ",
" .OOOOOO##OOO#O...-----wwwwwwwwwwwwwwwwww..-wwwwww5q8888808888..-888888858-.8wwwwww..-88888888888-------.------..22<222<<22<<2. ",
" .O#OOO#O##OOOOOO...-----wwwwwwwwwwwwwww--...-www8w5q88888888--.8.-88888-.w8w8www8www..-888888888-8-8----.---..2<<222<<222<<2<. ",
" .##OO#OOOOOOO#OOOO...-----wwwwwwwwwww--.wwww..-08808808888--.88888.-8-.8880888w8w8w888..-888888---------.-..<222<<<<<<22<<2<<. ",
" .#OOOOOO#OO###OOOO#O...-----8wwwwww--.w8wwww8w..-8888888--.8q880888..-8888888w8w8w8w8858..-888-8-8------..22<222222<22<222222. ",
" .OOOOOO#O##O#O#O#OOO##...---&-www--.wwwww8888888..-888--.-8-8&8-588-0..-8888888888888-88-8..----------..<<2<22<<22<<<22<22222. ",
" .#O##OOOOO#O#O#OO#OOO#OO...-&--.-.wwww8w8588888888...-.0-8-8-8-8-880888..-888888885888q8805-...-----..2222<<<222<2<<2<<<<222<. ",
" .OOO#OOOO#O#O#OOOOOO#OOOOO...--.--w88888888-80q88-8-..------------8-88888..-888885888888888---.---..2<<<<<22<<2<<<<2<2<<22<2<. ",
" .#O#OO#O#O##OOOO##O#OO#OOO##....----8-88888888&8---q-8..-8-8-5-8-8-8-888088..-8888888888q8----.-..<2<<<<2<<<<<2<2<2<2<<<2<222. ",
" .OOOO##OOOOOOO#O##OOOOOOO#OOOO...-----858&8---&-----&&--.--&----------5-888q8..-88885888------..<<<<<<2<22<<<22<<2<<<<22<2222. ",
" .OOOOO#OOOO#OOOOO#O#OOOOO##O#OOO...------8-8------------.-..-------8-8-88888888..--888-----&..<2222<<<22<<2<22222<2<<2<222222. ",
" .OOOOO#OO###OOOOO#OOOOO#OOOO##O#OO...-----------------.-----..----------8-8508888..-------..<2<22<2<2<<22<2222222222<<22222<2. ",
" .OOOOOOOO###OO#OO#OOOOOOO#OOOO#OO##O...------&------.--&------..-----8-8-8-8888888-.----..2<2<<<2<<2<<22<<<2<<<2<<<2222222<2<. ",
" .OOOOOOOO#OOOOOOOOOOO##O#OOOO##OOOOO#O...-------&-.--&----------..-&--&---8-88-q---.--..2<2<<2222<<222<<22<<<<<2<2<<2<2<2<<<2. ",
" .#OOOO#OOOOOO##O#O#O##OOO#OOO###OOO##O#O...&---..-----------------..-&-8&8-8-------...<2<22<2222222<22<22<222<<222<222<222<2<. ",
" .OOOOOO#OOOO#OOOOOOOOOO#OO#O#OOOOOOO#OO#O#...--.--------------------..------------..<<<<22<<2<222<<22222<222<222<222<<<2222<2. ",
" .OOOOOOOOO#OO#O#OOOO##OOOOOOO#OOOOOOOOOOOO#O....----------------------..--------..2<<<<<<<222<<222222<2<22<22<2<<22<<2<2222<2. ",
" .#O#OO#OO#OOOO#OOO#OOOO##OOOOO#OOO#O#OOOOOO#O#...----&---&--------------..----..<<<222<<<2<<2<<<<<2<<222<222<2<22<<222<2<<22<. ",
" .OO#OOO#OOO##OOOOOOO##OOOOOOOOOO#O#OOOOOOOOOOOOO...----&-----------------.--..2<<2<22<<22<222<<2<<<2<<2<2<<222<<<2222<<22222<. ",
" .#OOOOO#OO#OOOO#OOOO##OOO#O###OOOOOOOOO#OOO#O###OO...-------&------------...22<2<<<2222<<2<22<<<222<22<22<22<<<22222<2<2<2<<<. ",
" .OOOO#O#OOOOOOOOOO#O#OOO#OOOOOO##OO#O#OOO#OO##OOO###...-&---------------..<<<<2<2<22<<<2<2<222<<22<<222<<<<22<<22<222<22<22<2. ",
" .O#OO#OOO#OOO#O##OOO##OOOO##OO##O#O##O##OOOO#O###O##O#...---&---------..<22<<2222<<<2<222<2<222<2<<22<2<<22<<22<<<2<2222<2<2<. ",
" .OOO##OOOO#O#OOOO##OOOOO#OOOOOOOOOOO#OOOOO#OO#OOO##OOO##...------&--..22222<<<<22222222<2<2<22<<<222<2222<22<222<222<22<<2<<<. ",
" .#OO#OOOOO#OOOOOOO#O#OOOOOO#OOO#OOO#OOOO#O#OOOO##OO#O#O##O...&----..<<<222<2<<22<<2222<2<22<2<<<2<22<2<<2222<2<<2<2<222<<<<<<. ",
" .OOOOO#O#O##O#OO###O##OOOOO#OOOOOO#OOOOO##OOO#O#OOOO#OO#####...-.<2<2222<2<<2<<2<2<22<22<<<<2<222<<<<22<<2<2<222<2<2<<2222222. ",
" .OOOOOO##OOO#O#O#OOOOOOO##O###OOO#OO###OOOOOO#OO#OOOOO#OOO#OO#.2<<2<<22<<2<2222<22<<<<2<<2<<2<222<<2<<2222<<22<<2<22<<<2<2<22. ",
" .O#OOOOOO#OOOO#OO#OOOOOO##OOOOOOO#O#OOOOOOOO#OOOOOO##OO#O##O##O<<<<2<2<2<<2<2<<22<22<2<<<<<<222<22<222<<<22<2<222222222<<22<2. ",
" .O#OOOOOOO#OOOOOOOOOOOO#OO#O#OOO##OOOOOOOO#O#O##O#OOOO##OO#OOOO<2<222<22<2222222222<<<222<<222222222<<2<<22<<22<22<22<<<2<222. ",
" .O#OO#OO#OOOO#OO##OO#OOOOOOOOOOOO#OOO#OOO##O#O####OOOO##O##O#O#<<2<<22<<<<2<<2<222<2<2<2<2<<222<<22222<<<2<<22<<<<222222<<<2<. ",
" .OOOOOOOOOOOOOOOOOOO#OO#OOO#OOOOOOO#OOOOOO#O#O#OOO#OOO##OOOOOOO<2<<<<<2<222222<2222222<2<<22222<<2<2<<22<2<222<<22<2<2<2<22<2. ",
" .OOOOO##O#O#OO#O##OO##OOOOO#O#O#O#OOO##O###OOO#OOOOO####OOO#O#O<<22<<222<2<<2<2<<222<<2<2<<22<<22<<<<222222<2<<<22<22<22<222<. ",
" .OOOOO##OOOO#OOOOOOO###OOOOOOO#OOOOO#OO#OOO#OOOO#O#OOOO##O#OOOO<22<<22222<<<<2<2<<222<222<22<2<2<22<2<<<<2<<222<<22<22<22<22<. ",
" .#OOOO#OOO#OOOOOOO##OOOOO#OOOOOOOO#O###OOO##OOO#OOOOO##O#OO#OOO<<2<22<22222<<2<<<22<<2<2<22<2<<<<<2<2<<22<<22<2<<22<<2<2<<<<2. ",
" .O#OOOOOO#OOOO#OOOOOOOOOOO###OOO##O#O##OOOO#OOO#OOOOOO#OO#OOO#O<22<222<2<<<2<<222222<2<22<22222<<2<2<2<222<<<22<2<2222<2<<2<<. ",
" .OOO##OOOOOOOOO##O#OOOOOO#OOOOO##OO#OOO##OO##O####OOO#OOOO#OOOO22<<<2<22<222<<2<<22<2222222<2<<22<222<<<<<2<2<<<<22<2<<<<<<<2. ",
" .#OOOOOOOO##OOO#O#OO#O###OOOO#OOOOOOOOO#O#O#OOOO#OO#OO#O##OOO##222222<2<<<2<<2<2<<22<<2<2<<<<2<<22<2<<<2222<<2<222222<<<<<<<<. ",
" .##OOO##OO#O#OOOOO#O#OOOOOOOOOOOOO#OOOOOO#O#OOOOO#OOOOO##OOO###2<22<2222<<22<<222222<2<22<2<<22<222<<22<2222<<<<2<<22<22222<<. ",
" .OOO#O#OOOO#OOOOOOOOO#OOOOOOOOOOO##OOOOOO#OOO#OOOOOO#OO###O##OO22<222<22<<<2<2<22<2<2<<<<22<<2222<2<22<2222<2<<22<<<22<222222. ",
" .O#OOOOOOOOOO#OOOOOOO##OOO#OO#OO#OOO#OOOO#OO###OOOOOOOOOOO#OO#O222<22<2<22<2<<22<<22<22<<22<2<<2<<<22<2222<2<2<22222222<<222<. ",
" .O#OO##O##OOO#O#OOOOOOO#OO#OO##OOOOOOOOO#OOOO#OO#OOOOO#OOOO#OOO<22<22<<<<<<22<<2222<2<<<<<222222<<2<2<2<<<<<2<2<<222222222222. ",
" .OOOOOOO##OOO#O##O##OOOOOO#O#OOOOO#O#O##O#OOO#OOOO#OOO#OO###OOO2<<22<2<<<22<222<<2222<22<<2<22222<22<<22<222222<<2222<<22<<22. ",
" .OOOOOOOOOO#OO####OOOOOOOO#O#OOOO##O#OO##O#OOOO#O#OOOOO#OOOOO##2<<22<2<<2<<<<2<22<2<22<22<<<<<2<<2<<2<<<<22<222<<<<<<<2<<2222. ",
" .O##OOOO#O#O#OO##OO##O#OOOOOOOOOOOOO##OO#OO#OOO#OOOO##O#O##O##O<<<<<2<<<<<<<222<2<22<<<2<<222<2222222<22<<<2222<2222222<2<<<<. ",
" .OOOOO##OOO##OOOO#OOOOO#OO#O#O#OOOOOOO#OOO#O#OOO##O#OO##OOOO#OO<2<<<22<<22<<222<2<<<<<22<22222<<<2<<<2<<<2<22<<<<<2<22<222<2<. ",
" .OOOOOOO##OO##O##OO#O###OOOOO#OOOOOO#OO#O#OO#OOOO#OOOOO##OOOO#O2<2<<2<2<2<<22<<22<222<<2<2<222<<<2<22<<22222<2<2<<<2<222<2<<<. ",
" .#OOOOOOOOOOO#O#O#OOO#OOOOOOO#O#OOOOOOOOOOOOOOOOOO#O#OO#O#O#OOO<2<<<2222<<<<<222<<2<<<222<<<22<<2<2222<2<222<2<2<<22222<<<2<2. ",
" .OO#OO#O##O#O#OOOOO###O####OOOO#O###OOO#OO#OOOOOOOOOO#OOOOOO#OO<<22<<222<<<<<<<22<<222222<<<<<<2<<22<2<2<2222222<<2<222222<22. ",
"  .#O#OO#OOOOOOOOOOOO##OOOOOOOO###OOOOOO#OO##OO#OOO#OOOOOO#OOOOO22<<2<<2<<<22222222<<222222<2222<22<<<2<22<<<222222<<<2<22<22.  ",
"    .OOOOOO#OO##O#OO##OOO#OOO##OOOOO##OOOOOO#OOO#OOOOOOO#OOOOOOO2<2<2222<2222<<22222<<<<2<2222<<<<22222222<<2<2<2<2<<22<2<<.    ",
"      .OO#OOOOOOO#OOOOO##O#O##OOOOO#OOOO#OOOO##OOO#OO##OOOOO###O<<<<<22<222<<<22<2<2<222<22222<<<<<2<<<<222<22<<222<2<2<<.      ",
"        .#OOOO#OO#OO#OOOOOOO##OOO#OOO#O#OOOOOOO#OOOOOOO#O#OOOOOO<2222<2<2<2<<2<<22<<<2<2<222<2<2<22<<<<22<<2<2<2<2<<2<<.        ",
"          .OO###OOOOO##OOOOO#OOO#OO#OOO##OOO#O#OO#####OOO#OOO#OO22<<2<<<2<22222<<22<<22<<<2<<<<<<2<<2<2222<2<<2<<2<22.          ",
"            .O#O##O#OOOO###OO#OO#OO#OOOOOO#OOOOOO##OOOOOOO##OO#O<<2<2<2<2<22<2<222<2222<22<2<2222<222<2<22222<<<22<.            ",
"              .#OO#OO##O#O#OOO##O#O#OOOO#OOOOOOOOO#O##OO#OO#O##O2<22<22<2<<22<2<2222<222<2<22<<2<2<<222<2<<<2<<22.              ",
"                .OO#OOO#O#OOO#O#O###OOO#OO#OO#OOOOOO#OOOOO#OO#O#2<2<<<22<2<222<2<<22222<2<2<<2<2222<<<2<22<2<22.                ",
"                  .##OOO#OO#OOO##OOO##OOOOOOO#O#OOOOOO#OOOOOOOOO2<<<<<<<<<<2<<<<22<2<2<2<<2<<<2<222<<2<2222<<.                  ",
"                    .OOOOOO#OOOOOO##OOOO#O##OOOO#OO#OOOOO#OO#OO#<2222<2<22<<222<22<22<2<<<<2<2<2<22222<2<<2.                    ",
"                      .#OO#OOOOOOOO#OOOOO#OOOOO#OOO##O#O#OOOO###<222<22<<2<222222<222<<<2<2<2<22<222<2<<<.                      ",
"                        .OOOOOO#OOOOOO##OO##O#O#OO#OOOOOOOOOO#OO<22<<<<<<2<<22<22222<<<2<<2<2<2<22<2<<2.                        ",
"                          .#O###OO#OO#OOOOOO#OOO##OO#OOOOO#OOOOO2<<222<22<2<<2222<222222<<<<2<2<222<2.                          ",
"                            .OOOOOOOOOOOOOO#O#####OO#O#OOO#OO#O#2<<<222<<222<22<2<2<<<<<22222<22<<2.                            ",
"                              .#OOO###O#O#OOO#O##O###OOOOOOOO#OO22222<22<2<<22<<22<2<22<<222<22<<.                              ",
"                                .O##OOOOO#OOOOOOOOOO#OOO#O###OO#<2<22<22<<222<<2<2<<22<<22<2222.                                ",
"                                  .OO#OOO#OO##OOOOOOOOOOOO#O#O#O2<<222<<<22<<2<2<2<<<<<<222<<.                                  ",
"                                    .OOOOOOOO#OOOO##OO####OOOO##2<<<222<<<22222222<<<2<2<2<.                                    ",
"                                      .O#OOOO##OOOO#OOOO##OO#OOO<22<2<<<<2222<<22<2<<2<22.                                      ",
"                                        .OOO#OOOOO#O#O###OOOOOOO22222<<222<2<22<22<2<2<.                                        ",
"                                          .OO####OO#O##OOOOO#OOO22<<2<2222<2<<2<2<22<.                                          ",
"                                            .####OOOOOOOOO#O##OO2<<2222<2<2<<<2<<2<.                                            ",
"                                              .OOOOOOOOOOO#OOOO#2<<222<22<2<<<22<.                                              ",
"                                                .OOOOO#O#O#O#OOO22<222<22<2<222.                                                ",
"                                                  .#OOOOO##OOO##<2222222<<2<<.                                                  ",
"                                                    .OOOOOOOOOOO2<22<2<<222.                                                    ",
"                                                      .OOO#OO#OO22<2<<<<<.                                                      ",
"                                                        .OOO#O#O2<22222.                                                        ",
"                                                          .OOOO#22222.                                                          ",
"                                                            .OOO22<.                                                            ",
"                                                              .O2.                                                              ",
"                                                                                                                                "
};
